<svg id="svg" version="1.1" xmlns="http://www.w3.org/2000/svg" xmlns:xlink="http://www.w3.org/1999/xlink" width="400" height="327.80203784570597" viewBox="0, 0, 400,327.80203784570597"><g id="svgg"><path id="path0" d="M0.000 163.934 L 0.000 327.869 200.000 327.869 L 400.000 327.869 400.000 163.934 L 400.000 0.000 200.000 0.000 L 0.000 0.000 0.000 163.934 M72.131 93.443 C 72.131 93.655,76.004 93.770,83.095 93.770 C 90.051 93.770,94.134 93.890,94.262 94.098 C 94.374 94.279,95.637 94.426,97.069 94.426 C 98.501 94.426,99.672 94.552,99.672 94.706 C 99.672 94.859,101.109 95.086,102.865 95.210 C 104.620 95.333,106.199 95.576,106.373 95.750 C 106.546 95.923,107.323 96.066,108.098 96.066 C 108.874 96.066,109.508 96.213,109.508 96.393 C 109.508 96.574,109.868 96.721,110.309 96.721 C 110.749 96.721,111.200 96.869,111.311 97.049 C 111.423 97.230,111.874 97.377,112.314 97.377 C 112.755 97.377,113.115 97.534,113.115 97.726 C 113.115 97.917,113.373 98.035,113.689 97.987 C 114.222 97.906,116.681 98.899,117.049 99.344 C 117.278 99.621,119.541 100.656,119.917 100.656 C 120.087 100.656,120.493 100.951,120.820 101.311 C 121.146 101.672,121.612 101.967,121.854 101.967 C 122.097 101.967,122.295 102.105,122.295 102.273 C 122.295 102.441,122.614 102.680,123.004 102.804 C 123.730 103.034,129.836 108.980,129.836 109.457 C 129.836 109.603,130.205 110.068,130.656 110.492 C 131.107 110.915,131.475 111.439,131.475 111.656 C 131.475 111.873,131.691 112.230,131.954 112.448 C 132.480 112.885,134.426 116.713,134.426 117.311 C 134.426 117.517,134.721 118.210,135.082 118.852 C 135.443 119.495,135.738 120.355,135.738 120.764 C 135.738 121.173,135.922 121.693,136.148 121.918 C 136.455 122.225,136.557 124.496,136.557 130.984 C 136.557 137.471,136.455 139.742,136.148 140.049 C 135.922 140.275,135.738 140.790,135.738 141.194 C 135.738 141.598,135.590 142.020,135.410 142.131 C 135.230 142.243,135.082 142.694,135.082 143.134 C 135.082 143.574,134.934 143.934,134.754 143.934 C 134.574 143.934,134.426 144.244,134.426 144.623 C 134.426 145.469,133.492 147.529,132.804 148.201 C 132.194 148.797,131.682 149.607,130.943 151.148 C 130.346 152.392,124.667 158.361,124.080 158.361 C 123.882 158.361,123.363 158.745,122.926 159.215 C 122.489 159.685,121.836 160.201,121.475 160.362 C 120.772 160.675,119.613 161.371,119.344 161.640 C 119.141 161.844,117.951 162.409,116.230 163.120 C 115.508 163.418,114.662 163.797,114.349 163.962 C 114.036 164.127,113.491 164.262,113.139 164.262 C 112.786 164.262,112.407 164.410,112.295 164.590 C 112.184 164.770,111.520 164.918,110.820 164.918 C 110.120 164.918,109.447 165.080,109.324 165.279 C 109.201 165.477,108.713 165.575,108.239 165.495 C 107.765 165.415,106.934 165.456,106.393 165.587 L 105.410 165.824 106.456 165.863 C 107.031 165.884,107.593 166.049,107.705 166.230 C 107.816 166.410,108.305 166.568,108.790 166.581 C 109.275 166.595,110.115 166.888,110.656 167.233 C 111.197 167.579,111.861 167.958,112.131 168.077 C 112.889 168.408,114.754 170.247,114.754 170.663 C 114.754 170.867,115.123 171.380,115.574 171.803 C 116.025 172.227,116.393 172.741,116.393 172.947 C 116.393 173.152,116.829 173.737,117.362 174.247 C 117.894 174.758,118.313 175.265,118.293 175.374 C 118.243 175.645,118.756 176.846,119.008 177.049 C 119.326 177.305,120.984 180.841,120.984 181.262 C 120.984 181.470,121.094 181.640,121.230 181.642 C 121.505 181.645,122.297 183.221,122.291 183.754 C 122.286 184.223,128.296 196.202,128.606 196.339 C 128.741 196.399,128.852 196.612,128.852 196.812 C 128.852 197.247,133.482 206.648,133.815 206.889 C 133.942 206.981,134.146 207.454,134.268 207.941 C 134.391 208.427,134.688 208.989,134.929 209.189 C 135.170 209.389,136.225 211.249,137.273 213.322 C 138.322 215.395,139.326 217.377,139.504 217.726 C 139.682 218.075,139.940 218.361,140.078 218.361 C 140.215 218.361,140.328 218.559,140.328 218.802 C 140.328 219.044,140.615 219.502,140.965 219.819 C 141.315 220.136,141.693 220.808,141.803 221.311 C 141.914 221.815,142.291 222.487,142.642 222.804 C 142.992 223.121,143.279 223.530,143.279 223.714 C 143.279 223.897,143.916 224.658,144.695 225.404 C 145.474 226.151,146.209 227.014,146.327 227.323 C 146.446 227.631,146.804 227.981,147.124 228.099 C 147.443 228.218,147.928 228.547,148.200 228.830 C 149.110 229.775,150.156 230.173,152.217 230.359 C 153.342 230.461,154.557 230.666,154.918 230.816 C 155.279 230.966,155.838 231.173,156.161 231.277 C 156.673 231.441,156.736 231.810,156.653 234.175 L 156.557 236.885 137.812 236.970 L 119.067 237.055 118.550 236.018 C 118.266 235.448,118.033 234.834,118.033 234.654 C 118.033 234.233,116.334 230.708,116.025 230.489 C 115.896 230.397,115.693 229.880,115.574 229.341 C 115.361 228.370,114.744 226.874,114.427 226.557 C 114.024 226.156,113.443 224.880,113.443 224.398 C 113.443 223.876,112.500 221.630,112.148 221.311 C 111.795 220.993,111.183 219.494,110.977 218.443 C 110.862 217.857,110.669 217.376,110.548 217.374 C 110.295 217.372,109.508 215.775,109.508 215.265 C 109.508 215.077,108.679 213.225,107.666 211.150 C 106.653 209.075,105.704 207.082,105.557 206.721 C 104.901 205.108,104.117 203.429,103.951 203.279 C 103.851 203.189,103.597 202.746,103.387 202.295 C 103.177 201.844,102.594 200.590,102.092 199.508 C 101.589 198.426,101.097 197.467,100.999 197.377 C 100.808 197.204,100.416 196.408,99.461 194.262 C 99.140 193.541,98.687 192.755,98.454 192.516 C 98.221 192.277,97.358 190.691,96.537 188.992 C 95.716 187.292,94.905 185.902,94.735 185.902 C 94.565 185.902,94.426 185.698,94.426 185.450 C 94.426 185.202,94.198 184.809,93.918 184.577 C 93.639 184.345,93.134 183.548,92.796 182.807 C 92.458 182.066,91.876 181.182,91.501 180.843 C 91.126 180.504,90.820 180.063,90.820 179.863 C 90.820 179.663,90.451 179.223,90.000 178.884 C 89.549 178.546,89.180 178.108,89.180 177.912 C 89.180 177.425,84.211 172.459,83.724 172.459 C 83.509 172.459,83.284 172.342,83.224 172.200 C 83.037 171.757,79.369 170.164,78.535 170.164 C 78.100 170.164,77.652 170.016,77.541 169.836 C 77.430 169.656,76.102 169.508,74.590 169.508 C 73.079 169.508,71.751 169.361,71.639 169.180 C 71.528 169.000,70.833 168.852,70.094 168.852 L 68.752 168.852 68.933 191.672 C 69.060 207.602,69.224 214.601,69.476 214.853 C 69.674 215.051,69.836 215.921,69.836 216.787 C 69.836 217.652,69.984 218.361,70.164 218.361 C 70.344 218.361,70.492 218.631,70.492 218.961 C 70.492 219.291,70.860 220.287,71.310 221.174 C 71.760 222.061,72.129 222.939,72.130 223.124 C 72.131 223.310,72.426 223.674,72.787 223.934 C 73.148 224.194,73.443 224.568,73.443 224.765 C 73.443 225.428,75.559 227.210,77.377 228.078 C 77.648 228.207,77.943 228.397,78.033 228.501 C 78.397 228.919,79.700 229.508,80.258 229.508 C 80.585 229.508,81.017 229.673,81.218 229.874 C 81.420 230.076,83.221 230.318,85.228 230.413 C 87.232 230.508,88.950 230.712,89.045 230.867 C 89.141 231.021,89.579 231.148,90.019 231.148 C 90.809 231.148,90.820 231.188,90.820 234.098 L 90.820 237.049 55.902 237.049 L 20.984 237.049 20.984 234.098 C 20.984 231.188,20.995 231.148,21.784 231.148 C 22.224 231.148,22.662 231.023,22.756 230.870 C 22.850 230.717,24.470 230.505,26.354 230.398 C 28.239 230.291,30.052 230.060,30.382 229.884 C 30.713 229.709,31.809 229.184,32.817 228.718 C 33.825 228.253,34.918 227.576,35.245 227.214 C 35.572 226.853,35.963 226.557,36.114 226.557 C 36.544 226.557,38.027 225.173,37.869 224.919 C 37.792 224.793,38.166 224.271,38.700 223.759 C 39.235 223.247,39.672 222.578,39.672 222.271 C 39.672 221.965,39.893 221.292,40.162 220.775 C 40.431 220.259,40.653 219.587,40.654 219.282 C 40.655 218.977,40.803 218.636,40.984 218.525 C 41.164 218.413,41.311 217.602,41.311 216.721 C 41.311 215.841,41.459 215.029,41.639 214.918 C 42.093 214.638,42.093 115.526,41.639 115.246 C 41.459 115.134,41.311 114.471,41.311 113.770 C 41.311 113.070,41.177 112.414,41.012 112.313 C 40.847 112.211,40.612 111.533,40.490 110.807 C 40.233 109.290,39.549 107.791,38.846 107.207 C 38.579 106.986,38.361 106.633,38.361 106.422 C 38.361 105.590,35.607 103.463,32.787 102.116 C 31.795 101.642,30.725 101.118,30.409 100.952 C 30.093 100.786,28.249 100.562,26.311 100.455 C 20.945 100.158,20.984 100.189,20.984 96.313 L 20.984 93.115 46.557 93.115 C 63.388 93.115,72.131 93.227,72.131 93.443 M219.508 96.721 L 219.508 100.164 212.965 100.368 C 208.563 100.505,206.381 100.693,206.298 100.942 C 206.230 101.145,206.003 101.315,205.792 101.320 C 205.235 101.332,202.623 103.879,202.623 104.411 C 202.623 104.660,202.439 104.925,202.213 105.001 C 201.911 105.102,201.803 106.347,201.803 109.724 C 201.803 114.501,201.791 114.444,203.615 118.067 C 203.761 118.356,203.983 119.278,204.108 120.116 C 204.234 120.954,204.468 121.639,204.627 121.639 C 204.787 121.639,204.918 121.999,204.918 122.440 C 204.918 122.880,205.066 123.331,205.246 123.443 C 205.426 123.554,205.574 124.005,205.574 124.446 C 205.574 124.886,205.721 125.246,205.902 125.246 C 206.082 125.246,206.230 125.461,206.230 125.725 C 206.230 126.543,207.334 129.836,207.608 129.836 C 207.752 129.836,207.869 130.127,207.869 130.482 C 207.869 130.837,208.146 131.622,208.485 132.225 C 208.825 132.829,209.205 133.791,209.330 134.363 C 209.456 134.934,209.695 135.486,209.861 135.589 C 210.028 135.692,210.164 136.033,210.164 136.347 C 210.164 137.065,210.901 138.683,211.230 138.686 C 211.365 138.687,211.475 139.049,211.475 139.489 C 211.475 139.929,211.625 140.382,211.809 140.495 C 211.992 140.608,212.063 140.828,211.967 140.984 C 211.871 141.139,211.943 141.359,212.126 141.472 C 212.309 141.585,212.459 142.038,212.459 142.478 C 212.459 142.919,212.570 143.280,212.705 143.281 C 213.014 143.284,213.767 144.878,213.781 145.557 C 213.787 145.837,214.008 146.352,214.273 146.702 C 214.537 147.052,214.754 147.591,214.754 147.901 C 214.754 148.210,215.035 149.030,215.379 149.723 C 216.487 151.958,217.049 153.365,217.049 153.906 C 217.049 154.388,217.630 155.663,218.033 156.066 C 218.470 156.503,219.016 157.765,219.016 158.337 C 219.016 158.689,219.153 159.062,219.319 159.165 C 219.485 159.268,219.724 159.820,219.850 160.391 C 219.976 160.963,220.356 161.925,220.695 162.529 C 221.034 163.133,221.311 163.917,221.311 164.272 C 221.311 164.627,221.447 164.918,221.613 164.918 C 221.779 164.918,222.013 165.398,222.133 165.984 C 222.418 167.381,223.047 168.852,223.359 168.852 C 223.495 168.852,223.607 169.143,223.607 169.498 C 223.607 169.853,223.884 170.638,224.223 171.242 C 224.562 171.845,224.942 172.807,225.068 173.379 C 225.194 173.951,225.433 174.503,225.599 174.606 C 225.765 174.709,225.902 175.075,225.902 175.419 C 225.902 175.764,226.179 176.540,226.518 177.143 C 226.857 177.747,227.238 178.709,227.363 179.281 C 227.489 179.853,227.728 180.405,227.894 180.507 C 228.061 180.610,228.197 181.042,228.197 181.467 C 228.197 181.893,228.307 182.290,228.443 182.350 C 228.913 182.559,230.236 185.519,230.018 185.873 C 229.896 186.069,229.917 186.231,230.063 186.232 C 230.370 186.235,231.148 187.801,231.148 188.416 C 231.148 188.645,231.425 189.326,231.764 189.930 C 232.103 190.534,232.483 191.496,232.609 192.068 C 232.735 192.639,232.974 193.191,233.140 193.294 C 233.306 193.397,233.443 193.841,233.443 194.282 C 233.443 194.722,233.553 195.083,233.689 195.085 C 233.980 195.088,234.754 196.673,234.754 197.267 C 234.754 197.496,234.966 198.167,235.224 198.759 C 235.483 199.352,235.888 200.316,236.124 200.902 C 236.799 202.577,237.576 202.287,237.814 200.271 C 237.925 199.338,238.167 198.423,238.352 198.238 C 238.537 198.053,238.689 197.571,238.689 197.167 C 238.689 196.763,238.836 196.341,239.016 196.230 C 239.197 196.118,239.344 195.667,239.344 195.227 C 239.344 194.786,239.471 194.426,239.626 194.426 C 239.782 194.426,239.999 193.663,240.110 192.730 C 240.220 191.797,240.462 190.882,240.647 190.697 C 240.832 190.512,240.984 190.030,240.984 189.626 C 240.984 189.222,241.131 188.800,241.311 188.689 C 241.492 188.577,241.639 188.126,241.639 187.686 C 241.639 187.245,241.787 186.885,241.967 186.885 C 242.148 186.885,242.295 186.378,242.295 185.757 C 242.295 185.137,242.430 184.546,242.594 184.444 C 242.759 184.342,242.999 183.638,243.127 182.880 C 243.255 182.121,243.489 181.237,243.647 180.914 C 243.805 180.592,244.082 180.035,244.262 179.677 C 244.443 179.318,244.590 178.581,244.590 178.037 C 244.590 177.494,244.738 177.049,244.918 177.049 C 245.098 177.049,245.246 176.759,245.246 176.405 C 245.246 175.679,246.084 172.921,246.568 172.054 C 246.742 171.741,246.885 171.040,246.885 170.496 C 246.885 169.953,247.033 169.508,247.213 169.508 C 247.393 169.508,247.541 169.148,247.541 168.708 C 247.541 168.268,247.672 167.827,247.831 167.728 C 247.991 167.630,248.220 166.887,248.342 166.077 C 248.463 165.268,248.701 164.520,248.871 164.415 C 249.041 164.310,249.180 163.716,249.180 163.095 C 249.180 162.475,249.328 161.967,249.508 161.967 C 249.689 161.967,249.836 161.607,249.836 161.167 C 249.836 160.727,249.973 160.282,250.141 160.178 C 250.309 160.074,250.547 159.179,250.671 158.187 C 250.795 157.196,251.027 156.304,251.186 156.206 C 251.345 156.107,251.475 155.738,251.475 155.386 C 251.475 155.034,251.623 154.452,251.803 154.094 C 251.984 153.736,252.272 153.160,252.444 152.815 C 252.616 152.471,252.857 151.434,252.979 150.513 C 253.101 149.592,253.329 148.759,253.486 148.662 C 253.642 148.565,253.770 148.198,253.770 147.845 C 253.770 147.493,253.918 146.911,254.098 146.553 C 254.279 146.195,254.574 145.609,254.754 145.250 C 254.934 144.892,255.082 144.311,255.082 143.958 C 255.082 143.606,255.210 143.238,255.367 143.141 C 255.523 143.045,255.751 142.212,255.874 141.290 C 255.996 140.369,256.237 139.333,256.409 138.988 C 256.581 138.643,256.869 138.068,257.049 137.709 C 257.230 137.351,257.377 136.770,257.377 136.417 C 257.377 136.065,257.525 135.685,257.705 135.574 C 257.885 135.462,258.033 134.946,258.033 134.426 C 258.033 133.907,258.166 133.399,258.330 133.298 C 258.493 133.197,258.554 132.836,258.465 132.496 C 258.376 132.156,258.464 131.778,258.660 131.657 C 258.856 131.536,259.016 131.012,259.016 130.492 C 259.016 129.972,259.164 129.456,259.344 129.344 C 259.525 129.233,259.672 128.716,259.672 128.197 C 259.672 127.677,259.820 127.161,260.000 127.049 C 260.180 126.938,260.328 126.274,260.328 125.574 C 260.328 124.874,260.475 124.210,260.656 124.098 C 260.850 123.978,260.984 121.970,260.984 119.180 C 260.984 116.390,260.850 114.382,260.656 114.262 C 260.475 114.151,260.328 113.552,260.328 112.931 C 260.328 112.311,260.180 111.803,260.000 111.803 C 259.820 111.803,259.672 111.535,259.672 111.208 C 259.672 110.404,257.881 106.949,256.929 105.915 C 256.507 105.457,256.070 104.822,255.958 104.503 C 255.846 104.185,255.419 103.796,255.008 103.639 C 254.598 103.482,253.981 103.042,253.638 102.661 C 253.294 102.279,252.815 101.967,252.572 101.967 C 252.330 101.967,252.130 101.857,252.129 101.721 C 252.121 100.986,249.985 100.586,245.164 100.417 L 240.000 100.235 240.000 96.673 L 240.000 93.112 275.164 93.195 L 310.328 93.279 310.328 96.721 L 310.328 100.164 304.262 100.336 C 300.769 100.435,297.919 100.662,297.541 100.871 C 297.180 101.071,296.443 101.429,295.902 101.666 C 294.691 102.196,292.131 104.569,292.131 105.161 C 292.131 105.399,291.910 105.679,291.639 105.783 C 291.369 105.887,291.148 106.251,291.148 106.592 C 291.148 106.934,291.000 107.213,290.820 107.213 C 290.639 107.213,290.492 107.573,290.492 108.013 C 290.492 108.454,290.344 108.905,290.164 109.016 C 289.976 109.132,289.836 110.817,289.836 112.951 C 289.836 115.085,289.976 116.769,290.164 116.885 C 290.344 116.997,290.492 117.743,290.492 118.544 C 290.492 119.345,290.639 120.000,290.820 120.000 C 291.000 120.000,291.148 120.664,291.148 121.475 C 291.148 122.287,291.295 122.951,291.475 122.951 C 291.656 122.951,291.803 123.459,291.803 124.079 C 291.803 124.700,291.961 125.305,292.153 125.424 C 292.346 125.543,292.429 125.836,292.337 126.075 C 292.174 126.500,292.593 128.123,293.159 129.258 C 293.315 129.571,293.443 130.189,293.443 130.632 C 293.443 131.075,293.590 131.528,293.770 131.639 C 293.951 131.751,294.098 132.193,294.098 132.623 C 294.098 133.052,294.237 133.490,294.407 133.595 C 294.577 133.700,294.816 134.448,294.937 135.258 C 295.058 136.067,295.288 136.810,295.448 136.909 C 295.607 137.007,295.738 137.513,295.738 138.033 C 295.738 138.552,295.885 139.069,296.066 139.180 C 296.246 139.292,296.393 139.743,296.393 140.183 C 296.393 140.623,296.541 140.984,296.721 140.984 C 296.902 140.984,297.049 141.344,297.049 141.784 C 297.049 142.224,297.186 142.669,297.354 142.773 C 297.522 142.876,297.760 143.772,297.884 144.764 C 298.008 145.755,298.240 146.647,298.399 146.745 C 298.558 146.843,298.689 147.284,298.689 147.724 C 298.689 148.164,298.836 148.525,299.016 148.525 C 299.197 148.525,299.344 148.885,299.344 149.325 C 299.344 149.765,299.481 150.210,299.649 150.314 C 299.817 150.417,300.055 151.313,300.179 152.305 C 300.303 153.296,300.535 154.188,300.694 154.286 C 300.853 154.384,300.984 154.825,300.984 155.265 C 300.984 155.705,301.131 156.066,301.311 156.066 C 301.492 156.066,301.639 156.426,301.639 156.866 C 301.639 157.306,301.787 157.757,301.967 157.869 C 302.148 157.980,302.295 158.423,302.295 158.852 C 302.295 159.282,302.425 159.714,302.585 159.812 C 302.744 159.911,302.976 160.805,303.100 161.799 C 303.224 162.793,303.463 163.607,303.630 163.607 C 303.798 163.607,303.934 163.967,303.934 164.407 C 303.934 164.847,304.082 165.298,304.262 165.410 C 304.443 165.521,304.590 165.964,304.590 166.393 C 304.590 166.823,304.720 167.255,304.880 167.353 C 305.039 167.452,305.271 168.346,305.395 169.340 C 305.519 170.334,305.758 171.148,305.925 171.148 C 306.093 171.148,306.230 171.508,306.230 171.948 C 306.230 172.388,306.377 172.839,306.557 172.951 C 306.738 173.062,306.885 173.514,306.885 173.954 C 306.885 174.394,307.033 174.754,307.213 174.754 C 307.393 174.754,307.541 175.262,307.541 175.882 C 307.541 176.503,307.701 177.110,307.897 177.231 C 308.093 177.352,308.181 177.729,308.092 178.070 C 308.003 178.410,308.064 178.689,308.227 178.689 C 308.391 178.689,308.525 179.049,308.525 179.489 C 308.525 179.929,308.672 180.380,308.852 180.492 C 309.033 180.603,309.180 181.055,309.180 181.495 C 309.180 181.935,309.328 182.295,309.508 182.295 C 309.689 182.295,309.836 182.803,309.836 183.423 C 309.836 184.044,309.975 184.637,310.145 184.742 C 310.315 184.847,310.553 185.596,310.675 186.405 C 310.796 187.215,311.026 187.958,311.185 188.056 C 311.345 188.155,311.475 188.596,311.475 189.036 C 311.475 189.476,311.623 189.836,311.803 189.836 C 311.984 189.836,312.131 190.281,312.131 190.824 C 312.131 191.368,312.274 192.068,312.449 192.381 C 312.933 193.249,313.770 196.007,313.770 196.733 C 313.770 197.087,313.918 197.377,314.098 197.377 C 314.279 197.377,314.426 197.822,314.426 198.365 C 314.426 198.909,314.574 199.646,314.754 200.004 C 314.934 200.363,315.230 200.949,315.410 201.307 C 315.590 201.665,315.738 202.255,315.738 202.619 C 315.738 202.987,315.955 203.279,316.230 203.279 C 316.500 203.279,316.721 202.988,316.721 202.633 C 316.721 202.278,316.999 201.493,317.338 200.889 C 317.677 200.286,318.058 199.285,318.185 198.666 C 318.483 197.215,319.108 195.738,319.424 195.738 C 319.561 195.738,319.672 195.378,319.672 194.937 C 319.672 194.497,319.800 194.058,319.957 193.961 C 320.114 193.864,320.337 193.192,320.453 192.466 C 320.569 191.741,320.809 191.148,320.987 191.148 C 321.166 191.148,321.311 190.787,321.311 190.347 C 321.311 189.907,321.459 189.456,321.639 189.344 C 321.820 189.233,321.967 188.781,321.967 188.341 C 321.967 187.901,322.079 187.541,322.215 187.541 C 322.532 187.541,323.157 186.064,323.454 184.612 C 323.581 183.993,323.962 182.993,324.301 182.389 C 324.641 181.786,324.918 181.010,324.918 180.665 C 324.918 180.321,325.066 179.948,325.246 179.836 C 325.426 179.725,325.575 179.384,325.576 179.079 C 325.577 178.774,325.798 178.102,326.068 177.585 C 326.337 177.069,326.557 176.368,326.557 176.028 C 326.557 175.688,326.705 175.410,326.885 175.410 C 327.066 175.410,327.213 175.115,327.213 174.754 C 327.213 174.393,327.361 174.098,327.541 174.098 C 327.721 174.098,327.869 173.738,327.869 173.298 C 327.869 172.858,328.016 172.407,328.197 172.295 C 328.377 172.184,328.525 171.761,328.525 171.355 C 328.525 170.949,328.741 170.331,329.006 169.981 C 329.271 169.631,329.492 169.021,329.498 168.626 C 329.504 168.231,329.656 167.816,329.836 167.705 C 330.016 167.593,330.164 167.142,330.164 166.702 C 330.164 166.262,330.294 165.902,330.454 165.902 C 330.759 165.902,331.258 164.643,331.162 164.117 C 331.101 163.785,331.308 163.274,332.412 161.035 C 332.799 160.251,333.115 159.338,333.115 159.005 C 333.115 158.672,333.262 158.308,333.443 158.197 C 333.623 158.085,333.771 157.745,333.773 157.440 C 333.774 157.135,333.995 156.463,334.264 155.946 C 334.534 155.430,334.754 154.729,334.754 154.389 C 334.754 154.049,334.902 153.770,335.082 153.770 C 335.262 153.770,335.410 153.492,335.410 153.152 C 335.410 152.812,335.630 152.111,335.900 151.595 C 336.169 151.078,336.390 150.406,336.391 150.101 C 336.393 149.796,336.541 149.456,336.721 149.344 C 336.902 149.233,337.049 148.869,337.049 148.536 C 337.049 148.203,337.365 147.290,337.751 146.506 C 338.712 144.558,338.944 143.943,339.187 142.705 C 339.302 142.119,339.532 141.639,339.698 141.639 C 339.864 141.639,340.000 141.349,340.000 140.994 C 340.000 140.638,340.277 139.854,340.617 139.250 C 340.956 138.646,341.333 137.646,341.456 137.027 C 341.652 136.038,342.407 134.151,343.315 132.381 C 343.475 132.068,343.607 131.606,343.607 131.353 C 343.607 131.101,343.827 130.472,344.096 129.956 C 344.366 129.439,344.587 128.619,344.588 128.134 C 344.589 127.649,344.738 127.161,344.918 127.049 C 345.098 126.938,345.246 126.486,345.246 126.046 C 345.246 125.606,345.393 125.246,345.574 125.246 C 345.754 125.246,345.902 124.907,345.902 124.492 C 345.902 124.077,346.045 123.594,346.220 123.419 C 346.396 123.244,346.638 122.034,346.759 120.731 C 346.880 119.427,347.106 118.361,347.260 118.361 C 347.415 118.361,347.541 116.074,347.541 113.279 C 347.541 110.334,347.412 108.197,347.233 108.197 C 347.064 108.197,346.944 107.939,346.965 107.623 C 347.237 103.626,342.476 100.653,335.342 100.366 L 330.328 100.164 330.235 96.637 L 330.142 93.111 356.300 93.195 L 382.459 93.279 382.554 96.339 C 382.642 99.184,382.601 99.411,381.980 99.574 C 381.612 99.670,381.311 99.857,381.311 99.989 C 381.311 100.121,379.947 100.326,378.279 100.445 C 376.611 100.563,375.197 100.806,375.137 100.986 C 375.077 101.165,374.626 101.311,374.136 101.311 C 373.162 101.311,371.482 101.985,371.478 102.377 C 371.477 102.512,371.222 102.623,370.912 102.623 C 370.602 102.623,370.049 102.965,369.683 103.383 C 369.316 103.802,368.755 104.241,368.435 104.360 C 368.116 104.478,367.756 104.837,367.636 105.156 C 367.516 105.476,366.815 106.328,366.079 107.049 C 365.342 107.770,364.528 108.803,364.269 109.344 C 364.011 109.885,363.584 110.587,363.322 110.904 C 362.720 111.631,362.039 112.781,361.770 113.525 C 361.656 113.840,361.433 114.098,361.273 114.098 C 361.114 114.098,360.984 114.393,360.984 114.754 C 360.984 115.115,360.836 115.410,360.656 115.410 C 360.475 115.410,360.328 115.580,360.328 115.787 C 360.328 116.179,358.691 119.712,358.376 120.000 C 357.978 120.364,357.377 121.663,357.377 122.159 C 357.377 122.681,356.435 124.928,356.082 125.246 C 355.729 125.565,355.117 127.063,354.911 128.115 C 354.796 128.701,354.603 129.181,354.482 129.183 C 354.211 129.186,353.443 130.798,353.443 131.365 C 353.443 131.593,353.074 132.441,352.623 133.248 C 352.172 134.056,351.803 134.932,351.803 135.196 C 351.803 135.460,351.522 136.243,351.178 136.936 C 350.834 137.629,350.311 138.787,350.015 139.508 C 349.719 140.230,349.336 141.076,349.164 141.389 C 348.993 141.702,348.852 142.255,348.852 142.619 C 348.852 142.982,348.741 143.279,348.605 143.279 C 348.293 143.279,347.664 144.750,347.379 146.148 C 347.259 146.734,347.025 147.213,346.859 147.213 C 346.693 147.213,346.557 147.494,346.557 147.838 C 346.557 148.181,346.276 149.030,345.932 149.723 C 345.589 150.416,345.065 151.574,344.769 152.295 C 344.473 153.016,344.090 153.863,343.919 154.176 C 343.747 154.489,343.607 155.042,343.607 155.405 C 343.607 155.768,343.496 156.067,343.361 156.068 C 343.058 156.071,342.295 157.666,342.295 158.295 C 342.295 158.783,341.816 159.941,340.304 163.115 C 339.788 164.197,339.271 165.489,339.155 165.987 C 339.039 166.484,338.813 166.973,338.652 167.072 C 338.492 167.171,338.361 167.612,338.361 168.052 C 338.361 168.492,338.213 168.852,338.033 168.852 C 337.852 168.852,337.705 169.148,337.705 169.508 C 337.705 169.869,337.557 170.164,337.377 170.164 C 337.197 170.164,337.049 170.454,337.049 170.809 C 337.049 171.474,336.639 172.517,335.046 175.902 C 334.537 176.984,334.025 178.276,333.909 178.774 C 333.793 179.271,333.567 179.759,333.406 179.859 C 333.246 179.958,333.115 180.296,333.115 180.610 C 333.115 181.327,332.378 182.945,332.049 182.948 C 331.914 182.950,331.803 183.245,331.803 183.604 C 331.803 184.412,330.757 186.885,330.414 186.885 C 330.277 186.885,330.164 187.176,330.164 187.531 C 330.164 187.886,329.886 188.671,329.547 189.275 C 329.208 189.878,328.828 190.840,328.702 191.412 C 328.577 191.984,328.338 192.536,328.171 192.639 C 328.005 192.741,327.869 193.083,327.869 193.397 C 327.869 194.114,327.132 195.732,326.803 195.735 C 326.668 195.737,326.557 196.032,326.557 196.391 C 326.557 197.199,325.511 199.672,325.169 199.672 C 325.031 199.672,324.918 199.963,324.918 200.318 C 324.918 200.673,324.641 201.458,324.301 202.061 C 323.962 202.665,323.582 203.627,323.457 204.199 C 323.331 204.771,323.092 205.323,322.926 205.425 C 322.759 205.528,322.623 205.869,322.623 206.183 C 322.623 206.872,321.891 208.518,321.583 208.522 C 321.463 208.523,321.269 209.004,321.154 209.590 C 320.955 210.602,320.362 212.039,318.978 214.867 C 318.638 215.560,318.361 216.380,318.361 216.690 C 318.361 216.999,318.144 217.538,317.879 217.888 C 317.615 218.238,317.393 218.758,317.387 219.043 C 317.382 219.328,317.009 220.287,316.559 221.174 C 316.109 222.061,315.740 222.967,315.739 223.187 C 315.738 223.407,315.443 224.112,315.082 224.754 C 314.721 225.396,314.426 226.212,314.426 226.567 C 314.426 226.923,314.307 227.213,314.160 227.213 C 314.014 227.213,313.629 228.098,313.305 229.180 C 312.981 230.262,312.621 231.149,312.506 231.150 C 312.215 231.154,311.475 232.800,311.475 233.442 C 311.475 233.731,311.339 234.107,311.173 234.279 C 311.007 234.450,310.740 235.107,310.579 235.738 L 310.287 236.885 306.291 236.977 C 302.455 237.066,302.295 237.043,302.295 236.399 C 302.295 236.030,302.148 235.436,301.967 235.078 C 301.787 234.719,301.492 234.133,301.311 233.775 C 301.131 233.417,300.984 232.835,300.984 232.483 C 300.984 232.130,300.845 231.756,300.675 231.651 C 300.505 231.546,300.266 230.798,300.145 229.988 C 300.024 229.179,299.794 228.436,299.634 228.337 C 299.475 228.239,299.344 227.798,299.344 227.358 C 299.344 226.918,299.197 226.557,299.016 226.557 C 298.836 226.557,298.689 226.197,298.689 225.757 C 298.689 225.317,298.541 224.866,298.361 224.754 C 298.180 224.643,298.033 224.126,298.033 223.607 C 298.033 223.087,297.899 222.579,297.736 222.478 C 297.572 222.377,297.337 221.557,297.213 220.655 C 297.089 219.754,296.854 219.016,296.691 219.016 C 296.527 219.016,296.393 218.656,296.393 218.216 C 296.393 217.776,296.246 217.325,296.066 217.213 C 295.885 217.102,295.738 216.650,295.738 216.210 C 295.738 215.770,295.607 215.410,295.447 215.410 C 295.287 215.410,295.054 214.724,294.928 213.886 C 294.802 213.048,294.564 212.089,294.399 211.755 C 294.234 211.421,293.951 210.854,293.770 210.496 C 293.590 210.138,293.443 209.400,293.443 208.857 C 293.443 208.313,293.295 207.869,293.115 207.869 C 292.934 207.869,292.787 207.509,292.787 207.069 C 292.787 206.628,292.656 206.188,292.497 206.089 C 292.337 205.990,292.107 205.247,291.986 204.438 C 291.865 203.628,291.626 202.880,291.456 202.775 C 291.287 202.670,291.148 202.296,291.148 201.943 C 291.148 201.591,290.977 200.973,290.768 200.569 C 290.027 199.135,289.914 198.811,289.684 197.448 C 289.556 196.690,289.316 195.986,289.152 195.884 C 288.987 195.782,288.852 195.348,288.852 194.918 C 288.852 194.488,288.705 194.046,288.525 193.934 C 288.344 193.823,288.197 193.307,288.197 192.787 C 288.197 192.267,288.066 191.761,287.907 191.663 C 287.747 191.564,287.517 190.821,287.396 190.012 C 287.275 189.202,287.036 188.454,286.866 188.349 C 286.696 188.244,286.557 187.807,286.557 187.377 C 286.557 186.948,286.410 186.505,286.230 186.393 C 286.049 186.282,285.902 185.831,285.902 185.390 C 285.902 184.950,285.754 184.590,285.574 184.590 C 285.393 184.590,285.246 184.230,285.246 183.790 C 285.246 183.350,285.107 182.904,284.937 182.799 C 284.767 182.694,284.529 181.945,284.407 181.136 C 284.286 180.326,284.056 179.583,283.897 179.485 C 283.737 179.386,283.607 178.954,283.607 178.525 C 283.607 178.095,283.459 177.652,283.279 177.541 C 283.098 177.430,282.951 176.913,282.951 176.393 C 282.951 175.874,282.820 175.368,282.661 175.269 C 282.501 175.171,282.271 174.428,282.150 173.618 C 282.029 172.809,281.790 172.061,281.620 171.956 C 281.450 171.850,281.311 171.476,281.311 171.124 C 281.311 170.771,281.164 170.190,280.984 169.832 C 280.803 169.473,280.508 168.887,280.328 168.529 C 280.148 168.171,280.000 167.589,280.000 167.237 C 280.000 166.884,279.861 166.510,279.691 166.405 C 279.521 166.300,279.283 165.552,279.161 164.742 C 279.040 163.933,278.810 163.190,278.651 163.091 C 278.491 162.993,278.361 162.552,278.361 162.112 C 278.361 161.672,278.213 161.311,278.033 161.311 C 277.852 161.311,277.705 160.804,277.705 160.183 C 277.705 159.563,277.566 158.969,277.396 158.864 C 277.226 158.759,276.988 158.011,276.866 157.201 C 276.745 156.392,276.515 155.649,276.356 155.550 C 276.196 155.452,276.066 155.011,276.066 154.571 C 276.066 154.131,275.918 153.770,275.738 153.770 C 275.557 153.770,275.410 153.410,275.410 152.970 C 275.410 152.530,275.262 152.079,275.082 151.967 C 274.902 151.856,274.754 151.429,274.754 151.019 C 274.754 150.609,274.643 150.163,274.508 150.027 C 274.373 149.892,274.250 149.683,274.236 149.563 C 274.150 148.867,273.687 147.296,273.423 146.808 C 273.253 146.495,273.115 145.876,273.115 145.434 C 273.115 144.991,272.967 144.538,272.787 144.426 C 272.607 144.315,272.459 143.863,272.459 143.423 C 272.459 142.983,272.328 142.623,272.168 142.623 C 272.009 142.623,271.775 141.937,271.649 141.099 C 271.524 140.261,271.286 139.302,271.120 138.968 C 270.955 138.634,270.672 138.068,270.492 137.709 C 270.311 137.351,270.164 136.833,270.164 136.557 C 270.164 136.282,270.027 135.800,269.860 135.487 C 269.314 134.465,269.083 133.707,268.660 131.557 C 268.544 130.971,268.319 130.492,268.160 130.492 C 268.000 130.492,267.869 129.975,267.869 129.344 C 267.869 128.713,267.721 128.197,267.541 128.197 C 267.361 128.197,267.213 128.557,267.213 128.997 C 267.213 129.437,267.083 129.878,266.923 129.977 C 266.764 130.075,266.534 130.818,266.412 131.628 C 266.291 132.437,266.053 133.185,265.883 133.290 C 265.713 133.395,265.574 133.989,265.574 134.610 C 265.574 135.230,265.426 135.738,265.246 135.738 C 265.066 135.738,264.918 136.098,264.918 136.538 C 264.918 136.978,264.770 137.430,264.590 137.541 C 264.410 137.652,264.262 138.104,264.262 138.544 C 264.262 138.984,264.098 139.344,263.896 139.344 C 263.692 139.344,263.606 139.633,263.701 140.000 C 263.796 140.360,263.739 140.738,263.576 140.839 C 263.412 140.940,263.279 141.382,263.279 141.823 C 263.279 142.263,263.131 142.623,262.951 142.623 C 262.770 142.623,262.623 142.983,262.623 143.423 C 262.623 143.863,262.475 144.315,262.295 144.426 C 262.115 144.538,261.967 144.980,261.967 145.410 C 261.967 145.839,261.828 146.277,261.658 146.382 C 261.488 146.487,261.250 147.235,261.129 148.044 C 261.007 148.854,260.777 149.597,260.618 149.696 C 260.458 149.794,260.328 150.300,260.328 150.820 C 260.328 151.339,260.180 151.856,260.000 151.967 C 259.820 152.079,259.672 152.530,259.672 152.970 C 259.672 153.410,259.525 153.770,259.344 153.770 C 259.164 153.770,259.016 154.131,259.016 154.571 C 259.016 155.011,258.866 155.464,258.683 155.577 C 258.500 155.690,258.444 155.934,258.558 156.119 C 258.746 156.423,258.524 157.080,257.667 158.766 C 257.507 159.079,257.377 159.561,257.377 159.836 C 257.377 160.316,257.255 160.630,256.472 162.165 C 256.278 162.544,256.017 163.540,255.892 164.378 C 255.766 165.216,255.532 165.902,255.373 165.902 C 255.213 165.902,255.082 166.409,255.082 167.030 C 255.082 167.650,254.934 168.249,254.754 168.361 C 254.574 168.472,254.426 168.923,254.426 169.364 C 254.426 169.804,254.295 170.164,254.136 170.164 C 253.976 170.164,253.746 170.824,253.625 171.632 C 253.504 172.439,253.266 173.185,253.096 173.290 C 252.926 173.395,252.787 173.833,252.787 174.262 C 252.787 174.692,252.639 175.134,252.459 175.246 C 252.279 175.357,252.131 175.809,252.131 176.249 C 252.131 176.689,251.984 177.049,251.803 177.049 C 251.623 177.049,251.475 177.409,251.475 177.850 C 251.475 178.290,251.345 178.730,251.185 178.829 C 251.026 178.928,250.796 179.671,250.675 180.480 C 250.553 181.290,250.315 182.038,250.145 182.143 C 249.975 182.248,249.836 182.841,249.836 183.462 C 249.836 184.082,249.689 184.590,249.508 184.590 C 249.328 184.590,249.180 184.950,249.180 185.390 C 249.180 185.831,249.050 186.271,248.890 186.370 C 248.731 186.469,248.501 187.212,248.380 188.021 C 248.258 188.831,248.020 189.579,247.850 189.684 C 247.680 189.789,247.541 190.226,247.541 190.656 C 247.541 191.085,247.393 191.528,247.213 191.639 C 247.033 191.751,246.885 192.202,246.885 192.642 C 246.885 193.082,246.752 193.443,246.588 193.443 C 246.425 193.443,246.190 194.180,246.066 195.082 C 245.942 195.984,245.706 196.721,245.543 196.721 C 245.380 196.721,245.246 197.229,245.246 197.850 C 245.246 198.470,245.098 199.069,244.918 199.180 C 244.738 199.292,244.590 199.743,244.590 200.183 C 244.590 200.623,244.443 200.984,244.262 200.984 C 244.082 200.984,243.934 201.344,243.934 201.784 C 243.934 202.224,243.804 202.665,243.644 202.764 C 243.485 202.862,243.255 203.605,243.134 204.415 C 243.012 205.224,242.774 205.972,242.604 206.077 C 242.434 206.182,242.295 206.628,242.295 207.069 C 242.295 207.509,242.148 207.869,241.967 207.869 C 241.787 207.869,241.639 208.166,241.639 208.529 C 241.639 208.892,241.501 209.445,241.331 209.759 C 241.067 210.247,240.604 211.817,240.519 212.514 C 240.504 212.634,240.381 212.843,240.246 212.978 C 240.111 213.113,240.000 213.716,240.000 214.317 C 240.000 214.918,239.852 215.410,239.672 215.410 C 239.492 215.410,239.344 215.770,239.344 216.210 C 239.344 216.650,239.197 217.102,239.016 217.213 C 238.836 217.325,238.689 217.767,238.689 218.197 C 238.689 218.626,238.550 219.064,238.380 219.169 C 238.210 219.274,237.971 220.022,237.850 220.831 C 237.729 221.641,237.499 222.384,237.339 222.482 C 237.180 222.581,237.049 223.022,237.049 223.462 C 237.049 223.902,236.902 224.262,236.721 224.262 C 236.541 224.262,236.393 224.622,236.393 225.063 C 236.393 225.503,236.254 225.949,236.085 226.054 C 235.915 226.159,235.676 226.907,235.555 227.717 C 235.433 228.526,235.204 229.269,235.044 229.368 C 234.885 229.466,234.754 229.972,234.754 230.492 C 234.754 231.012,234.607 231.528,234.426 231.639 C 234.246 231.751,234.098 232.130,234.098 232.483 C 234.098 232.835,233.951 233.417,233.770 233.775 C 233.590 234.133,233.295 234.719,233.115 235.078 C 232.934 235.436,232.787 236.026,232.787 236.389 C 232.787 237.017,232.578 237.049,228.525 237.049 C 224.471 237.049,224.262 237.017,224.262 236.389 C 224.262 235.801,223.721 234.541,223.279 234.098 C 222.876 233.696,222.295 232.420,222.295 231.939 C 222.295 231.648,222.056 230.872,221.764 230.213 C 221.472 229.555,220.902 228.279,220.498 227.377 C 220.094 226.475,219.572 225.221,219.337 224.590 C 219.103 223.959,218.787 223.302,218.636 223.131 C 218.485 222.960,218.361 222.480,218.361 222.066 C 218.361 221.651,218.248 221.311,218.110 221.311 C 217.822 221.311,216.721 218.894,216.721 218.260 C 216.721 217.658,215.950 216.071,215.656 216.068 C 215.520 216.067,215.410 215.768,215.410 215.405 C 215.410 215.042,215.269 214.489,215.098 214.176 C 214.926 213.863,214.544 213.016,214.247 212.295 C 213.951 211.574,213.428 210.416,213.084 209.723 C 212.740 209.030,212.459 208.247,212.459 207.983 C 212.459 207.719,212.090 206.843,211.639 206.035 C 211.189 205.228,210.820 204.277,210.820 203.923 C 210.820 203.569,210.709 203.278,210.574 203.276 C 210.280 203.273,209.508 201.686,209.508 201.084 C 209.508 200.451,208.408 198.033,208.119 198.033 C 207.982 198.033,207.869 197.693,207.869 197.279 C 207.869 196.864,207.746 196.384,207.595 196.213 C 207.445 196.042,207.051 195.164,206.720 194.262 C 206.390 193.361,205.849 192.139,205.519 191.547 C 205.188 190.956,204.918 190.181,204.918 189.826 C 204.918 189.471,204.782 189.180,204.616 189.180 C 204.450 189.180,204.220 188.701,204.105 188.115 C 203.906 187.097,203.301 185.595,202.951 185.246 C 202.514 184.810,201.967 183.547,201.967 182.975 C 201.967 182.622,201.831 182.250,201.665 182.147 C 201.498 182.044,201.262 181.506,201.141 180.952 C 201.019 180.398,200.506 179.158,200.000 178.197 C 199.494 177.236,198.981 175.996,198.859 175.441 C 198.738 174.887,198.502 174.350,198.335 174.247 C 198.169 174.144,198.033 173.700,198.033 173.259 C 198.033 172.819,197.885 172.459,197.705 172.459 C 197.525 172.459,197.377 172.164,197.377 171.803 C 197.377 171.443,197.253 171.148,197.101 171.148 C 196.949 171.148,196.557 170.262,196.230 169.180 C 195.902 168.098,195.510 167.213,195.358 167.213 C 195.206 167.213,195.082 166.943,195.082 166.613 C 195.082 166.283,194.714 165.287,194.264 164.400 C 193.814 163.513,193.445 162.607,193.444 162.387 C 193.443 162.167,193.148 161.462,192.787 160.820 C 192.426 160.178,192.131 159.362,192.131 159.006 C 192.131 158.651,192.018 158.361,191.881 158.361 C 191.539 158.361,190.492 155.888,190.492 155.080 C 190.492 154.720,190.344 154.426,190.164 154.426 C 189.984 154.426,189.836 154.131,189.836 153.770 C 189.836 153.410,189.689 153.115,189.508 153.115 C 189.328 153.115,189.180 152.755,189.180 152.314 C 189.180 151.874,189.044 151.430,188.878 151.327 C 188.711 151.224,188.478 150.699,188.360 150.160 C 188.241 149.621,188.009 149.180,187.843 149.180 C 187.677 149.180,187.541 148.899,187.541 148.556 C 187.541 148.212,187.260 147.364,186.916 146.670 C 186.572 145.977,186.049 144.820,185.753 144.098 C 185.456 143.377,185.074 142.531,184.902 142.218 C 184.731 141.904,184.590 141.351,184.590 140.988 C 184.590 140.625,184.479 140.328,184.342 140.328 C 184.030 140.328,183.402 138.856,183.116 137.459 C 182.997 136.873,182.763 136.393,182.597 136.393 C 182.431 136.393,182.295 136.123,182.295 135.793 C 182.295 135.463,181.927 134.467,181.477 133.580 C 181.027 132.693,180.658 131.787,180.657 131.567 C 180.656 131.347,180.361 130.642,180.000 130.000 C 179.639 129.358,179.344 128.542,179.344 128.187 C 179.344 127.832,179.232 127.541,179.094 127.541 C 178.805 127.541,177.705 125.123,177.705 124.489 C 177.705 123.888,176.933 122.301,176.639 122.298 C 176.504 122.296,176.393 121.935,176.393 121.495 C 176.393 121.055,176.262 120.613,176.102 120.514 C 175.942 120.415,175.712 119.927,175.592 119.429 C 175.225 117.903,169.798 107.205,168.973 106.380 C 168.546 105.953,168.197 105.449,168.197 105.261 C 168.197 105.072,167.984 104.918,167.724 104.918 C 167.463 104.918,167.040 104.617,166.782 104.250 C 166.262 103.508,162.190 101.311,161.334 101.311 C 161.033 101.311,160.637 101.162,160.455 100.979 C 160.272 100.797,158.467 100.553,156.443 100.437 C 154.419 100.321,152.686 100.102,152.592 99.949 C 152.497 99.797,152.060 99.672,151.620 99.672 C 150.825 99.672,150.820 99.651,150.820 96.392 L 150.820 93.112 185.164 93.195 L 219.508 93.279 219.508 96.721 M68.852 131.539 L 68.852 162.623 76.210 162.623 C 80.762 162.623,83.645 162.498,83.770 162.295 C 83.882 162.115,84.693 161.967,85.574 161.967 C 86.454 161.967,87.266 161.820,87.377 161.639 C 87.488 161.459,87.940 161.311,88.380 161.311 C 88.820 161.311,89.180 161.164,89.180 160.984 C 89.180 160.803,89.540 160.656,89.981 160.656 C 90.421 160.656,90.865 160.520,90.968 160.353 C 91.071 160.187,91.596 159.954,92.135 159.835 C 92.674 159.717,93.115 159.484,93.115 159.318 C 93.115 159.152,93.310 159.016,93.549 159.016 C 93.788 159.016,94.331 158.648,94.754 158.197 C 95.178 157.746,95.687 157.377,95.886 157.377 C 96.343 157.377,100.656 153.052,100.656 152.594 C 100.656 152.407,101.098 151.830,101.639 151.311 C 102.180 150.793,102.623 150.183,102.623 149.955 C 102.623 149.727,102.815 149.423,103.049 149.279 C 103.283 149.134,103.883 148.131,104.381 147.049 C 104.880 145.967,105.426 144.826,105.595 144.513 C 105.764 144.200,105.902 143.581,105.902 143.139 C 105.902 142.696,106.049 142.243,106.230 142.131 C 106.410 142.020,106.557 141.568,106.557 141.128 C 106.557 140.688,106.705 140.328,106.885 140.328 C 107.066 140.328,107.213 139.820,107.213 139.200 C 107.213 138.579,107.361 137.980,107.541 137.869 C 107.740 137.746,107.869 135.352,107.869 131.784 C 107.869 128.081,107.747 125.902,107.541 125.902 C 107.361 125.902,107.213 125.238,107.213 124.426 C 107.213 123.615,107.066 122.951,106.885 122.951 C 106.705 122.951,106.557 122.591,106.557 122.150 C 106.557 121.710,106.410 121.259,106.230 121.148 C 106.049 121.036,105.902 120.593,105.902 120.164 C 105.902 119.734,105.754 119.292,105.574 119.180 C 105.393 119.069,105.246 118.743,105.246 118.456 C 105.246 117.768,103.677 114.530,102.723 113.248 C 102.307 112.690,101.967 112.097,101.967 111.930 C 101.967 111.475,95.952 105.574,95.488 105.574 C 95.268 105.574,94.903 105.279,94.678 104.918 C 94.453 104.557,94.009 104.262,93.692 104.262 C 93.374 104.262,93.115 104.151,93.115 104.014 C 93.115 103.643,91.493 103.006,89.918 102.758 C 89.152 102.638,88.525 102.410,88.525 102.253 C 88.525 102.096,88.017 101.967,87.396 101.967 C 86.776 101.967,86.177 101.820,86.066 101.639 C 85.954 101.459,85.146 101.311,84.270 101.311 C 83.394 101.311,82.628 101.182,82.568 101.023 C 82.508 100.864,79.398 100.671,75.656 100.595 L 68.852 100.455 68.852 131.539 " stroke="none" fill="#fcfcfc" fill-rule="evenodd"></path><path id="path1" d="M20.984 96.313 C 20.984 100.189,20.945 100.158,26.311 100.455 C 28.249 100.562,30.093 100.786,30.409 100.952 C 30.725 101.118,31.795 101.642,32.787 102.116 C 35.607 103.463,38.361 105.590,38.361 106.422 C 38.361 106.633,38.579 106.986,38.846 107.207 C 39.549 107.791,40.233 109.290,40.490 110.807 C 40.612 111.533,40.847 112.211,41.012 112.313 C 41.177 112.414,41.311 113.070,41.311 113.770 C 41.311 114.471,41.459 115.134,41.639 115.246 C 42.093 115.526,42.093 214.638,41.639 214.918 C 41.459 215.029,41.311 215.841,41.311 216.721 C 41.311 217.602,41.164 218.413,40.984 218.525 C 40.803 218.636,40.655 218.977,40.654 219.282 C 40.653 219.587,40.431 220.259,40.162 220.775 C 39.893 221.292,39.672 221.965,39.672 222.271 C 39.672 222.578,39.235 223.247,38.700 223.759 C 38.166 224.271,37.792 224.793,37.869 224.919 C 38.027 225.173,36.544 226.557,36.114 226.557 C 35.963 226.557,35.572 226.853,35.245 227.214 C 34.918 227.576,33.825 228.253,32.817 228.718 C 31.809 229.184,30.713 229.709,30.382 229.884 C 30.052 230.060,28.239 230.291,26.354 230.398 C 24.470 230.505,22.850 230.717,22.756 230.870 C 22.662 231.023,22.224 231.148,21.784 231.148 C 20.995 231.148,20.984 231.188,20.984 234.098 L 20.984 237.049 55.902 237.049 L 90.820 237.049 90.820 234.098 C 90.820 231.188,90.809 231.148,90.019 231.148 C 89.579 231.148,89.141 231.021,89.045 230.867 C 88.950 230.712,87.232 230.508,85.228 230.413 C 83.221 230.318,81.420 230.076,81.218 229.874 C 81.017 229.673,80.585 229.508,80.258 229.508 C 79.700 229.508,78.397 228.919,78.033 228.501 C 77.943 228.397,77.648 228.207,77.377 228.078 C 75.559 227.210,73.443 225.428,73.443 224.765 C 73.443 224.568,73.148 224.194,72.787 223.934 C 72.426 223.674,72.131 223.310,72.130 223.124 C 72.129 222.939,71.760 222.061,71.310 221.174 C 70.860 220.287,70.492 219.291,70.492 218.961 C 70.492 218.631,70.344 218.361,70.164 218.361 C 69.984 218.361,69.836 217.652,69.836 216.787 C 69.836 215.921,69.674 215.051,69.476 214.853 C 69.224 214.601,69.060 207.602,68.933 191.672 L 68.752 168.852 70.094 168.852 C 70.833 168.852,71.528 169.000,71.639 169.180 C 71.751 169.361,73.079 169.508,74.590 169.508 C 76.102 169.508,77.430 169.656,77.541 169.836 C 77.652 170.016,78.100 170.164,78.535 170.164 C 79.369 170.164,83.037 171.757,83.224 172.200 C 83.284 172.342,83.509 172.459,83.724 172.459 C 84.211 172.459,89.180 177.425,89.180 177.912 C 89.180 178.108,89.549 178.546,90.000 178.884 C 90.451 179.223,90.820 179.663,90.820 179.863 C 90.820 180.063,91.126 180.504,91.501 180.843 C 91.876 181.182,92.458 182.066,92.796 182.807 C 93.134 183.548,93.639 184.345,93.918 184.577 C 94.198 184.809,94.426 185.202,94.426 185.450 C 94.426 185.698,94.565 185.902,94.735 185.902 C 94.905 185.902,95.716 187.292,96.537 188.992 C 97.358 190.691,98.221 192.277,98.454 192.516 C 98.687 192.755,99.140 193.541,99.461 194.262 C 100.416 196.408,100.808 197.204,100.999 197.377 C 101.097 197.467,101.589 198.426,102.092 199.508 C 102.594 200.590,103.177 201.844,103.387 202.295 C 103.597 202.746,103.851 203.189,103.951 203.279 C 104.117 203.429,104.901 205.108,105.557 206.721 C 105.704 207.082,106.653 209.075,107.666 211.150 C 108.679 213.225,109.508 215.077,109.508 215.265 C 109.508 215.775,110.295 217.372,110.548 217.374 C 110.669 217.376,110.862 217.857,110.977 218.443 C 111.183 219.494,111.795 220.993,112.148 221.311 C 112.500 221.630,113.443 223.876,113.443 224.398 C 113.443 224.880,114.024 226.156,114.427 226.557 C 114.744 226.874,115.361 228.370,115.574 229.341 C 115.693 229.880,115.896 230.397,116.025 230.489 C 116.334 230.708,118.033 234.233,118.033 234.654 C 118.033 234.834,118.266 235.448,118.550 236.018 L 119.067 237.055 137.812 236.970 L 156.557 236.885 156.653 234.175 C 156.736 231.810,156.673 231.441,156.161 231.277 C 155.838 231.173,155.279 230.966,154.918 230.816 C 154.557 230.666,153.342 230.461,152.217 230.359 C 150.156 230.173,149.110 229.775,148.200 228.830 C 147.928 228.547,147.443 228.218,147.124 228.099 C 146.804 227.981,146.446 227.631,146.327 227.323 C 146.209 227.014,145.474 226.151,144.695 225.404 C 143.916 224.658,143.279 223.897,143.279 223.714 C 143.279 223.530,142.992 223.121,142.642 222.804 C 142.291 222.487,141.914 221.815,141.803 221.311 C 141.693 220.808,141.315 220.136,140.965 219.819 C 140.615 219.502,140.328 219.044,140.328 218.802 C 140.328 218.559,140.215 218.361,140.078 218.361 C 139.940 218.361,139.682 218.075,139.504 217.726 C 139.326 217.377,138.322 215.395,137.273 213.322 C 136.225 211.249,135.170 209.389,134.929 209.189 C 134.688 208.989,134.391 208.427,134.268 207.941 C 134.146 207.454,133.942 206.981,133.815 206.889 C 133.482 206.648,128.852 197.247,128.852 196.812 C 128.852 196.612,128.741 196.399,128.606 196.339 C 128.296 196.202,122.286 184.223,122.291 183.754 C 122.297 183.221,121.505 181.645,121.230 181.642 C 121.094 181.640,120.984 181.470,120.984 181.262 C 120.984 180.841,119.326 177.305,119.008 177.049 C 118.756 176.846,118.243 175.645,118.293 175.374 C 118.313 175.265,117.894 174.758,117.362 174.247 C 116.829 173.737,116.393 173.152,116.393 172.947 C 116.393 172.741,116.025 172.227,115.574 171.803 C 115.123 171.380,114.754 170.867,114.754 170.663 C 114.754 170.247,112.889 168.408,112.131 168.077 C 111.861 167.958,111.197 167.579,110.656 167.233 C 110.115 166.888,109.275 166.595,108.790 166.581 C 108.305 166.568,107.816 166.410,107.705 166.230 C 107.593 166.049,107.031 165.884,106.456 165.863 L 105.410 165.824 106.393 165.587 C 106.934 165.456,107.765 165.415,108.239 165.495 C 108.713 165.575,109.201 165.477,109.324 165.279 C 109.447 165.080,110.120 164.918,110.820 164.918 C 111.520 164.918,112.184 164.770,112.295 164.590 C 112.407 164.410,112.786 164.262,113.139 164.262 C 113.491 164.262,114.036 164.127,114.349 163.962 C 114.662 163.797,115.508 163.418,116.230 163.120 C 117.951 162.409,119.141 161.844,119.344 161.640 C 119.613 161.371,120.772 160.675,121.475 160.362 C 121.836 160.201,122.489 159.685,122.926 159.215 C 123.363 158.745,123.882 158.361,124.080 158.361 C 124.667 158.361,130.346 152.392,130.943 151.148 C 131.682 149.607,132.194 148.797,132.804 148.201 C 133.492 147.529,134.426 145.469,134.426 144.623 C 134.426 144.244,134.574 143.934,134.754 143.934 C 134.934 143.934,135.082 143.574,135.082 143.134 C 135.082 142.694,135.230 142.243,135.410 142.131 C 135.590 142.020,135.738 141.598,135.738 141.194 C 135.738 140.790,135.922 140.275,136.148 140.049 C 136.455 139.742,136.557 137.471,136.557 130.984 C 136.557 124.496,136.455 122.225,136.148 121.918 C 135.922 121.693,135.738 121.173,135.738 120.764 C 135.738 120.355,135.443 119.495,135.082 118.852 C 134.721 118.210,134.426 117.517,134.426 117.311 C 134.426 116.713,132.480 112.885,131.954 112.448 C 131.691 112.230,131.475 111.873,131.475 111.656 C 131.475 111.439,131.107 110.915,130.656 110.492 C 130.205 110.068,129.836 109.603,129.836 109.457 C 129.836 108.980,123.730 103.034,123.004 102.804 C 122.614 102.680,122.295 102.441,122.295 102.273 C 122.295 102.105,122.097 101.967,121.854 101.967 C 121.612 101.967,121.146 101.672,120.820 101.311 C 120.493 100.951,120.087 100.656,119.917 100.656 C 119.541 100.656,117.278 99.621,117.049 99.344 C 116.681 98.899,114.222 97.906,113.689 97.987 C 113.373 98.035,113.115 97.917,113.115 97.726 C 113.115 97.534,112.755 97.377,112.314 97.377 C 111.874 97.377,111.423 97.230,111.311 97.049 C 111.200 96.869,110.749 96.721,110.309 96.721 C 109.868 96.721,109.508 96.574,109.508 96.393 C 109.508 96.213,108.874 96.066,108.098 96.066 C 107.323 96.066,106.546 95.923,106.373 95.750 C 106.199 95.576,104.620 95.333,102.865 95.210 C 101.109 95.086,99.672 94.859,99.672 94.706 C 99.672 94.552,98.501 94.426,97.069 94.426 C 95.637 94.426,94.374 94.279,94.262 94.098 C 94.134 93.890,90.051 93.770,83.095 93.770 C 76.004 93.770,72.131 93.655,72.131 93.443 C 72.131 93.227,63.388 93.115,46.557 93.115 L 20.984 93.115 20.984 96.313 M150.820 96.392 C 150.820 99.651,150.825 99.672,151.620 99.672 C 152.060 99.672,152.497 99.797,152.592 99.949 C 152.686 100.102,154.419 100.321,156.443 100.437 C 158.467 100.553,160.272 100.797,160.455 100.979 C 160.637 101.162,161.033 101.311,161.334 101.311 C 162.190 101.311,166.262 103.508,166.782 104.250 C 167.040 104.617,167.463 104.918,167.724 104.918 C 167.984 104.918,168.197 105.072,168.197 105.261 C 168.197 105.449,168.546 105.953,168.973 106.380 C 169.798 107.205,175.225 117.903,175.592 119.429 C 175.712 119.927,175.942 120.415,176.102 120.514 C 176.262 120.613,176.393 121.055,176.393 121.495 C 176.393 121.935,176.504 122.296,176.639 122.298 C 176.933 122.301,177.705 123.888,177.705 124.489 C 177.705 125.123,178.805 127.541,179.094 127.541 C 179.232 127.541,179.344 127.832,179.344 128.187 C 179.344 128.542,179.639 129.358,180.000 130.000 C 180.361 130.642,180.656 131.347,180.657 131.567 C 180.658 131.787,181.027 132.693,181.477 133.580 C 181.927 134.467,182.295 135.463,182.295 135.793 C 182.295 136.123,182.431 136.393,182.597 136.393 C 182.763 136.393,182.997 136.873,183.116 137.459 C 183.402 138.856,184.030 140.328,184.342 140.328 C 184.479 140.328,184.590 140.625,184.590 140.988 C 184.590 141.351,184.731 141.904,184.902 142.218 C 185.074 142.531,185.456 143.377,185.753 144.098 C 186.049 144.820,186.572 145.977,186.916 146.670 C 187.260 147.364,187.541 148.212,187.541 148.556 C 187.541 148.899,187.677 149.180,187.843 149.180 C 188.009 149.180,188.241 149.621,188.360 150.160 C 188.478 150.699,188.711 151.224,188.878 151.327 C 189.044 151.430,189.180 151.874,189.180 152.314 C 189.180 152.755,189.328 153.115,189.508 153.115 C 189.689 153.115,189.836 153.410,189.836 153.770 C 189.836 154.131,189.984 154.426,190.164 154.426 C 190.344 154.426,190.492 154.720,190.492 155.080 C 190.492 155.888,191.539 158.361,191.881 158.361 C 192.018 158.361,192.131 158.651,192.131 159.006 C 192.131 159.362,192.426 160.178,192.787 160.820 C 193.148 161.462,193.443 162.167,193.444 162.387 C 193.445 162.607,193.814 163.513,194.264 164.400 C 194.714 165.287,195.082 166.283,195.082 166.613 C 195.082 166.943,195.206 167.213,195.358 167.213 C 195.510 167.213,195.902 168.098,196.230 169.180 C 196.557 170.262,196.949 171.148,197.101 171.148 C 197.253 171.148,197.377 171.443,197.377 171.803 C 197.377 172.164,197.525 172.459,197.705 172.459 C 197.885 172.459,198.033 172.819,198.033 173.259 C 198.033 173.700,198.169 174.144,198.335 174.247 C 198.502 174.350,198.738 174.887,198.859 175.441 C 198.981 175.996,199.494 177.236,200.000 178.197 C 200.506 179.158,201.019 180.398,201.141 180.952 C 201.262 181.506,201.498 182.044,201.665 182.147 C 201.831 182.250,201.967 182.622,201.967 182.975 C 201.967 183.547,202.514 184.810,202.951 185.246 C 203.301 185.595,203.906 187.097,204.105 188.115 C 204.220 188.701,204.450 189.180,204.616 189.180 C 204.782 189.180,204.918 189.471,204.918 189.826 C 204.918 190.181,205.188 190.956,205.519 191.547 C 205.849 192.139,206.390 193.361,206.720 194.262 C 207.051 195.164,207.445 196.042,207.595 196.213 C 207.746 196.384,207.869 196.864,207.869 197.279 C 207.869 197.693,207.982 198.033,208.119 198.033 C 208.408 198.033,209.508 200.451,209.508 201.084 C 209.508 201.686,210.280 203.273,210.574 203.276 C 210.709 203.278,210.820 203.569,210.820 203.923 C 210.820 204.277,211.189 205.228,211.639 206.035 C 212.090 206.843,212.459 207.719,212.459 207.983 C 212.459 208.247,212.740 209.030,213.084 209.723 C 213.428 210.416,213.951 211.574,214.247 212.295 C 214.544 213.016,214.926 213.863,215.098 214.176 C 215.269 214.489,215.410 215.042,215.410 215.405 C 215.410 215.768,215.520 216.067,215.656 216.068 C 215.950 216.071,216.721 217.658,216.721 218.260 C 216.721 218.894,217.822 221.311,218.110 221.311 C 218.248 221.311,218.361 221.651,218.361 222.066 C 218.361 222.480,218.485 222.960,218.636 223.131 C 218.787 223.302,219.103 223.959,219.337 224.590 C 219.572 225.221,220.094 226.475,220.498 227.377 C 220.902 228.279,221.472 229.555,221.764 230.213 C 222.056 230.872,222.295 231.648,222.295 231.939 C 222.295 232.420,222.876 233.696,223.279 234.098 C 223.721 234.541,224.262 235.801,224.262 236.389 C 224.262 237.017,224.471 237.049,228.525 237.049 C 232.578 237.049,232.787 237.017,232.787 236.389 C 232.787 236.026,232.934 235.436,233.115 235.078 C 233.295 234.719,233.590 234.133,233.770 233.775 C 233.951 233.417,234.098 232.835,234.098 232.483 C 234.098 232.130,234.246 231.751,234.426 231.639 C 234.607 231.528,234.754 231.012,234.754 230.492 C 234.754 229.972,234.885 229.466,235.044 229.368 C 235.204 229.269,235.433 228.526,235.555 227.717 C 235.676 226.907,235.915 226.159,236.085 226.054 C 236.254 225.949,236.393 225.503,236.393 225.063 C 236.393 224.622,236.541 224.262,236.721 224.262 C 236.902 224.262,237.049 223.902,237.049 223.462 C 237.049 223.022,237.180 222.581,237.339 222.482 C 237.499 222.384,237.729 221.641,237.850 220.831 C 237.971 220.022,238.210 219.274,238.380 219.169 C 238.550 219.064,238.689 218.626,238.689 218.197 C 238.689 217.767,238.836 217.325,239.016 217.213 C 239.197 217.102,239.344 216.650,239.344 216.210 C 239.344 215.770,239.492 215.410,239.672 215.410 C 239.852 215.410,240.000 214.918,240.000 214.317 C 240.000 213.716,240.111 213.113,240.246 212.978 C 240.381 212.843,240.504 212.634,240.519 212.514 C 240.604 211.817,241.067 210.247,241.331 209.759 C 241.501 209.445,241.639 208.892,241.639 208.529 C 241.639 208.166,241.787 207.869,241.967 207.869 C 242.148 207.869,242.295 207.509,242.295 207.069 C 242.295 206.628,242.434 206.182,242.604 206.077 C 242.774 205.972,243.012 205.224,243.134 204.415 C 243.255 203.605,243.485 202.862,243.644 202.764 C 243.804 202.665,243.934 202.224,243.934 201.784 C 243.934 201.344,244.082 200.984,244.262 200.984 C 244.443 200.984,244.590 200.623,244.590 200.183 C 244.590 199.743,244.738 199.292,244.918 199.180 C 245.098 199.069,245.246 198.470,245.246 197.850 C 245.246 197.229,245.380 196.721,245.543 196.721 C 245.706 196.721,245.942 195.984,246.066 195.082 C 246.190 194.180,246.425 193.443,246.588 193.443 C 246.752 193.443,246.885 193.082,246.885 192.642 C 246.885 192.202,247.033 191.751,247.213 191.639 C 247.393 191.528,247.541 191.085,247.541 190.656 C 247.541 190.226,247.680 189.789,247.850 189.684 C 248.020 189.579,248.258 188.831,248.380 188.021 C 248.501 187.212,248.731 186.469,248.890 186.370 C 249.050 186.271,249.180 185.831,249.180 185.390 C 249.180 184.950,249.328 184.590,249.508 184.590 C 249.689 184.590,249.836 184.082,249.836 183.462 C 249.836 182.841,249.975 182.248,250.145 182.143 C 250.315 182.038,250.553 181.290,250.675 180.480 C 250.796 179.671,251.026 178.928,251.185 178.829 C 251.345 178.730,251.475 178.290,251.475 177.850 C 251.475 177.409,251.623 177.049,251.803 177.049 C 251.984 177.049,252.131 176.689,252.131 176.249 C 252.131 175.809,252.279 175.357,252.459 175.246 C 252.639 175.134,252.787 174.692,252.787 174.262 C 252.787 173.833,252.926 173.395,253.096 173.290 C 253.266 173.185,253.504 172.439,253.625 171.632 C 253.746 170.824,253.976 170.164,254.136 170.164 C 254.295 170.164,254.426 169.804,254.426 169.364 C 254.426 168.923,254.574 168.472,254.754 168.361 C 254.934 168.249,255.082 167.650,255.082 167.030 C 255.082 166.409,255.213 165.902,255.373 165.902 C 255.532 165.902,255.766 165.216,255.892 164.378 C 256.017 163.540,256.278 162.544,256.472 162.165 C 257.255 160.630,257.377 160.316,257.377 159.836 C 257.377 159.561,257.507 159.079,257.667 158.766 C 258.524 157.080,258.746 156.423,258.558 156.119 C 258.444 155.934,258.500 155.690,258.683 155.577 C 258.866 155.464,259.016 155.011,259.016 154.571 C 259.016 154.131,259.164 153.770,259.344 153.770 C 259.525 153.770,259.672 153.410,259.672 152.970 C 259.672 152.530,259.820 152.079,260.000 151.967 C 260.180 151.856,260.328 151.339,260.328 150.820 C 260.328 150.300,260.458 149.794,260.618 149.696 C 260.777 149.597,261.007 148.854,261.129 148.044 C 261.250 147.235,261.488 146.487,261.658 146.382 C 261.828 146.277,261.967 145.839,261.967 145.410 C 261.967 144.980,262.115 144.538,262.295 144.426 C 262.475 144.315,262.623 143.863,262.623 143.423 C 262.623 142.983,262.770 142.623,262.951 142.623 C 263.131 142.623,263.279 142.263,263.279 141.823 C 263.279 141.382,263.412 140.940,263.576 140.839 C 263.739 140.738,263.796 140.360,263.701 140.000 C 263.606 139.633,263.692 139.344,263.896 139.344 C 264.098 139.344,264.262 138.984,264.262 138.544 C 264.262 138.104,264.410 137.652,264.590 137.541 C 264.770 137.430,264.918 136.978,264.918 136.538 C 264.918 136.098,265.066 135.738,265.246 135.738 C 265.426 135.738,265.574 135.230,265.574 134.610 C 265.574 133.989,265.713 133.395,265.883 133.290 C 266.053 133.185,266.291 132.437,266.412 131.628 C 266.534 130.818,266.764 130.075,266.923 129.977 C 267.083 129.878,267.213 129.437,267.213 128.997 C 267.213 128.557,267.361 128.197,267.541 128.197 C 267.721 128.197,267.869 128.713,267.869 129.344 C 267.869 129.975,268.000 130.492,268.160 130.492 C 268.319 130.492,268.544 130.971,268.660 131.557 C 269.083 133.707,269.314 134.465,269.860 135.487 C 270.027 135.800,270.164 136.282,270.164 136.557 C 270.164 136.833,270.311 137.351,270.492 137.709 C 270.672 138.068,270.955 138.634,271.120 138.968 C 271.286 139.302,271.524 140.261,271.649 141.099 C 271.775 141.937,272.009 142.623,272.168 142.623 C 272.328 142.623,272.459 142.983,272.459 143.423 C 272.459 143.863,272.607 144.315,272.787 144.426 C 272.967 144.538,273.115 144.991,273.115 145.434 C 273.115 145.876,273.253 146.495,273.423 146.808 C 273.687 147.296,274.150 148.867,274.236 149.563 C 274.250 149.683,274.373 149.892,274.508 150.027 C 274.643 150.163,274.754 150.609,274.754 151.019 C 274.754 151.429,274.902 151.856,275.082 151.967 C 275.262 152.079,275.410 152.530,275.410 152.970 C 275.410 153.410,275.557 153.770,275.738 153.770 C 275.918 153.770,276.066 154.131,276.066 154.571 C 276.066 155.011,276.196 155.452,276.356 155.550 C 276.515 155.649,276.745 156.392,276.866 157.201 C 276.988 158.011,277.226 158.759,277.396 158.864 C 277.566 158.969,277.705 159.563,277.705 160.183 C 277.705 160.804,277.852 161.311,278.033 161.311 C 278.213 161.311,278.361 161.672,278.361 162.112 C 278.361 162.552,278.491 162.993,278.651 163.091 C 278.810 163.190,279.040 163.933,279.161 164.742 C 279.283 165.552,279.521 166.300,279.691 166.405 C 279.861 166.510,280.000 166.884,280.000 167.237 C 280.000 167.589,280.148 168.171,280.328 168.529 C 280.508 168.887,280.803 169.473,280.984 169.832 C 281.164 170.190,281.311 170.771,281.311 171.124 C 281.311 171.476,281.450 171.850,281.620 171.956 C 281.790 172.061,282.029 172.809,282.150 173.618 C 282.271 174.428,282.501 175.171,282.661 175.269 C 282.820 175.368,282.951 175.874,282.951 176.393 C 282.951 176.913,283.098 177.430,283.279 177.541 C 283.459 177.652,283.607 178.095,283.607 178.525 C 283.607 178.954,283.737 179.386,283.897 179.485 C 284.056 179.583,284.286 180.326,284.407 181.136 C 284.529 181.945,284.767 182.694,284.937 182.799 C 285.107 182.904,285.246 183.350,285.246 183.790 C 285.246 184.230,285.393 184.590,285.574 184.590 C 285.754 184.590,285.902 184.950,285.902 185.390 C 285.902 185.831,286.049 186.282,286.230 186.393 C 286.410 186.505,286.557 186.948,286.557 187.377 C 286.557 187.807,286.696 188.244,286.866 188.349 C 287.036 188.454,287.275 189.202,287.396 190.012 C 287.517 190.821,287.747 191.564,287.907 191.663 C 288.066 191.761,288.197 192.267,288.197 192.787 C 288.197 193.307,288.344 193.823,288.525 193.934 C 288.705 194.046,288.852 194.488,288.852 194.918 C 288.852 195.348,288.987 195.782,289.152 195.884 C 289.316 195.986,289.556 196.690,289.684 197.448 C 289.914 198.811,290.027 199.135,290.768 200.569 C 290.977 200.973,291.148 201.591,291.148 201.943 C 291.148 202.296,291.287 202.670,291.456 202.775 C 291.626 202.880,291.865 203.628,291.986 204.438 C 292.107 205.247,292.337 205.990,292.497 206.089 C 292.656 206.188,292.787 206.628,292.787 207.069 C 292.787 207.509,292.934 207.869,293.115 207.869 C 293.295 207.869,293.443 208.313,293.443 208.857 C 293.443 209.400,293.590 210.138,293.770 210.496 C 293.951 210.854,294.234 211.421,294.399 211.755 C 294.564 212.089,294.802 213.048,294.928 213.886 C 295.054 214.724,295.287 215.410,295.447 215.410 C 295.607 215.410,295.738 215.770,295.738 216.210 C 295.738 216.650,295.885 217.102,296.066 217.213 C 296.246 217.325,296.393 217.776,296.393 218.216 C 296.393 218.656,296.527 219.016,296.691 219.016 C 296.854 219.016,297.089 219.754,297.213 220.655 C 297.337 221.557,297.572 222.377,297.736 222.478 C 297.899 222.579,298.033 223.087,298.033 223.607 C 298.033 224.126,298.180 224.643,298.361 224.754 C 298.541 224.866,298.689 225.317,298.689 225.757 C 298.689 226.197,298.836 226.557,299.016 226.557 C 299.197 226.557,299.344 226.918,299.344 227.358 C 299.344 227.798,299.475 228.239,299.634 228.337 C 299.794 228.436,300.024 229.179,300.145 229.988 C 300.266 230.798,300.505 231.546,300.675 231.651 C 300.845 231.756,300.984 232.130,300.984 232.483 C 300.984 232.835,301.131 233.417,301.311 233.775 C 301.492 234.133,301.787 234.719,301.967 235.078 C 302.148 235.436,302.295 236.030,302.295 236.399 C 302.295 237.043,302.455 237.066,306.291 236.977 L 310.287 236.885 310.579 235.738 C 310.740 235.107,311.007 234.450,311.173 234.279 C 311.339 234.107,311.475 233.731,311.475 233.442 C 311.475 232.800,312.215 231.154,312.506 231.150 C 312.621 231.149,312.981 230.262,313.305 229.180 C 313.629 228.098,314.014 227.213,314.160 227.213 C 314.307 227.213,314.426 226.923,314.426 226.567 C 314.426 226.212,314.721 225.396,315.082 224.754 C 315.443 224.112,315.738 223.407,315.739 223.187 C 315.740 222.967,316.109 222.061,316.559 221.174 C 317.009 220.287,317.382 219.328,317.387 219.043 C 317.393 218.758,317.615 218.238,317.879 217.888 C 318.144 217.538,318.361 216.999,318.361 216.690 C 318.361 216.380,318.638 215.560,318.978 214.867 C 320.362 212.039,320.955 210.602,321.154 209.590 C 321.269 209.004,321.463 208.523,321.583 208.522 C 321.891 208.518,322.623 206.872,322.623 206.183 C 322.623 205.869,322.759 205.528,322.926 205.425 C 323.092 205.323,323.331 204.771,323.457 204.199 C 323.582 203.627,323.962 202.665,324.301 202.061 C 324.641 201.458,324.918 200.673,324.918 200.318 C 324.918 199.963,325.031 199.672,325.169 199.672 C 325.511 199.672,326.557 197.199,326.557 196.391 C 326.557 196.032,326.668 195.737,326.803 195.735 C 327.132 195.732,327.869 194.114,327.869 193.397 C 327.869 193.083,328.005 192.741,328.171 192.639 C 328.338 192.536,328.577 191.984,328.702 191.412 C 328.828 190.840,329.208 189.878,329.547 189.275 C 329.886 188.671,330.164 187.886,330.164 187.531 C 330.164 187.176,330.277 186.885,330.414 186.885 C 330.757 186.885,331.803 184.412,331.803 183.604 C 331.803 183.245,331.914 182.950,332.049 182.948 C 332.378 182.945,333.115 181.327,333.115 180.610 C 333.115 180.296,333.246 179.958,333.406 179.859 C 333.567 179.759,333.793 179.271,333.909 178.774 C 334.025 178.276,334.537 176.984,335.046 175.902 C 336.639 172.517,337.049 171.474,337.049 170.809 C 337.049 170.454,337.197 170.164,337.377 170.164 C 337.557 170.164,337.705 169.869,337.705 169.508 C 337.705 169.148,337.852 168.852,338.033 168.852 C 338.213 168.852,338.361 168.492,338.361 168.052 C 338.361 167.612,338.492 167.171,338.652 167.072 C 338.813 166.973,339.039 166.484,339.155 165.987 C 339.271 165.489,339.788 164.197,340.304 163.115 C 341.816 159.941,342.295 158.783,342.295 158.295 C 342.295 157.666,343.058 156.071,343.361 156.068 C 343.496 156.067,343.607 155.768,343.607 155.405 C 343.607 155.042,343.747 154.489,343.919 154.176 C 344.090 153.863,344.473 153.016,344.769 152.295 C 345.065 151.574,345.589 150.416,345.932 149.723 C 346.276 149.030,346.557 148.181,346.557 147.838 C 346.557 147.494,346.693 147.213,346.859 147.213 C 347.025 147.213,347.259 146.734,347.379 146.148 C 347.664 144.750,348.293 143.279,348.605 143.279 C 348.741 143.279,348.852 142.982,348.852 142.619 C 348.852 142.255,348.993 141.702,349.164 141.389 C 349.336 141.076,349.719 140.230,350.015 139.508 C 350.311 138.787,350.834 137.629,351.178 136.936 C 351.522 136.243,351.803 135.460,351.803 135.196 C 351.803 134.932,352.172 134.056,352.623 133.248 C 353.074 132.441,353.443 131.593,353.443 131.365 C 353.443 130.798,354.211 129.186,354.482 129.183 C 354.603 129.181,354.796 128.701,354.911 128.115 C 355.117 127.063,355.729 125.565,356.082 125.246 C 356.435 124.928,357.377 122.681,357.377 122.159 C 357.377 121.663,357.978 120.364,358.376 120.000 C 358.691 119.712,360.328 116.179,360.328 115.787 C 360.328 115.580,360.475 115.410,360.656 115.410 C 360.836 115.410,360.984 115.115,360.984 114.754 C 360.984 114.393,361.114 114.098,361.273 114.098 C 361.433 114.098,361.656 113.840,361.770 113.525 C 362.039 112.781,362.720 111.631,363.322 110.904 C 363.584 110.587,364.011 109.885,364.269 109.344 C 364.528 108.803,365.342 107.770,366.079 107.049 C 366.815 106.328,367.516 105.476,367.636 105.156 C 367.756 104.837,368.116 104.478,368.435 104.360 C 368.755 104.241,369.316 103.802,369.683 103.383 C 370.049 102.965,370.602 102.623,370.912 102.623 C 371.222 102.623,371.477 102.512,371.478 102.377 C 371.482 101.985,373.162 101.311,374.136 101.311 C 374.626 101.311,375.077 101.165,375.137 100.986 C 375.197 100.806,376.611 100.563,378.279 100.445 C 379.947 100.326,381.311 100.121,381.311 99.989 C 381.311 99.857,381.612 99.670,381.980 99.574 C 382.601 99.411,382.642 99.184,382.554 96.339 L 382.459 93.279 356.300 93.195 L 330.142 93.111 330.235 96.637 L 330.328 100.164 335.342 100.366 C 342.476 100.653,347.237 103.626,346.965 107.623 C 346.944 107.939,347.064 108.197,347.233 108.197 C 347.412 108.197,347.541 110.334,347.541 113.279 C 347.541 116.074,347.415 118.361,347.260 118.361 C 347.106 118.361,346.880 119.427,346.759 120.731 C 346.638 122.034,346.396 123.244,346.220 123.419 C 346.045 123.594,345.902 124.077,345.902 124.492 C 345.902 124.907,345.754 125.246,345.574 125.246 C 345.393 125.246,345.246 125.606,345.246 126.046 C 345.246 126.486,345.098 126.938,344.918 127.049 C 344.738 127.161,344.589 127.649,344.588 128.134 C 344.587 128.619,344.366 129.439,344.096 129.956 C 343.827 130.472,343.607 131.101,343.607 131.353 C 343.607 131.606,343.475 132.068,343.315 132.381 C 342.407 134.151,341.652 136.038,341.456 137.027 C 341.333 137.646,340.956 138.646,340.617 139.250 C 340.277 139.854,340.000 140.638,340.000 140.994 C 340.000 141.349,339.864 141.639,339.698 141.639 C 339.532 141.639,339.302 142.119,339.187 142.705 C 338.944 143.943,338.712 144.558,337.751 146.506 C 337.365 147.290,337.049 148.203,337.049 148.536 C 337.049 148.869,336.902 149.233,336.721 149.344 C 336.541 149.456,336.393 149.796,336.391 150.101 C 336.390 150.406,336.169 151.078,335.900 151.595 C 335.630 152.111,335.410 152.812,335.410 153.152 C 335.410 153.492,335.262 153.770,335.082 153.770 C 334.902 153.770,334.754 154.049,334.754 154.389 C 334.754 154.729,334.534 155.430,334.264 155.946 C 333.995 156.463,333.774 157.135,333.773 157.440 C 333.771 157.745,333.623 158.085,333.443 158.197 C 333.262 158.308,333.115 158.672,333.115 159.005 C 333.115 159.338,332.799 160.251,332.412 161.035 C 331.308 163.274,331.101 163.785,331.162 164.117 C 331.258 164.643,330.759 165.902,330.454 165.902 C 330.294 165.902,330.164 166.262,330.164 166.702 C 330.164 167.142,330.016 167.593,329.836 167.705 C 329.656 167.816,329.504 168.231,329.498 168.626 C 329.492 169.021,329.271 169.631,329.006 169.981 C 328.741 170.331,328.525 170.949,328.525 171.355 C 328.525 171.761,328.377 172.184,328.197 172.295 C 328.016 172.407,327.869 172.858,327.869 173.298 C 327.869 173.738,327.721 174.098,327.541 174.098 C 327.361 174.098,327.213 174.393,327.213 174.754 C 327.213 175.115,327.066 175.410,326.885 175.410 C 326.705 175.410,326.557 175.688,326.557 176.028 C 326.557 176.368,326.337 177.069,326.068 177.585 C 325.798 178.102,325.577 178.774,325.576 179.079 C 325.575 179.384,325.426 179.725,325.246 179.836 C 325.066 179.948,324.918 180.321,324.918 180.665 C 324.918 181.010,324.641 181.786,324.301 182.389 C 323.962 182.993,323.581 183.993,323.454 184.612 C 323.157 186.064,322.532 187.541,322.215 187.541 C 322.079 187.541,321.967 187.901,321.967 188.341 C 321.967 188.781,321.820 189.233,321.639 189.344 C 321.459 189.456,321.311 189.907,321.311 190.347 C 321.311 190.787,321.166 191.148,320.987 191.148 C 320.809 191.148,320.569 191.741,320.453 192.466 C 320.337 193.192,320.114 193.864,319.957 193.961 C 319.800 194.058,319.672 194.497,319.672 194.937 C 319.672 195.378,319.561 195.738,319.424 195.738 C 319.108 195.738,318.483 197.215,318.185 198.666 C 318.058 199.285,317.677 200.286,317.338 200.889 C 316.999 201.493,316.721 202.278,316.721 202.633 C 316.721 202.988,316.500 203.279,316.230 203.279 C 315.955 203.279,315.738 202.987,315.738 202.619 C 315.738 202.255,315.590 201.665,315.410 201.307 C 315.230 200.949,314.934 200.363,314.754 200.004 C 314.574 199.646,314.426 198.909,314.426 198.365 C 314.426 197.822,314.279 197.377,314.098 197.377 C 313.918 197.377,313.770 197.087,313.770 196.733 C 313.770 196.007,312.933 193.249,312.449 192.381 C 312.274 192.068,312.131 191.368,312.131 190.824 C 312.131 190.281,311.984 189.836,311.803 189.836 C 311.623 189.836,311.475 189.476,311.475 189.036 C 311.475 188.596,311.345 188.155,311.185 188.056 C 311.026 187.958,310.796 187.215,310.675 186.405 C 310.553 185.596,310.315 184.847,310.145 184.742 C 309.975 184.637,309.836 184.044,309.836 183.423 C 309.836 182.803,309.689 182.295,309.508 182.295 C 309.328 182.295,309.180 181.935,309.180 181.495 C 309.180 181.055,309.033 180.603,308.852 180.492 C 308.672 180.380,308.525 179.929,308.525 179.489 C 308.525 179.049,308.391 178.689,308.227 178.689 C 308.064 178.689,308.003 178.410,308.092 178.070 C 308.181 177.729,308.093 177.352,307.897 177.231 C 307.701 177.110,307.541 176.503,307.541 175.882 C 307.541 175.262,307.393 174.754,307.213 174.754 C 307.033 174.754,306.885 174.394,306.885 173.954 C 306.885 173.514,306.738 173.062,306.557 172.951 C 306.377 172.839,306.230 172.388,306.230 171.948 C 306.230 171.508,306.093 171.148,305.925 171.148 C 305.758 171.148,305.519 170.334,305.395 169.340 C 305.271 168.346,305.039 167.452,304.880 167.353 C 304.720 167.255,304.590 166.823,304.590 166.393 C 304.590 165.964,304.443 165.521,304.262 165.410 C 304.082 165.298,303.934 164.847,303.934 164.407 C 303.934 163.967,303.798 163.607,303.630 163.607 C 303.463 163.607,303.224 162.793,303.100 161.799 C 302.976 160.805,302.744 159.911,302.585 159.812 C 302.425 159.714,302.295 159.282,302.295 158.852 C 302.295 158.423,302.148 157.980,301.967 157.869 C 301.787 157.757,301.639 157.306,301.639 156.866 C 301.639 156.426,301.492 156.066,301.311 156.066 C 301.131 156.066,300.984 155.705,300.984 155.265 C 300.984 154.825,300.853 154.384,300.694 154.286 C 300.535 154.188,300.303 153.296,300.179 152.305 C 300.055 151.313,299.817 150.417,299.649 150.314 C 299.481 150.210,299.344 149.765,299.344 149.325 C 299.344 148.885,299.197 148.525,299.016 148.525 C 298.836 148.525,298.689 148.164,298.689 147.724 C 298.689 147.284,298.558 146.843,298.399 146.745 C 298.240 146.647,298.008 145.755,297.884 144.764 C 297.760 143.772,297.522 142.876,297.354 142.773 C 297.186 142.669,297.049 142.224,297.049 141.784 C 297.049 141.344,296.902 140.984,296.721 140.984 C 296.541 140.984,296.393 140.623,296.393 140.183 C 296.393 139.743,296.246 139.292,296.066 139.180 C 295.885 139.069,295.738 138.552,295.738 138.033 C 295.738 137.513,295.607 137.007,295.448 136.909 C 295.288 136.810,295.058 136.067,294.937 135.258 C 294.816 134.448,294.577 133.700,294.407 133.595 C 294.237 133.490,294.098 133.052,294.098 132.623 C 294.098 132.193,293.951 131.751,293.770 131.639 C 293.590 131.528,293.443 131.075,293.443 130.632 C 293.443 130.189,293.315 129.571,293.159 129.258 C 292.593 128.123,292.174 126.500,292.337 126.075 C 292.429 125.836,292.346 125.543,292.153 125.424 C 291.961 125.305,291.803 124.700,291.803 124.079 C 291.803 123.459,291.656 122.951,291.475 122.951 C 291.295 122.951,291.148 122.287,291.148 121.475 C 291.148 120.664,291.000 120.000,290.820 120.000 C 290.639 120.000,290.492 119.345,290.492 118.544 C 290.492 117.743,290.344 116.997,290.164 116.885 C 289.976 116.769,289.836 115.085,289.836 112.951 C 289.836 110.817,289.976 109.132,290.164 109.016 C 290.344 108.905,290.492 108.454,290.492 108.013 C 290.492 107.573,290.639 107.213,290.820 107.213 C 291.000 107.213,291.148 106.934,291.148 106.592 C 291.148 106.251,291.369 105.887,291.639 105.783 C 291.910 105.679,292.131 105.399,292.131 105.161 C 292.131 104.569,294.691 102.196,295.902 101.666 C 296.443 101.429,297.180 101.071,297.541 100.871 C 297.919 100.662,300.769 100.435,304.262 100.336 L 310.328 100.164 310.328 96.721 L 310.328 93.279 275.164 93.195 L 240.000 93.112 240.000 96.673 L 240.000 100.235 245.164 100.417 C 249.985 100.586,252.121 100.986,252.129 101.721 C 252.130 101.857,252.330 101.967,252.572 101.967 C 252.815 101.967,253.294 102.279,253.638 102.661 C 253.981 103.042,254.598 103.482,255.008 103.639 C 255.419 103.796,255.846 104.185,255.958 104.503 C 256.070 104.822,256.507 105.457,256.929 105.915 C 257.881 106.949,259.672 110.404,259.672 111.208 C 259.672 111.535,259.820 111.803,260.000 111.803 C 260.180 111.803,260.328 112.311,260.328 112.931 C 260.328 113.552,260.475 114.151,260.656 114.262 C 260.850 114.382,260.984 116.390,260.984 119.180 C 260.984 121.970,260.850 123.978,260.656 124.098 C 260.475 124.210,260.328 124.874,260.328 125.574 C 260.328 126.274,260.180 126.938,260.000 127.049 C 259.820 127.161,259.672 127.677,259.672 128.197 C 259.672 128.716,259.525 129.233,259.344 129.344 C 259.164 129.456,259.016 129.972,259.016 130.492 C 259.016 131.012,258.856 131.536,258.660 131.657 C 258.464 131.778,258.376 132.156,258.465 132.496 C 258.554 132.836,258.493 133.197,258.330 133.298 C 258.166 133.399,258.033 133.907,258.033 134.426 C 258.033 134.946,257.885 135.462,257.705 135.574 C 257.525 135.685,257.377 136.065,257.377 136.417 C 257.377 136.770,257.230 137.351,257.049 137.709 C 256.869 138.068,256.581 138.643,256.409 138.988 C 256.237 139.333,255.996 140.369,255.874 141.290 C 255.751 142.212,255.523 143.045,255.367 143.141 C 255.210 143.238,255.082 143.606,255.082 143.958 C 255.082 144.311,254.934 144.892,254.754 145.250 C 254.574 145.609,254.279 146.195,254.098 146.553 C 253.918 146.911,253.770 147.493,253.770 147.845 C 253.770 148.198,253.642 148.565,253.486 148.662 C 253.329 148.759,253.101 149.592,252.979 150.513 C 252.857 151.434,252.616 152.471,252.444 152.815 C 252.272 153.160,251.984 153.736,251.803 154.094 C 251.623 154.452,251.475 155.034,251.475 155.386 C 251.475 155.738,251.345 156.107,251.186 156.206 C 251.027 156.304,250.795 157.196,250.671 158.187 C 250.547 159.179,250.309 160.074,250.141 160.178 C 249.973 160.282,249.836 160.727,249.836 161.167 C 249.836 161.607,249.689 161.967,249.508 161.967 C 249.328 161.967,249.180 162.475,249.180 163.095 C 249.180 163.716,249.041 164.310,248.871 164.415 C 248.701 164.520,248.463 165.268,248.342 166.077 C 248.220 166.887,247.991 167.630,247.831 167.728 C 247.672 167.827,247.541 168.268,247.541 168.708 C 247.541 169.148,247.393 169.508,247.213 169.508 C 247.033 169.508,246.885 169.953,246.885 170.496 C 246.885 171.040,246.742 171.741,246.568 172.054 C 246.084 172.921,245.246 175.679,245.246 176.405 C 245.246 176.759,245.098 177.049,244.918 177.049 C 244.738 177.049,244.590 177.494,244.590 178.037 C 244.590 178.581,244.443 179.318,244.262 179.677 C 244.082 180.035,243.805 180.592,243.647 180.914 C 243.489 181.237,243.255 182.121,243.127 182.880 C 242.999 183.638,242.759 184.342,242.594 184.444 C 242.430 184.546,242.295 185.137,242.295 185.757 C 242.295 186.378,242.148 186.885,241.967 186.885 C 241.787 186.885,241.639 187.245,241.639 187.686 C 241.639 188.126,241.492 188.577,241.311 188.689 C 241.131 188.800,240.984 189.222,240.984 189.626 C 240.984 190.030,240.832 190.512,240.647 190.697 C 240.462 190.882,240.220 191.797,240.110 192.730 C 239.999 193.663,239.782 194.426,239.626 194.426 C 239.471 194.426,239.344 194.786,239.344 195.227 C 239.344 195.667,239.197 196.118,239.016 196.230 C 238.836 196.341,238.689 196.763,238.689 197.167 C 238.689 197.571,238.537 198.053,238.352 198.238 C 238.167 198.423,237.925 199.338,237.814 200.271 C 237.576 202.287,236.799 202.577,236.124 200.902 C 235.888 200.316,235.483 199.352,235.224 198.759 C 234.966 198.167,234.754 197.496,234.754 197.267 C 234.754 196.673,233.980 195.088,233.689 195.085 C 233.553 195.083,233.443 194.722,233.443 194.282 C 233.443 193.841,233.306 193.397,233.140 193.294 C 232.974 193.191,232.735 192.639,232.609 192.068 C 232.483 191.496,232.103 190.534,231.764 189.930 C 231.425 189.326,231.148 188.645,231.148 188.416 C 231.148 187.801,230.370 186.235,230.063 186.232 C 229.917 186.231,229.896 186.069,230.018 185.873 C 230.236 185.519,228.913 182.559,228.443 182.350 C 228.307 182.290,228.197 181.893,228.197 181.467 C 228.197 181.042,228.061 180.610,227.894 180.507 C 227.728 180.405,227.489 179.853,227.363 179.281 C 227.238 178.709,226.857 177.747,226.518 177.143 C 226.179 176.540,225.902 175.764,225.902 175.419 C 225.902 175.075,225.765 174.709,225.599 174.606 C 225.433 174.503,225.194 173.951,225.068 173.379 C 224.942 172.807,224.562 171.845,224.223 171.242 C 223.884 170.638,223.607 169.853,223.607 169.498 C 223.607 169.143,223.495 168.852,223.359 168.852 C 223.047 168.852,222.418 167.381,222.133 165.984 C 222.013 165.398,221.779 164.918,221.613 164.918 C 221.447 164.918,221.311 164.627,221.311 164.272 C 221.311 163.917,221.034 163.133,220.695 162.529 C 220.356 161.925,219.976 160.963,219.850 160.391 C 219.724 159.820,219.485 159.268,219.319 159.165 C 219.153 159.062,219.016 158.689,219.016 158.337 C 219.016 157.765,218.470 156.503,218.033 156.066 C 217.630 155.663,217.049 154.388,217.049 153.906 C 217.049 153.365,216.487 151.958,215.379 149.723 C 215.035 149.030,214.754 148.210,214.754 147.901 C 214.754 147.591,214.537 147.052,214.273 146.702 C 214.008 146.352,213.787 145.837,213.781 145.557 C 213.767 144.878,213.014 143.284,212.705 143.281 C 212.570 143.280,212.459 142.919,212.459 142.478 C 212.459 142.038,212.309 141.585,212.126 141.472 C 211.943 141.359,211.871 141.139,211.967 140.984 C 212.063 140.828,211.992 140.608,211.809 140.495 C 211.625 140.382,211.475 139.929,211.475 139.489 C 211.475 139.049,211.365 138.687,211.230 138.686 C 210.901 138.683,210.164 137.065,210.164 136.347 C 210.164 136.033,210.028 135.692,209.861 135.589 C 209.695 135.486,209.456 134.934,209.330 134.363 C 209.205 133.791,208.825 132.829,208.485 132.225 C 208.146 131.622,207.869 130.837,207.869 130.482 C 207.869 130.127,207.752 129.836,207.608 129.836 C 207.334 129.836,206.230 126.543,206.230 125.725 C 206.230 125.461,206.082 125.246,205.902 125.246 C 205.721 125.246,205.574 124.886,205.574 124.446 C 205.574 124.005,205.426 123.554,205.246 123.443 C 205.066 123.331,204.918 122.880,204.918 122.440 C 204.918 121.999,204.787 121.639,204.627 121.639 C 204.468 121.639,204.234 120.954,204.108 120.116 C 203.983 119.278,203.761 118.356,203.615 118.067 C 201.791 114.444,201.803 114.501,201.803 109.724 C 201.803 106.347,201.911 105.102,202.213 105.001 C 202.439 104.925,202.623 104.660,202.623 104.411 C 202.623 103.879,205.235 101.332,205.792 101.320 C 206.003 101.315,206.230 101.145,206.298 100.942 C 206.381 100.693,208.563 100.505,212.965 100.368 L 219.508 100.164 219.508 96.721 L 219.508 93.279 185.164 93.195 L 150.820 93.112 150.820 96.392 M82.568 101.023 C 82.628 101.182,83.394 101.311,84.270 101.311 C 85.146 101.311,85.954 101.459,86.066 101.639 C 86.177 101.820,86.776 101.967,87.396 101.967 C 88.017 101.967,88.525 102.096,88.525 102.253 C 88.525 102.410,89.152 102.638,89.918 102.758 C 91.493 103.006,93.115 103.643,93.115 104.014 C 93.115 104.151,93.374 104.262,93.692 104.262 C 94.009 104.262,94.453 104.557,94.678 104.918 C 94.903 105.279,95.268 105.574,95.488 105.574 C 95.952 105.574,101.967 111.475,101.967 111.930 C 101.967 112.097,102.307 112.690,102.723 113.248 C 103.677 114.530,105.246 117.768,105.246 118.456 C 105.246 118.743,105.393 119.069,105.574 119.180 C 105.754 119.292,105.902 119.734,105.902 120.164 C 105.902 120.593,106.049 121.036,106.230 121.148 C 106.410 121.259,106.557 121.710,106.557 122.150 C 106.557 122.591,106.705 122.951,106.885 122.951 C 107.066 122.951,107.213 123.615,107.213 124.426 C 107.213 125.238,107.361 125.902,107.541 125.902 C 107.747 125.902,107.869 128.081,107.869 131.784 C 107.869 135.352,107.740 137.746,107.541 137.869 C 107.361 137.980,107.213 138.579,107.213 139.200 C 107.213 139.820,107.066 140.328,106.885 140.328 C 106.705 140.328,106.557 140.688,106.557 141.128 C 106.557 141.568,106.410 142.020,106.230 142.131 C 106.049 142.243,105.902 142.696,105.902 143.139 C 105.902 143.581,105.764 144.200,105.595 144.513 C 105.426 144.826,104.880 145.967,104.381 147.049 C 103.883 148.131,103.283 149.134,103.049 149.279 C 102.815 149.423,102.623 149.727,102.623 149.955 C 102.623 150.183,102.180 150.793,101.639 151.311 C 101.098 151.830,100.656 152.407,100.656 152.594 C 100.656 153.052,96.343 157.377,95.886 157.377 C 95.687 157.377,95.178 157.746,94.754 158.197 C 94.331 158.648,93.788 159.016,93.549 159.016 C 93.310 159.016,93.115 159.152,93.115 159.318 C 93.115 159.484,92.674 159.717,92.135 159.835 C 91.596 159.954,91.071 160.187,90.968 160.353 C 90.865 160.520,90.421 160.656,89.981 160.656 C 89.540 160.656,89.180 160.803,89.180 160.984 C 89.180 161.164,88.820 161.311,88.380 161.311 C 87.940 161.311,87.488 161.459,87.377 161.639 C 87.266 161.820,86.454 161.967,85.574 161.967 C 84.693 161.967,83.882 162.115,83.770 162.295 C 83.645 162.498,80.762 162.623,76.210 162.623 L 68.852 162.623 68.852 131.539 L 68.852 100.455 75.656 100.595 C 79.398 100.671,82.508 100.864,82.568 101.023 " stroke="none" fill="#040404" fill-rule="evenodd"></path></g></svg>