<svg id="svg" version="1.1" xmlns="http://www.w3.org/2000/svg" xmlns:xlink="http://www.w3.org/1999/xlink" width="400" height="192.8016937191249" viewBox="0, 0, 400,192.8016937191249"><g id="svgg"><path id="path0" d="M0.023 58.125 C 0.035 90.094,0.105 115.725,0.178 115.083 C 0.476 112.473,0.665 111.365,0.989 110.333 C 1.176 109.737,1.330 109.137,1.331 109.000 C 1.336 108.490,3.167 104.787,4.105 103.392 C 5.809 100.857,8.540 98.490,11.167 97.274 C 12.681 96.572,14.792 95.833,15.286 95.832 C 15.541 95.832,16.025 95.755,16.362 95.661 C 17.002 95.484,20.039 95.160,20.143 95.258 C 20.176 95.289,19.762 95.863,19.223 96.532 C 17.747 98.366,16.929 99.494,16.406 100.417 C 16.145 100.875,15.883 101.287,15.823 101.333 C 15.705 101.423,13.793 105.205,13.169 106.583 C 11.093 111.169,9.681 118.946,9.886 124.667 C 10.166 132.459,12.411 140.412,16.193 147.000 C 16.868 148.176,19.070 151.549,19.483 152.040 C 19.657 152.247,20.399 153.167,21.132 154.083 C 21.864 155.000,22.922 156.224,23.482 156.803 C 24.666 158.029,24.729 158.165,23.875 157.651 C 19.805 155.205,12.782 148.701,9.878 144.691 C 9.172 143.715,8.548 142.879,8.492 142.833 C 8.436 142.787,7.871 141.924,7.236 140.915 C 3.301 134.654,0.887 128.067,0.332 122.083 C 0.222 120.892,0.108 119.842,0.079 119.750 C 0.050 119.658,0.020 136.027,0.013 156.125 L 0.000 192.667 144.208 192.646 C 261.573 192.628,288.153 192.585,287.000 192.413 C 282.559 191.748,278.079 188.912,275.504 185.133 C 268.970 175.546,269.054 167.044,275.852 150.000 C 276.236 149.037,276.677 147.912,276.832 147.500 C 276.988 147.087,277.194 146.563,277.290 146.333 C 277.387 146.104,277.629 145.504,277.828 145.000 C 278.027 144.496,278.325 143.783,278.490 143.417 C 278.656 143.050,279.000 142.262,279.255 141.667 C 279.942 140.062,280.634 138.523,281.093 137.581 C 281.317 137.121,281.500 136.691,281.500 136.625 C 281.500 136.147,290.943 117.108,292.184 115.083 C 292.409 114.717,292.739 114.135,292.918 113.792 C 293.096 113.448,293.319 113.148,293.413 113.126 C 293.507 113.103,282.746 113.047,269.500 113.001 L 245.417 112.917 245.364 112.464 C 245.287 111.795,243.094 111.885,272.833 111.333 C 283.270 111.139,293.248 110.863,294.259 110.739 C 294.882 110.662,294.983 110.575,295.548 109.620 C 295.885 109.050,296.570 107.946,297.070 107.167 C 297.570 106.388,298.302 105.202,298.698 104.533 C 299.093 103.863,299.695 102.850,300.034 102.283 C 300.374 101.715,300.747 101.063,300.862 100.833 C 300.977 100.604,301.231 100.154,301.425 99.833 C 301.620 99.513,302.141 98.575,302.583 97.750 C 303.025 96.925,303.749 95.575,304.191 94.750 C 305.077 93.098,307.097 89.029,307.873 87.333 C 308.145 86.737,308.428 86.132,308.500 85.988 C 308.573 85.844,308.877 85.132,309.176 84.405 C 309.476 83.678,309.821 82.935,309.944 82.755 C 310.066 82.574,310.167 82.311,310.168 82.171 C 310.168 82.031,310.268 81.726,310.390 81.493 C 310.512 81.259,310.822 80.509,311.080 79.826 C 311.337 79.143,311.604 78.508,311.673 78.417 C 311.742 78.325,311.876 77.987,311.970 77.667 C 312.064 77.346,312.415 76.333,312.750 75.417 C 313.631 73.007,314.510 70.377,314.756 69.417 C 314.873 68.958,315.115 68.058,315.293 67.417 C 319.330 52.880,319.332 38.078,315.299 30.917 C 315.196 30.733,314.925 30.208,314.696 29.750 C 314.468 29.292,314.235 28.879,314.180 28.833 C 314.124 28.787,313.670 28.122,313.172 27.355 C 312.285 25.991,309.110 22.613,307.497 21.317 C 306.491 20.509,304.051 18.833,303.881 18.833 C 303.806 18.833,303.483 18.662,303.164 18.452 C 302.435 17.973,298.510 16.167,298.197 16.167 C 298.112 16.167,297.714 16.027,297.313 15.856 C 296.198 15.381,295.970 15.294,295.250 15.068 C 292.888 14.328,292.441 14.056,292.824 13.594 C 292.982 13.404,293.198 13.434,294.132 13.777 C 296.933 14.803,298.999 15.648,300.583 16.416 C 301.042 16.638,301.620 16.895,301.869 16.987 C 302.117 17.078,303.266 17.683,304.422 18.330 C 313.377 23.342,318.873 30.615,320.420 39.500 C 320.556 40.279,320.794 41.629,320.949 42.500 C 321.854 47.576,320.694 57.822,318.138 67.333 C 317.953 68.021,317.667 69.146,317.502 69.833 C 316.953 72.115,315.865 75.889,315.228 77.718 C 315.011 78.342,314.833 78.968,314.833 79.109 C 314.833 79.251,314.722 79.603,314.586 79.891 C 314.450 80.180,314.120 81.054,313.853 81.833 C 313.207 83.712,312.550 85.462,312.246 86.109 C 312.111 86.397,312.000 86.697,312.000 86.775 C 311.999 86.900,311.053 89.193,310.428 90.583 C 310.304 90.858,309.996 91.571,309.742 92.167 C 308.552 94.960,306.902 98.352,304.797 102.333 C 303.123 105.498,302.423 106.791,302.177 107.167 C 302.028 107.396,301.776 107.846,301.617 108.167 C 301.459 108.487,301.114 109.144,300.851 109.625 L 300.373 110.500 302.645 110.505 C 303.894 110.507,309.942 110.322,316.083 110.092 C 322.225 109.863,330.700 109.556,334.917 109.411 C 339.133 109.266,344.308 109.031,346.417 108.888 C 352.099 108.505,356.138 108.501,356.715 108.879 C 358.045 109.750,356.432 111.841,353.793 112.669 C 352.775 112.988,352.103 112.996,325.877 112.998 L 299.004 113.000 298.621 113.625 C 298.411 113.969,298.147 114.438,298.036 114.667 C 297.924 114.896,297.576 115.533,297.262 116.083 C 296.949 116.633,296.466 117.533,296.190 118.083 C 295.913 118.633,295.337 119.721,294.910 120.500 C 292.794 124.355,287.087 135.901,285.683 139.167 C 285.387 139.854,285.083 140.534,285.007 140.678 C 284.930 140.822,284.624 141.535,284.327 142.262 C 284.029 142.989,283.721 143.655,283.643 143.742 C 283.564 143.829,283.500 143.995,283.500 144.112 C 283.500 144.228,283.319 144.719,283.099 145.203 C 282.878 145.687,282.533 146.533,282.332 147.083 C 282.131 147.633,281.796 148.533,281.587 149.083 C 277.695 159.309,276.346 165.755,276.547 173.167 C 276.670 177.714,277.628 181.406,279.068 182.882 C 279.175 182.993,279.623 183.621,280.061 184.278 C 283.222 189.010,288.702 191.175,294.333 189.916 C 295.021 189.763,295.846 189.581,296.167 189.513 C 296.740 189.391,300.021 187.815,301.167 187.111 C 301.487 186.914,301.954 186.639,302.204 186.501 C 305.812 184.504,310.271 180.004,312.032 176.583 C 312.173 176.308,312.582 175.558,312.941 174.917 C 315.972 169.488,316.450 163.646,314.238 159.081 C 314.016 158.621,313.833 158.184,313.833 158.108 C 313.833 157.942,312.926 156.623,312.293 155.869 C 310.914 154.226,314.376 152.697,315.906 154.273 C 318.280 156.717,319.244 163.330,317.864 167.695 C 317.119 170.051,314.664 175.465,314.175 175.833 C 314.114 175.879,313.775 176.442,313.421 177.083 C 313.068 177.725,312.731 178.287,312.673 178.333 C 312.615 178.379,312.200 178.974,311.750 179.655 C 307.688 185.819,299.597 191.504,293.583 192.420 C 292.518 192.582,303.079 192.627,346.125 192.645 L 400.000 192.667 400.000 158.661 C 400.000 125.939,399.989 124.661,399.699 124.816 C 399.314 125.022,399.117 124.888,398.748 124.167 C 396.055 118.907,390.132 118.380,386.398 123.067 C 382.582 127.857,382.942 133.495,387.927 147.000 C 388.247 147.865,389.456 151.852,389.545 152.333 C 389.587 152.563,389.777 153.313,389.966 154.000 C 390.538 156.080,391.159 158.848,391.331 160.083 C 391.421 160.725,391.617 161.887,391.767 162.667 C 393.610 172.217,390.238 181.204,383.250 185.370 C 375.208 190.163,365.827 187.426,361.612 179.057 C 358.609 173.093,358.836 162.055,362.087 156.000 C 363.432 153.497,364.633 151.953,366.513 150.310 C 369.657 147.565,373.833 146.613,373.833 148.643 C 373.833 149.644,373.653 149.813,372.386 149.995 C 367.864 150.647,364.708 153.014,362.823 157.167 C 362.636 157.579,362.384 158.104,362.264 158.333 C 360.821 161.082,359.968 168.569,360.640 172.583 C 363.157 187.604,379.670 191.497,386.906 178.776 C 387.159 178.332,387.428 177.770,387.504 177.526 C 387.580 177.283,387.800 176.671,387.993 176.167 C 388.912 173.765,388.814 168.548,387.773 164.500 C 387.087 161.833,386.375 159.409,386.165 159.025 C 385.981 158.688,384.912 155.908,384.746 155.333 C 384.680 155.104,384.569 154.842,384.499 154.750 C 384.429 154.658,384.165 154.021,383.912 153.333 C 383.659 152.646,383.270 151.596,383.048 151.000 C 382.827 150.404,382.565 149.692,382.466 149.417 C 382.368 149.142,382.223 148.845,382.144 148.758 C 382.065 148.671,382.000 148.498,382.000 148.373 C 382.000 148.248,381.812 147.735,381.583 147.234 C 381.354 146.733,381.167 146.264,381.167 146.191 C 381.167 146.119,380.942 145.595,380.667 145.027 C 380.392 144.459,380.167 143.958,380.167 143.912 C 380.167 143.867,380.022 143.512,379.844 143.123 C 379.438 142.232,378.687 140.125,378.464 139.250 C 378.370 138.883,378.118 138.058,377.904 137.417 C 377.690 136.775,377.465 135.969,377.405 135.625 C 377.280 134.905,377.173 134.863,376.734 135.358 C 376.011 136.174,371.017 140.000,370.676 140.000 C 370.608 140.000,370.426 140.139,370.272 140.310 C 369.828 140.800,366.049 142.606,364.583 143.028 C 358.414 144.804,353.987 141.073,354.003 134.112 C 354.008 132.048,354.284 130.634,355.768 125.083 C 356.420 122.644,356.555 122.703,353.163 123.938 C 352.564 124.155,351.965 124.333,351.830 124.333 C 351.695 124.333,350.909 124.549,350.084 124.814 C 348.609 125.286,346.383 125.936,344.759 126.369 C 343.920 126.593,343.344 127.622,343.336 128.913 C 343.331 129.592,341.029 135.112,340.301 136.189 C 340.138 136.431,339.849 136.956,339.659 137.356 C 339.274 138.165,338.947 138.759,338.342 139.750 C 337.882 140.503,337.709 140.801,337.178 141.750 C 336.973 142.117,336.441 142.979,335.997 143.667 C 335.553 144.354,334.878 145.442,334.499 146.083 C 334.119 146.725,333.517 147.700,333.160 148.250 C 332.804 148.800,332.196 149.809,331.809 150.493 C 330.145 153.433,329.234 154.462,327.171 155.733 C 325.279 156.898,323.798 156.786,324.165 155.506 C 324.279 155.109,325.370 152.993,325.671 152.583 C 325.739 152.492,326.337 151.371,327.000 150.092 C 327.663 148.813,328.267 147.651,328.343 147.509 C 328.592 147.041,330.790 142.430,331.048 141.833 C 332.244 139.067,333.245 136.698,333.513 136.000 C 333.635 135.679,333.830 135.233,333.945 135.008 C 334.375 134.166,333.279 134.891,331.568 136.578 C 329.774 138.348,326.950 140.784,325.667 141.669 C 325.346 141.890,325.008 142.154,324.917 142.256 C 324.825 142.357,324.037 142.957,323.167 143.588 C 322.296 144.219,321.351 144.926,321.067 145.159 C 320.783 145.393,320.077 145.883,319.498 146.250 C 318.918 146.617,317.999 147.198,317.455 147.542 C 316.911 147.885,316.425 148.167,316.374 148.167 C 316.323 148.167,316.033 148.356,315.729 148.588 C 314.862 149.250,309.679 151.833,309.220 151.833 C 309.159 151.833,308.651 152.017,308.090 152.241 C 306.039 153.062,301.523 153.419,299.453 152.924 C 293.467 151.494,293.615 142.210,299.798 131.333 C 300.422 130.236,302.371 127.097,302.490 127.000 C 302.545 126.954,302.734 126.692,302.908 126.417 C 304.065 124.591,308.136 121.342,310.250 120.558 C 316.613 118.196,321.833 120.586,321.833 125.860 C 321.833 129.143,317.305 134.356,312.048 137.126 C 308.918 138.774,304.628 140.833,304.324 140.833 C 304.225 140.833,303.605 141.050,302.947 141.316 C 302.289 141.581,301.307 141.975,300.766 142.191 C 299.630 142.643,299.475 142.899,299.080 144.961 C 298.136 149.895,300.272 152.779,304.423 152.173 C 306.644 151.848,306.921 151.795,307.583 151.570 C 308.861 151.137,309.673 150.832,309.960 150.678 C 310.120 150.593,311.033 150.137,311.991 149.665 C 312.948 149.193,313.915 148.663,314.138 148.487 C 314.362 148.311,314.604 148.167,314.676 148.167 C 314.748 148.167,315.619 147.640,316.612 146.997 C 317.604 146.354,318.855 145.548,319.390 145.205 C 320.296 144.627,320.717 144.320,323.167 142.454 C 323.671 142.070,324.395 141.530,324.777 141.253 C 325.917 140.426,330.454 136.662,332.386 134.940 C 333.378 134.056,334.294 133.333,334.422 133.333 C 334.662 133.333,336.000 129.464,336.000 128.768 C 336.000 128.478,335.844 128.375,335.152 128.211 C 331.218 127.276,331.017 121.532,334.886 120.601 C 339.087 119.590,342.754 121.333,343.478 124.684 L 343.680 125.618 345.173 125.240 C 347.709 124.597,350.657 123.355,355.083 121.066 C 360.142 118.451,362.677 118.081,363.581 119.828 C 364.263 121.148,363.870 122.227,360.906 127.167 C 358.728 130.797,358.247 132.428,358.378 135.734 C 358.509 139.024,359.037 140.261,360.731 141.244 C 362.815 142.454,367.666 141.560,370.038 139.529 C 370.338 139.272,371.258 138.581,372.083 137.993 C 372.908 137.405,373.696 136.804,373.833 136.657 C 373.971 136.511,374.496 136.082,375.000 135.704 C 375.504 135.326,376.166 134.807,376.472 134.550 L 377.027 134.083 376.744 132.583 C 375.540 126.199,378.570 120.888,384.667 118.698 C 387.125 117.815,387.419 117.768,390.500 117.769 L 393.417 117.771 394.733 118.399 C 396.596 119.289,398.418 121.272,399.661 123.763 C 399.985 124.413,399.987 124.074,399.993 62.208 L 400.000 0.000 200.000 0.000 L 0.000 0.000 0.023 58.125 M85.667 1.553 L 85.667 2.940 84.292 3.162 C 81.980 3.535,80.529 4.651,79.411 6.917 L 78.917 7.917 78.869 14.125 L 78.822 20.333 84.244 20.333 L 89.667 20.333 89.667 21.833 L 89.667 23.333 84.253 23.333 L 78.839 23.333 78.795 53.708 C 78.754 81.585,78.727 84.149,78.472 84.885 C 78.157 85.791,78.121 85.754,79.500 85.910 C 82.752 86.277,88.535 88.124,91.417 89.716 C 91.600 89.817,92.162 90.125,92.667 90.401 C 93.171 90.676,93.658 90.966,93.750 91.044 C 93.842 91.123,94.492 91.560,95.195 92.015 C 101.963 96.395,106.500 103.833,106.500 110.549 C 106.500 114.703,105.667 117.374,103.050 121.614 C 102.571 122.390,99.696 125.429,98.417 126.510 C 96.646 128.008,92.292 129.833,90.490 129.833 C 89.544 129.833,89.525 129.800,90.069 129.087 C 90.574 128.425,91.265 127.262,91.607 126.500 C 91.750 126.179,92.011 125.599,92.187 125.212 C 93.556 122.182,92.968 117.668,90.823 114.750 C 83.315 104.535,65.476 107.917,58.377 120.902 C 55.756 125.698,54.809 132.506,56.098 137.292 C 56.684 139.469,56.860 140.021,57.260 140.938 C 57.925 142.464,58.544 143.689,59.017 144.417 C 59.256 144.783,59.819 145.644,60.267 146.330 C 61.542 148.278,66.658 153.324,68.750 154.697 C 75.395 159.058,84.466 160.795,94.167 159.565 C 95.221 159.431,96.683 159.255,97.417 159.174 C 98.823 159.019,101.139 158.560,103.500 157.970 C 104.279 157.776,105.404 157.512,106.000 157.385 C 106.596 157.257,107.501 157.006,108.011 156.826 C 108.521 156.647,109.043 156.500,109.169 156.500 C 109.296 156.500,110.004 156.284,110.742 156.021 C 111.480 155.757,112.496 155.409,113.000 155.248 C 113.504 155.086,113.988 154.889,114.075 154.810 C 114.162 154.731,114.350 154.666,114.492 154.665 C 114.634 154.664,115.575 154.319,116.583 153.898 C 117.592 153.476,118.706 153.025,119.060 152.894 C 119.413 152.763,119.976 152.512,120.310 152.336 C 121.171 151.882,123.177 151.000,123.347 151.000 C 123.426 151.000,123.887 150.816,124.370 150.591 C 124.854 150.365,125.550 150.074,125.917 149.944 C 126.283 149.813,127.221 149.465,128.000 149.170 C 144.332 142.987,162.686 142.120,177.083 146.851 C 177.908 147.122,178.958 147.465,179.417 147.612 C 179.875 147.759,180.321 147.944,180.408 148.023 C 180.495 148.102,180.670 148.167,180.797 148.167 C 181.021 148.167,182.509 148.774,184.296 149.596 C 184.780 149.818,185.195 150.000,185.218 150.000 C 185.241 150.000,185.230 148.990,185.194 147.755 C 185.158 146.521,185.219 144.777,185.329 143.880 C 185.440 142.984,185.590 141.742,185.663 141.120 C 186.116 137.263,188.703 129.078,190.204 126.754 C 191.450 124.824,191.890 124.252,192.925 123.211 C 194.717 121.409,196.496 120.587,198.609 120.585 C 200.996 120.582,201.578 121.312,200.333 122.750 C 199.967 123.174,199.667 123.577,199.667 123.645 C 199.667 123.714,199.520 123.928,199.341 124.120 C 199.162 124.312,198.544 125.282,197.966 126.277 C 196.487 128.824,196.434 128.922,195.662 130.500 C 195.281 131.279,194.797 132.254,194.586 132.667 C 194.375 133.079,193.964 134.017,193.672 134.750 C 193.380 135.483,192.962 136.533,192.743 137.083 C 190.035 143.894,190.054 148.618,192.787 147.580 C 195.313 146.620,202.461 139.559,206.938 133.599 C 208.020 132.160,208.056 131.772,207.328 129.398 C 207.051 128.492,206.741 127.476,206.640 127.141 C 205.797 124.334,212.311 118.012,214.041 119.958 C 214.694 120.692,215.110 126.744,214.669 129.083 C 214.565 129.633,214.419 130.533,214.343 131.083 C 214.199 132.131,213.796 133.789,213.005 136.583 C 210.908 143.999,210.774 146.333,212.448 146.333 C 213.900 146.333,218.551 141.697,225.658 133.167 C 226.612 132.021,227.650 130.821,227.963 130.500 C 228.276 130.179,229.475 128.765,230.627 127.358 C 231.779 125.950,232.924 124.600,233.170 124.358 C 233.417 124.115,234.848 122.461,236.351 120.681 C 237.854 118.902,240.021 116.336,241.167 114.979 C 243.463 112.262,248.916 105.965,249.482 105.378 C 249.679 105.173,251.051 103.598,252.531 101.878 C 256.386 97.396,259.221 94.706,264.042 90.950 C 264.781 90.375,267.182 88.910,268.083 88.485 C 268.450 88.312,268.862 88.100,269.000 88.012 C 270.966 86.765,275.840 85.394,278.958 85.212 C 280.649 85.112,280.649 85.113,280.159 84.152 C 279.641 83.137,279.167 80.219,279.167 78.051 L 279.167 76.167 280.476 76.167 L 281.786 76.167 281.885 78.375 C 282.073 82.563,283.395 85.559,285.714 87.060 C 286.192 87.369,286.763 87.817,286.982 88.055 C 288.309 89.498,294.027 90.010,296.583 88.916 C 298.087 88.273,298.500 87.984,299.824 86.650 C 302.935 83.516,303.193 82.288,303.127 70.930 L 303.083 63.480 302.097 64.246 C 301.555 64.667,301.030 65.114,300.931 65.238 C 300.831 65.363,300.112 65.918,299.333 66.473 C 298.554 67.027,297.654 67.679,297.333 67.921 C 296.331 68.677,294.105 70.069,293.369 70.401 C 292.982 70.575,292.581 70.819,292.479 70.942 C 292.376 71.066,292.191 71.167,292.068 71.167 C 291.944 71.167,291.410 71.369,290.880 71.617 C 286.449 73.686,280.667 70.122,279.431 64.559 C 279.045 62.822,279.031 32.184,279.416 30.201 C 279.884 27.789,280.722 25.896,282.152 24.022 C 283.012 22.896,283.517 22.423,285.299 21.076 C 287.531 19.388,292.509 18.708,296.229 19.581 C 300.198 20.513,303.561 23.816,305.139 28.333 L 305.750 30.083 305.750 55.750 C 305.750 83.714,305.807 81.852,304.888 84.000 C 304.751 84.321,304.526 84.846,304.388 85.167 C 303.127 88.096,300.384 90.616,297.200 91.771 C 295.410 92.420,290.618 92.605,288.714 92.098 C 287.799 91.854,284.761 90.454,284.333 90.079 C 283.839 89.646,280.887 88.691,279.427 88.493 C 274.644 87.842,268.216 89.845,262.917 93.636 C 259.546 96.047,256.236 99.274,251.855 104.417 C 250.450 106.067,249.132 107.567,248.926 107.750 C 248.721 107.933,247.359 109.493,245.901 111.215 C 244.443 112.937,242.275 115.497,241.083 116.904 C 239.892 118.310,237.604 121.011,236.000 122.905 C 234.396 124.798,232.272 127.338,231.280 128.549 C 230.289 129.760,229.203 131.049,228.867 131.414 C 228.531 131.779,227.478 133.016,226.527 134.164 C 225.576 135.311,224.112 136.999,223.274 137.914 C 222.436 138.829,221.338 140.028,220.833 140.578 C 212.312 149.873,208.091 153.012,206.042 151.577 C 205.389 151.120,205.191 148.071,205.755 147.159 C 205.789 147.104,205.892 146.589,205.985 146.014 C 206.077 145.439,206.300 144.470,206.479 143.859 C 207.876 139.097,207.825 139.345,207.935 136.750 L 208.041 134.250 207.360 135.147 C 206.985 135.640,206.545 136.188,206.381 136.364 C 205.601 137.205,205.310 137.534,203.914 139.154 C 199.194 144.629,192.783 150.245,189.631 151.663 L 189.013 151.941 189.683 152.345 C 193.859 154.867,197.329 157.438,200.072 160.042 C 201.185 161.098,201.007 161.043,198.969 159.701 C 193.491 156.092,187.506 153.182,182.147 151.523 C 179.470 150.694,177.499 150.147,176.692 150.009 C 176.266 149.936,175.129 149.724,174.167 149.537 C 164.426 147.644,151.339 148.720,142.083 152.176 C 141.625 152.347,140.688 152.685,140.000 152.928 C 139.313 153.170,138.679 153.436,138.592 153.518 C 138.505 153.600,138.324 153.667,138.191 153.667 C 138.058 153.667,137.567 153.844,137.099 154.062 C 136.632 154.279,135.650 154.727,134.917 155.058 C 134.183 155.389,133.096 155.924,132.500 156.247 C 131.904 156.570,131.111 156.982,130.737 157.163 C 130.363 157.343,129.876 157.629,129.654 157.798 C 129.432 157.968,128.725 158.395,128.083 158.747 C 127.442 159.100,126.879 159.435,126.833 159.492 C 126.787 159.549,126.150 159.999,125.417 160.492 C 124.683 160.985,124.046 161.442,124.000 161.506 C 123.808 161.779,119.107 164.785,117.667 165.557 C 116.187 166.350,115.075 166.951,114.583 167.224 C 114.308 167.376,113.483 167.767,112.750 168.091 C 112.017 168.415,111.226 168.785,110.993 168.912 C 110.760 169.040,110.273 169.254,109.910 169.389 C 109.547 169.524,108.650 169.871,107.917 170.161 C 106.421 170.753,104.050 171.602,103.167 171.863 C 98.947 173.110,97.720 173.435,96.000 173.757 C 95.404 173.868,94.129 174.122,93.167 174.320 C 92.204 174.518,90.629 174.754,89.667 174.844 C 88.704 174.935,87.242 175.096,86.417 175.202 C 83.107 175.627,76.382 175.423,71.250 174.741 C 67.354 174.223,61.290 172.412,57.556 170.651 C 56.991 170.385,56.486 170.167,56.433 170.167 C 56.347 170.167,55.143 169.510,52.917 168.249 C 45.762 164.194,38.718 156.435,34.596 148.066 C 34.059 146.975,33.526 145.896,33.412 145.667 C 33.039 144.920,31.869 141.928,31.782 141.500 C 31.736 141.271,31.508 140.408,31.276 139.583 C 28.769 130.682,29.456 118.743,32.924 110.917 C 36.497 102.854,41.446 97.229,48.892 92.770 C 50.306 91.924,55.203 89.500,55.500 89.500 C 55.594 89.500,55.988 89.353,56.377 89.173 C 60.320 87.349,66.964 85.874,71.932 85.720 L 75.303 85.615 75.610 84.932 C 75.904 84.279,75.919 82.959,75.960 53.792 L 76.004 23.333 71.752 23.333 L 67.500 23.333 67.500 21.833 L 67.500 20.333 71.750 20.333 L 76.000 20.333 76.000 14.452 C 76.000 7.825,76.036 7.550,77.200 5.190 C 78.704 2.139,81.544 0.246,84.708 0.185 L 85.667 0.167 85.667 1.553 M195.167 14.083 C 195.167 21.738,195.228 28.000,195.303 28.000 C 195.378 28.000,195.593 27.831,195.780 27.625 C 196.230 27.128,199.620 24.485,201.060 23.508 C 207.323 19.260,210.310 18.501,213.833 20.264 C 215.375 21.035,217.177 22.867,217.903 24.402 C 219.096 26.925,219.000 24.511,219.000 51.930 L 219.000 76.681 217.708 76.632 L 216.417 76.583 216.333 51.914 L 216.250 27.245 215.667 26.105 C 213.702 22.267,209.177 21.142,206.083 23.722 C 205.992 23.799,205.563 24.061,205.131 24.306 C 204.180 24.844,201.019 26.985,200.661 27.333 C 200.520 27.471,199.957 27.920,199.411 28.331 C 197.948 29.431,196.857 30.324,195.962 31.153 L 195.167 31.889 195.167 54.284 L 195.167 76.680 193.792 76.632 L 192.417 76.583 192.375 38.375 L 192.333 0.167 193.750 0.167 L 195.167 0.167 195.167 14.083 M231.500 5.917 L 231.500 11.667 230.167 11.667 L 228.833 11.667 228.833 5.917 L 228.833 0.167 230.167 0.167 L 231.500 0.167 231.500 5.917 M29.533 19.509 C 32.286 20.057,34.675 22.023,35.971 24.806 C 36.802 26.590,36.864 27.161,36.947 33.792 L 37.025 40.000 35.596 40.000 L 34.167 40.000 34.167 34.118 C 34.167 26.717,34.041 26.100,32.150 24.194 C 29.713 21.740,26.932 21.745,23.094 24.209 C 21.152 25.456,20.461 25.923,18.976 26.994 C 18.027 27.678,17.137 28.359,17.000 28.508 C 16.862 28.656,15.907 29.446,14.877 30.264 L 13.005 31.750 13.002 54.208 L 13.000 76.667 11.667 76.667 L 10.333 76.667 10.333 48.500 L 10.333 20.333 11.664 20.333 L 12.994 20.333 13.039 24.157 L 13.083 27.981 15.167 26.334 C 22.246 20.735,26.218 18.849,29.533 19.509 M58.281 19.574 C 62.892 20.385,66.753 24.304,68.027 29.464 C 68.359 30.809,68.391 31.444,68.454 38.042 L 68.522 45.167 56.511 45.167 L 44.500 45.167 44.506 54.875 C 44.510 62.052,44.569 64.953,44.731 66.000 C 46.482 77.299,62.545 77.957,65.316 66.843 C 65.630 65.585,65.667 64.955,65.667 60.885 L 65.667 56.333 67.083 56.333 L 68.500 56.333 68.494 60.625 C 68.489 64.793,68.435 65.416,67.847 68.167 C 67.385 70.329,65.666 72.947,63.299 75.097 C 60.016 78.076,52.119 78.486,48.048 75.889 C 45.423 74.214,43.689 71.932,42.435 68.502 L 41.917 67.083 41.917 48.500 L 41.917 29.917 42.443 28.400 C 44.850 21.460,50.647 18.230,58.281 19.574 M113.417 19.564 C 116.952 20.340,119.742 23.398,120.428 27.250 C 120.604 28.233,120.666 30.084,120.666 34.292 L 120.667 40.000 119.333 40.000 L 118.000 40.000 118.000 34.576 C 118.000 30.284,117.945 28.887,117.737 27.879 C 116.778 23.235,112.831 21.135,108.833 23.142 C 106.576 24.275,102.497 26.887,101.917 27.571 C 101.825 27.679,101.051 28.305,100.198 28.963 C 99.344 29.620,98.204 30.516,97.665 30.954 L 96.686 31.750 96.676 54.208 L 96.667 76.667 95.333 76.667 L 94.000 76.667 94.000 48.500 L 94.000 20.333 95.333 20.333 L 96.667 20.333 96.667 24.167 C 96.667 26.275,96.719 28.000,96.784 28.000 C 96.848 28.000,97.129 27.786,97.409 27.525 C 98.753 26.267,104.320 22.271,106.042 21.328 C 109.419 19.477,111.141 19.065,113.417 19.564 M141.964 19.577 C 146.035 20.293,149.352 23.213,151.249 27.750 C 151.983 29.506,152.167 31.679,152.167 38.603 L 152.167 45.167 140.167 45.167 L 128.167 45.167 128.167 54.801 C 128.167 65.596,128.263 66.764,129.335 68.971 C 129.980 70.298,131.259 71.932,132.162 72.583 C 132.543 72.858,132.959 73.179,133.087 73.296 C 135.239 75.274,141.577 75.249,144.590 73.252 C 148.289 70.800,149.338 68.150,149.455 60.958 L 149.531 56.333 150.849 56.333 L 152.167 56.333 152.167 60.738 C 152.167 67.292,151.604 69.588,149.201 72.846 C 146.722 76.205,143.819 77.500,138.765 77.500 L 135.503 77.500 134.043 76.949 C 131.461 75.975,129.062 74.072,127.911 72.083 C 127.645 71.625,127.343 71.163,127.240 71.056 C 127.137 70.949,126.958 70.612,126.842 70.306 C 126.726 70.000,126.482 69.381,126.299 68.931 C 125.544 67.069,125.506 66.094,125.503 48.532 C 125.500 30.692,125.559 29.377,126.448 27.667 C 126.567 27.438,126.665 27.154,126.666 27.037 C 126.674 25.338,131.005 21.124,133.917 19.983 C 135.490 19.366,139.591 19.159,141.964 19.577 M173.917 19.491 C 174.283 19.574,174.851 19.682,175.177 19.731 C 177.853 20.138,181.564 23.328,183.051 26.500 C 184.094 28.725,184.487 30.618,184.494 33.458 L 184.500 35.500 183.188 35.500 L 181.877 35.500 181.783 33.292 C 181.575 28.364,179.641 25.025,175.917 23.166 L 174.417 22.417 171.167 22.422 C 167.495 22.429,167.350 22.465,165.159 23.922 C 160.877 26.769,159.107 34.225,161.837 37.922 C 163.760 40.527,168.387 44.362,172.126 46.449 C 172.550 46.686,172.976 46.948,173.073 47.031 C 173.171 47.114,173.750 47.497,174.361 47.883 C 179.332 51.017,183.009 54.971,184.120 58.378 C 184.949 60.921,184.556 66.971,183.387 69.667 C 181.026 75.110,177.310 77.500,171.207 77.500 C 168.013 77.500,167.814 77.472,165.833 76.751 C 163.258 75.813,160.507 73.071,159.166 70.106 C 157.987 67.498,157.964 67.335,157.874 60.708 L 157.792 54.667 159.215 54.667 L 160.638 54.667 160.703 60.708 C 160.761 66.013,160.805 66.831,161.062 67.417 C 161.222 67.783,161.468 68.346,161.606 68.667 C 162.184 70.006,162.465 70.442,163.394 71.444 C 168.541 77.001,177.916 75.528,180.777 68.714 C 181.844 66.173,182.211 61.327,181.498 59.199 C 180.922 57.477,178.922 54.979,176.746 53.262 C 176.290 52.903,175.803 52.484,175.664 52.333 C 175.360 52.003,171.693 49.532,170.750 49.022 C 169.769 48.491,167.631 47.141,167.071 46.699 C 166.803 46.487,165.983 45.876,165.250 45.342 C 162.397 43.261,159.731 40.270,158.533 37.807 C 157.722 36.138,157.610 30.705,158.350 28.899 C 158.458 28.634,158.649 28.180,158.773 27.891 C 158.898 27.603,159.000 27.265,159.000 27.141 C 159.000 26.591,160.767 23.997,161.964 22.789 C 164.720 20.010,169.884 18.585,173.917 19.491 M263.583 19.562 C 266.290 20.148,268.909 22.444,269.974 25.163 C 270.830 27.350,270.833 27.473,270.833 52.950 L 270.833 76.680 269.458 76.632 L 268.083 76.583 267.995 52.083 C 267.901 25.918,267.943 27.065,267.019 25.449 C 264.943 21.821,261.662 21.429,256.889 24.237 C 255.845 24.852,252.362 27.267,252.083 27.571 C 251.992 27.671,251.242 28.263,250.417 28.888 C 249.592 29.513,248.448 30.436,247.875 30.939 L 246.833 31.855 246.833 54.261 L 246.833 76.667 245.500 76.667 L 244.167 76.667 244.167 48.500 L 244.167 20.333 245.500 20.333 L 246.833 20.333 246.833 24.167 C 246.833 26.275,246.877 28.000,246.930 28.000 C 246.983 28.000,247.452 27.636,247.971 27.191 C 254.743 21.395,260.057 18.798,263.583 19.562 M231.500 44.152 C 231.500 70.320,231.473 69.571,232.497 71.385 C 233.487 73.141,235.482 74.501,237.419 74.743 L 238.333 74.857 238.333 76.196 L 238.333 77.534 236.958 77.475 C 233.223 77.315,229.590 73.770,229.003 69.713 C 228.903 69.017,228.839 59.318,228.837 44.458 L 228.833 20.333 230.167 20.333 L 231.500 20.333 231.500 44.152 M289.583 22.409 C 287.931 22.744,285.769 24.060,284.643 25.417 C 283.532 26.756,282.811 28.119,282.301 29.840 C 281.747 31.715,281.615 61.898,282.152 64.022 C 283.082 67.698,286.610 70.143,289.457 69.085 C 290.605 68.658,293.140 67.370,293.755 66.902 C 294.044 66.681,294.335 66.500,294.400 66.500 C 294.510 66.500,295.886 65.568,296.833 64.851 C 297.063 64.678,297.820 64.123,298.517 63.618 C 299.214 63.114,299.967 62.524,300.190 62.309 C 300.413 62.093,301.175 61.470,301.881 60.924 L 303.167 59.932 303.167 46.536 C 303.167 31.794,303.112 30.691,302.287 28.667 C 300.208 23.568,295.444 21.221,289.583 22.409 M52.167 22.487 C 50.376 22.748,47.622 24.708,46.436 26.566 C 44.750 29.209,44.507 30.566,44.503 37.375 L 44.500 42.333 55.083 42.333 L 65.667 42.333 65.667 36.875 C 65.666 30.891,65.449 29.302,64.404 27.647 C 64.182 27.295,64.000 26.944,64.000 26.867 C 64.000 26.652,62.847 25.376,61.491 24.089 C 59.988 22.663,55.846 21.951,52.167 22.487 M135.809 22.493 C 133.534 22.907,130.770 25.183,129.526 27.667 C 128.390 29.936,128.309 30.503,128.219 36.792 L 128.139 42.333 138.836 42.333 L 149.533 42.333 149.454 36.792 C 149.330 28.140,148.180 25.487,143.543 23.146 L 142.138 22.437 139.361 22.395 C 137.833 22.371,136.235 22.416,135.809 22.493 M57.333 84.306 C 58.665 84.585,58.927 85.000,57.770 85.000 C 56.840 85.000,51.371 87.140,47.917 88.856 C 28.815 98.344,20.447 118.417,26.247 140.833 C 26.473 141.704,26.765 142.679,26.896 143.000 C 28.618 147.203,29.596 149.262,31.089 151.833 C 32.906 154.962,35.360 158.494,36.812 160.072 C 41.060 164.686,43.597 166.915,47.687 169.625 C 48.137 169.923,48.553 170.167,48.612 170.167 C 48.670 170.167,48.951 170.340,49.234 170.552 C 49.738 170.927,50.301 171.241,52.167 172.184 C 53.261 172.737,52.962 172.812,51.670 172.308 C 51.164 172.111,50.188 171.731,49.500 171.463 C 47.708 170.765,43.406 168.700,41.250 167.504 C 29.045 160.732,19.162 148.788,16.080 137.083 C 15.960 136.625,15.711 135.688,15.528 135.000 C 15.203 133.780,15.071 133.142,14.577 130.423 C 13.491 124.439,14.418 114.382,16.597 108.496 C 16.819 107.898,17.000 107.354,17.000 107.288 C 17.000 107.147,17.764 105.470,18.688 103.583 C 24.032 92.669,34.666 85.008,45.880 83.994 C 48.443 83.762,55.680 83.960,57.333 84.306 M79.113 116.375 C 79.056 117.315,78.957 119.989,78.894 122.318 L 78.779 126.553 80.348 126.445 C 81.211 126.385,83.210 126.287,84.792 126.226 L 87.667 126.115 87.667 128.224 L 87.667 130.333 87.125 130.329 C 86.827 130.326,84.896 130.216,82.833 130.083 C 80.771 129.951,79.015 129.840,78.931 129.838 C 78.778 129.833,78.902 145.052,79.112 151.958 L 79.220 155.500 77.110 155.500 L 75.001 155.500 75.111 142.667 C 75.178 134.941,75.161 129.835,75.069 129.838 C 74.985 129.840,73.267 129.951,71.250 130.084 C 69.233 130.217,67.340 130.328,67.042 130.330 L 66.500 130.333 66.500 128.224 L 66.500 126.115 69.339 126.226 C 70.900 126.288,72.863 126.386,73.700 126.446 L 75.222 126.554 75.111 120.610 L 74.999 114.667 77.108 114.667 L 79.217 114.667 79.113 116.375 M261.833 120.495 C 263.621 121.204,264.167 122.036,264.167 124.054 C 264.167 125.737,263.688 127.142,262.282 129.583 C 260.843 132.083,258.551 135.031,258.098 134.966 C 257.589 134.893,257.693 134.521,258.537 133.409 C 261.472 129.535,261.157 127.092,257.762 127.397 C 254.332 127.705,248.500 129.442,248.500 130.155 C 248.500 130.214,248.256 130.403,247.958 130.576 C 245.591 131.950,241.311 136.196,240.140 138.334 C 237.071 143.939,237.703 150.154,241.500 151.707 C 242.195 151.991,246.451 151.926,247.417 151.617 C 250.804 150.532,253.013 149.084,255.287 146.457 C 256.078 145.544,258.303 142.386,258.483 141.921 C 258.657 141.473,259.597 140.201,260.063 139.785 C 261.846 138.191,264.803 138.092,264.419 139.639 C 264.299 140.122,264.248 140.224,263.230 142.031 C 261.691 144.762,261.453 146.074,262.121 148.127 C 263.498 152.353,268.282 151.311,272.768 145.807 C 273.308 145.144,273.913 144.424,274.112 144.207 C 274.311 143.990,274.832 143.273,275.269 142.615 C 275.706 141.956,276.208 141.252,276.386 141.050 C 276.720 140.671,277.439 139.532,279.520 136.083 C 280.820 133.929,281.272 133.333,281.603 133.333 C 282.061 133.333,281.987 133.704,281.341 134.655 C 280.970 135.201,280.667 135.688,280.667 135.736 C 280.667 135.823,280.526 136.039,278.857 138.527 C 278.386 139.230,278.000 139.860,278.000 139.928 C 278.000 139.996,277.794 140.321,277.543 140.651 C 277.291 140.980,276.731 141.775,276.298 142.417 C 271.223 149.936,268.203 152.333,263.810 152.333 C 259.792 152.333,256.794 148.660,257.899 145.091 C 258.215 144.071,258.168 144.006,257.653 144.746 C 253.882 150.166,251.027 152.193,246.000 153.023 C 239.343 154.122,234.667 150.860,234.667 145.118 C 234.667 143.973,235.596 139.942,236.073 139.020 C 236.216 138.743,236.333 138.442,236.333 138.351 C 236.333 138.200,237.338 136.094,238.091 134.667 C 240.373 130.340,245.415 125.371,250.167 122.766 C 252.217 121.642,252.417 121.536,252.500 121.527 C 252.546 121.522,252.957 121.353,253.413 121.151 C 256.062 119.979,259.797 119.688,261.833 120.495 M316.583 124.616 C 312.112 125.656,304.892 132.316,301.801 138.250 C 301.657 138.525,301.233 139.331,300.858 140.042 C 300.483 140.752,300.195 141.333,300.219 141.333 C 300.444 141.333,305.967 139.237,307.250 138.665 C 313.135 136.039,317.728 132.755,319.254 130.083 C 319.515 129.625,319.860 129.078,320.019 128.869 C 320.741 127.917,320.559 125.499,319.715 124.836 C 319.297 124.507,317.573 124.386,316.583 124.616 " stroke="none" fill="#fcfcfc" fill-rule="evenodd"></path><path id="path1" d="M82.833 0.427 C 80.534 0.989,78.369 2.818,77.200 5.190 C 76.036 7.550,76.000 7.825,76.000 14.452 L 76.000 20.333 71.750 20.333 L 67.500 20.333 67.500 21.833 L 67.500 23.333 71.752 23.333 L 76.004 23.333 75.960 53.792 C 75.919 82.959,75.904 84.279,75.610 84.932 L 75.303 85.615 71.932 85.720 C 66.964 85.874,60.320 87.349,56.377 89.173 C 55.988 89.353,55.594 89.500,55.500 89.500 C 55.203 89.500,50.306 91.924,48.892 92.770 C 41.446 97.229,36.497 102.854,32.924 110.917 C 29.456 118.743,28.769 130.682,31.276 139.583 C 31.508 140.408,31.736 141.271,31.782 141.500 C 31.869 141.928,33.039 144.920,33.412 145.667 C 33.526 145.896,34.059 146.975,34.596 148.066 C 38.718 156.435,45.762 164.194,52.917 168.249 C 55.143 169.510,56.347 170.167,56.433 170.167 C 56.486 170.167,56.991 170.385,57.556 170.651 C 61.290 172.412,67.354 174.223,71.250 174.741 C 76.382 175.423,83.107 175.627,86.417 175.202 C 87.242 175.096,88.704 174.935,89.667 174.844 C 90.629 174.754,92.204 174.518,93.167 174.320 C 94.129 174.122,95.404 173.868,96.000 173.757 C 97.720 173.435,98.947 173.110,103.167 171.863 C 104.050 171.602,106.421 170.753,107.917 170.161 C 108.650 169.871,109.547 169.524,109.910 169.389 C 110.273 169.254,110.760 169.040,110.993 168.912 C 111.226 168.785,112.017 168.415,112.750 168.091 C 113.483 167.767,114.308 167.376,114.583 167.224 C 115.075 166.951,116.187 166.350,117.667 165.557 C 119.107 164.785,123.808 161.779,124.000 161.506 C 124.046 161.442,124.683 160.985,125.417 160.492 C 126.150 159.999,126.787 159.549,126.833 159.492 C 126.879 159.435,127.442 159.100,128.083 158.747 C 128.725 158.395,129.432 157.968,129.654 157.798 C 129.876 157.629,130.363 157.343,130.737 157.163 C 131.111 156.982,131.904 156.570,132.500 156.247 C 133.096 155.924,134.183 155.389,134.917 155.058 C 135.650 154.727,136.632 154.279,137.099 154.062 C 137.567 153.844,138.058 153.667,138.191 153.667 C 138.324 153.667,138.505 153.600,138.592 153.518 C 138.679 153.436,139.313 153.170,140.000 152.928 C 140.688 152.685,141.625 152.347,142.083 152.176 C 151.339 148.720,164.426 147.644,174.167 149.537 C 175.129 149.724,176.266 149.936,176.692 150.009 C 178.019 150.236,182.915 151.698,184.814 152.435 C 190.245 154.543,194.301 156.626,198.969 159.701 C 201.007 161.043,201.185 161.098,200.072 160.042 C 197.329 157.438,193.859 154.867,189.683 152.345 L 189.013 151.941 189.631 151.663 C 192.783 150.245,199.194 144.629,203.914 139.154 C 205.310 137.534,205.601 137.205,206.381 136.364 C 206.545 136.188,206.985 135.640,207.360 135.147 L 208.041 134.250 207.935 136.750 C 207.825 139.345,207.876 139.097,206.479 143.859 C 206.300 144.470,206.077 145.439,205.985 146.014 C 205.892 146.589,205.789 147.104,205.755 147.159 C 205.191 148.071,205.389 151.120,206.042 151.577 C 208.091 153.012,212.312 149.873,220.833 140.578 C 221.338 140.028,222.436 138.829,223.274 137.914 C 224.112 136.999,225.576 135.311,226.527 134.164 C 227.478 133.016,228.531 131.779,228.867 131.414 C 229.203 131.049,230.289 129.760,231.280 128.549 C 232.272 127.338,234.396 124.798,236.000 122.905 C 237.604 121.011,239.892 118.310,241.083 116.904 C 242.275 115.497,244.443 112.937,245.901 111.215 C 247.359 109.493,248.721 107.933,248.926 107.750 C 249.132 107.567,250.450 106.067,251.855 104.417 C 259.726 95.176,265.439 90.905,272.333 89.108 C 276.703 87.968,282.458 88.434,284.333 90.079 C 286.767 92.214,293.528 93.103,297.200 91.771 C 300.384 90.616,303.127 88.096,304.388 85.167 C 305.895 81.665,305.750 84.794,305.750 55.750 L 305.750 30.083 305.139 28.333 C 303.561 23.816,300.198 20.513,296.229 19.581 C 292.509 18.708,287.531 19.388,285.299 21.076 C 283.517 22.423,283.012 22.896,282.152 24.022 C 280.722 25.896,279.884 27.789,279.416 30.201 C 279.031 32.184,279.045 62.822,279.431 64.559 C 280.667 70.122,286.449 73.686,290.880 71.617 C 291.410 71.369,291.944 71.167,292.068 71.167 C 292.191 71.167,292.376 71.066,292.479 70.942 C 292.581 70.819,292.982 70.575,293.369 70.401 C 294.105 70.069,296.331 68.677,297.333 67.921 C 297.654 67.679,298.554 67.027,299.333 66.473 C 300.112 65.918,300.831 65.363,300.931 65.238 C 301.030 65.114,301.555 64.667,302.097 64.246 L 303.083 63.480 303.127 70.930 C 303.193 82.288,302.935 83.516,299.824 86.650 C 298.500 87.984,298.087 88.273,296.583 88.916 C 294.027 90.010,288.309 89.498,286.982 88.055 C 286.763 87.817,286.192 87.369,285.714 87.060 C 283.395 85.559,282.073 82.563,281.885 78.375 L 281.786 76.167 280.476 76.167 L 279.167 76.167 279.167 78.051 C 279.167 80.219,279.641 83.137,280.159 84.152 C 280.649 85.113,280.649 85.112,278.958 85.212 C 275.840 85.394,270.966 86.765,269.000 88.012 C 268.862 88.100,268.450 88.312,268.083 88.485 C 267.182 88.910,264.781 90.375,264.042 90.950 C 259.221 94.706,256.386 97.396,252.531 101.878 C 251.051 103.598,249.679 105.173,249.482 105.378 C 248.916 105.965,243.463 112.262,241.167 114.979 C 240.021 116.336,237.854 118.902,236.351 120.681 C 234.848 122.461,233.417 124.115,233.170 124.358 C 232.924 124.600,231.779 125.950,230.627 127.358 C 229.475 128.765,228.276 130.179,227.963 130.500 C 227.650 130.821,226.612 132.021,225.658 133.167 C 218.551 141.697,213.900 146.333,212.448 146.333 C 210.774 146.333,210.908 143.999,213.005 136.583 C 213.796 133.789,214.199 132.131,214.343 131.083 C 214.419 130.533,214.565 129.633,214.669 129.083 C 215.110 126.744,214.694 120.692,214.041 119.958 C 212.311 118.012,205.797 124.334,206.640 127.141 C 206.741 127.476,207.051 128.492,207.328 129.398 C 208.056 131.772,208.020 132.160,206.938 133.599 C 203.286 138.460,198.286 143.648,194.249 146.764 C 190.257 149.845,189.529 145.165,192.743 137.083 C 192.962 136.533,193.380 135.483,193.672 134.750 C 193.964 134.017,194.375 133.079,194.586 132.667 C 194.797 132.254,195.281 131.279,195.662 130.500 C 196.434 128.922,196.487 128.824,197.966 126.277 C 198.544 125.282,199.162 124.312,199.341 124.120 C 199.520 123.928,199.667 123.714,199.667 123.645 C 199.667 123.577,199.967 123.174,200.333 122.750 C 201.578 121.312,200.996 120.582,198.609 120.585 C 196.496 120.587,194.717 121.409,192.925 123.211 C 191.890 124.252,191.450 124.824,190.204 126.754 C 188.703 129.078,186.116 137.263,185.663 141.120 C 185.590 141.742,185.440 142.984,185.329 143.880 C 185.219 144.777,185.158 146.521,185.194 147.755 C 185.230 148.990,185.241 150.000,185.218 150.000 C 185.195 150.000,184.780 149.818,184.296 149.596 C 182.509 148.774,181.021 148.167,180.797 148.167 C 180.670 148.167,180.495 148.102,180.408 148.023 C 180.321 147.944,179.875 147.759,179.417 147.612 C 178.958 147.465,177.908 147.122,177.083 146.851 C 162.686 142.120,144.332 142.987,128.000 149.170 C 127.221 149.465,126.283 149.813,125.917 149.944 C 125.550 150.074,124.854 150.365,124.370 150.591 C 123.887 150.816,123.426 151.000,123.347 151.000 C 123.177 151.000,121.171 151.882,120.310 152.336 C 119.976 152.512,119.413 152.763,119.060 152.894 C 118.706 153.025,117.592 153.476,116.583 153.898 C 115.575 154.319,114.634 154.664,114.492 154.665 C 114.350 154.666,114.162 154.731,114.075 154.810 C 113.988 154.889,113.504 155.086,113.000 155.248 C 112.496 155.409,111.480 155.757,110.742 156.021 C 110.004 156.284,109.296 156.500,109.169 156.500 C 109.043 156.500,108.521 156.647,108.011 156.826 C 107.501 157.006,106.596 157.257,106.000 157.385 C 105.404 157.512,104.279 157.776,103.500 157.970 C 101.139 158.560,98.823 159.019,97.417 159.174 C 96.683 159.255,95.221 159.431,94.167 159.565 C 84.466 160.795,75.395 159.058,68.750 154.697 C 66.658 153.324,61.542 148.278,60.267 146.330 C 59.819 145.644,59.256 144.783,59.017 144.417 C 58.544 143.689,57.925 142.464,57.260 140.938 C 56.860 140.021,56.684 139.469,56.098 137.292 C 54.910 132.881,55.607 126.770,57.851 121.917 C 62.219 112.470,74.234 106.543,83.171 109.427 C 90.703 111.856,94.901 119.207,92.187 125.212 C 92.011 125.599,91.750 126.179,91.607 126.500 C 91.265 127.262,90.574 128.425,90.069 129.087 C 89.525 129.800,89.544 129.833,90.490 129.833 C 92.292 129.833,96.646 128.008,98.417 126.510 C 99.696 125.429,102.571 122.390,103.050 121.614 C 105.667 117.374,106.500 114.703,106.500 110.549 C 106.500 103.833,101.963 96.395,95.195 92.015 C 94.492 91.560,93.842 91.123,93.750 91.044 C 93.658 90.966,93.171 90.676,92.667 90.401 C 92.162 90.125,91.600 89.817,91.417 89.716 C 88.535 88.124,82.752 86.277,79.500 85.910 C 78.121 85.754,78.157 85.791,78.472 84.885 C 78.727 84.149,78.754 81.585,78.795 53.708 L 78.839 23.333 84.253 23.333 L 89.667 23.333 89.667 21.833 L 89.667 20.333 84.244 20.333 L 78.822 20.333 78.869 14.125 L 78.917 7.917 79.411 6.917 C 80.529 4.651,81.980 3.535,84.292 3.162 L 85.667 2.940 85.667 1.553 L 85.667 0.167 84.708 0.185 C 84.181 0.195,83.337 0.304,82.833 0.427 M192.375 38.375 L 192.417 76.583 193.792 76.632 L 195.167 76.680 195.167 54.284 L 195.167 31.889 195.962 31.153 C 196.857 30.324,197.948 29.431,199.411 28.331 C 199.957 27.920,200.520 27.471,200.661 27.333 C 201.019 26.985,204.180 24.844,205.131 24.306 C 205.563 24.061,205.992 23.799,206.083 23.722 C 209.177 21.142,213.702 22.267,215.667 26.105 L 216.250 27.245 216.333 51.914 L 216.417 76.583 217.708 76.632 L 219.000 76.681 219.000 51.930 C 219.000 24.511,219.096 26.925,217.903 24.402 C 217.177 22.867,215.375 21.035,213.833 20.264 C 210.310 18.501,207.323 19.260,201.060 23.508 C 199.620 24.485,196.230 27.128,195.780 27.625 C 195.593 27.831,195.378 28.000,195.303 28.000 C 195.228 28.000,195.167 21.738,195.167 14.083 L 195.167 0.167 193.750 0.167 L 192.333 0.167 192.375 38.375 M228.833 5.917 L 228.833 11.667 230.167 11.667 L 231.500 11.667 231.500 5.917 L 231.500 0.167 230.167 0.167 L 228.833 0.167 228.833 5.917 M292.824 13.594 C 292.441 14.056,292.888 14.328,295.250 15.068 C 295.970 15.294,296.198 15.381,297.313 15.856 C 297.714 16.027,298.112 16.167,298.197 16.167 C 298.510 16.167,302.435 17.973,303.164 18.452 C 303.483 18.662,303.806 18.833,303.881 18.833 C 304.051 18.833,306.491 20.509,307.497 21.317 C 309.110 22.613,312.285 25.991,313.172 27.355 C 313.670 28.122,314.124 28.787,314.180 28.833 C 314.235 28.879,314.468 29.292,314.696 29.750 C 314.925 30.208,315.196 30.733,315.299 30.917 C 319.332 38.078,319.330 52.880,315.293 67.417 C 315.115 68.058,314.873 68.958,314.756 69.417 C 314.510 70.377,313.631 73.007,312.750 75.417 C 312.415 76.333,312.064 77.346,311.970 77.667 C 311.876 77.987,311.742 78.325,311.673 78.417 C 311.604 78.508,311.337 79.143,311.080 79.826 C 310.822 80.509,310.512 81.259,310.390 81.493 C 310.268 81.726,310.168 82.031,310.168 82.171 C 310.167 82.311,310.066 82.574,309.944 82.755 C 309.821 82.935,309.476 83.678,309.176 84.405 C 308.877 85.132,308.573 85.844,308.500 85.988 C 308.428 86.132,308.145 86.737,307.873 87.333 C 307.097 89.029,305.077 93.098,304.191 94.750 C 303.749 95.575,303.025 96.925,302.583 97.750 C 302.141 98.575,301.620 99.513,301.425 99.833 C 301.231 100.154,300.977 100.604,300.862 100.833 C 300.747 101.063,300.374 101.715,300.034 102.283 C 299.695 102.850,299.093 103.863,298.698 104.533 C 298.302 105.202,297.570 106.388,297.070 107.167 C 296.570 107.946,295.885 109.050,295.548 109.620 C 294.983 110.575,294.882 110.662,294.259 110.739 C 293.248 110.863,283.270 111.139,272.833 111.333 C 243.094 111.885,245.287 111.795,245.364 112.464 L 245.417 112.917 269.500 113.001 C 282.746 113.047,293.507 113.103,293.413 113.126 C 293.319 113.148,293.096 113.448,292.918 113.792 C 292.739 114.135,292.409 114.717,292.184 115.083 C 290.943 117.108,281.500 136.147,281.500 136.625 C 281.500 136.691,281.317 137.121,281.093 137.581 C 280.634 138.523,279.942 140.062,279.255 141.667 C 279.000 142.262,278.656 143.050,278.490 143.417 C 278.325 143.783,278.027 144.496,277.828 145.000 C 277.629 145.504,277.387 146.104,277.290 146.333 C 277.194 146.563,276.988 147.087,276.832 147.500 C 276.677 147.912,276.236 149.037,275.852 150.000 C 273.769 155.223,272.610 158.685,271.948 161.667 C 269.806 171.313,270.305 176.218,274.120 183.000 C 280.256 193.909,293.566 195.905,304.167 187.504 C 306.801 185.417,310.425 181.666,311.750 179.655 C 312.200 178.974,312.615 178.379,312.673 178.333 C 312.731 178.287,313.068 177.725,313.421 177.083 C 313.775 176.442,314.114 175.879,314.175 175.833 C 314.664 175.465,317.119 170.051,317.864 167.695 C 319.244 163.330,318.280 156.717,315.906 154.273 C 314.376 152.697,310.914 154.226,312.293 155.869 C 312.926 156.623,313.833 157.942,313.833 158.108 C 313.833 158.184,314.016 158.621,314.238 159.081 C 316.450 163.646,315.972 169.488,312.941 174.917 C 312.582 175.558,312.173 176.308,312.032 176.583 C 310.271 180.004,305.812 184.504,302.204 186.501 C 301.954 186.639,301.487 186.914,301.167 187.111 C 300.021 187.815,296.740 189.391,296.167 189.513 C 295.846 189.581,295.021 189.763,294.333 189.916 C 288.702 191.175,283.222 189.010,280.061 184.278 C 279.623 183.621,279.175 182.993,279.068 182.882 C 277.628 181.406,276.670 177.714,276.547 173.167 C 276.346 165.755,277.695 159.309,281.587 149.083 C 281.796 148.533,282.131 147.633,282.332 147.083 C 282.533 146.533,282.878 145.687,283.099 145.203 C 283.319 144.719,283.500 144.228,283.500 144.112 C 283.500 143.995,283.564 143.829,283.643 143.742 C 283.721 143.655,284.029 142.989,284.327 142.262 C 284.624 141.535,284.930 140.822,285.007 140.678 C 285.083 140.534,285.387 139.854,285.683 139.167 C 287.087 135.901,292.794 124.355,294.910 120.500 C 295.337 119.721,295.913 118.633,296.190 118.083 C 296.466 117.533,296.949 116.633,297.262 116.083 C 297.576 115.533,297.924 114.896,298.036 114.667 C 298.147 114.438,298.411 113.969,298.621 113.625 L 299.004 113.000 325.877 112.998 C 352.103 112.996,352.775 112.988,353.793 112.669 C 356.432 111.841,358.045 109.750,356.715 108.879 C 356.138 108.501,352.099 108.505,346.417 108.888 C 344.308 109.031,339.133 109.266,334.917 109.411 C 330.700 109.556,322.225 109.863,316.083 110.092 C 309.942 110.322,303.894 110.507,302.645 110.505 L 300.373 110.500 300.851 109.625 C 301.114 109.144,301.459 108.487,301.617 108.167 C 301.776 107.846,302.028 107.396,302.177 107.167 C 302.423 106.791,303.123 105.498,304.797 102.333 C 306.902 98.352,308.552 94.960,309.742 92.167 C 309.996 91.571,310.304 90.858,310.428 90.583 C 311.053 89.193,311.999 86.900,312.000 86.775 C 312.000 86.697,312.111 86.397,312.246 86.109 C 312.550 85.462,313.207 83.712,313.853 81.833 C 314.120 81.054,314.450 80.180,314.586 79.891 C 314.722 79.603,314.833 79.251,314.833 79.109 C 314.833 78.968,315.011 78.342,315.228 77.718 C 315.865 75.889,316.953 72.115,317.502 69.833 C 317.667 69.146,317.953 68.021,318.138 67.333 C 320.694 57.822,321.854 47.576,320.949 42.500 C 320.794 41.629,320.556 40.279,320.420 39.500 C 318.873 30.615,313.377 23.342,304.422 18.330 C 303.266 17.683,302.117 17.078,301.869 16.987 C 301.620 16.895,301.042 16.638,300.583 16.416 C 298.999 15.648,296.933 14.803,294.132 13.777 C 293.198 13.434,292.982 13.404,292.824 13.594 M26.333 19.586 C 25.046 19.902,22.343 21.219,20.556 22.401 C 18.913 23.488,17.008 24.878,15.167 26.334 L 13.083 27.981 13.039 24.157 L 12.994 20.333 11.664 20.333 L 10.333 20.333 10.333 48.500 L 10.333 76.667 11.667 76.667 L 13.000 76.667 13.002 54.208 L 13.005 31.750 14.877 30.264 C 15.907 29.446,16.862 28.656,17.000 28.508 C 17.137 28.359,18.027 27.678,18.976 26.994 C 20.461 25.923,21.152 25.456,23.094 24.209 C 26.932 21.745,29.713 21.740,32.150 24.194 C 34.041 26.100,34.167 26.717,34.167 34.118 L 34.167 40.000 35.596 40.000 L 37.025 40.000 36.947 33.792 C 36.864 27.161,36.802 26.590,35.971 24.806 C 34.115 20.820,30.120 18.657,26.333 19.586 M51.917 19.578 C 47.531 20.362,44.134 23.525,42.443 28.400 L 41.917 29.917 41.917 48.500 L 41.917 67.083 42.435 68.502 C 43.689 71.932,45.423 74.214,48.048 75.889 C 52.119 78.486,60.016 78.076,63.299 75.097 C 65.666 72.947,67.385 70.329,67.847 68.167 C 68.435 65.416,68.489 64.793,68.494 60.625 L 68.500 56.333 67.083 56.333 L 65.667 56.333 65.667 60.885 C 65.667 64.955,65.630 65.585,65.316 66.843 C 62.545 77.957,46.482 77.299,44.731 66.000 C 44.569 64.953,44.510 62.052,44.506 54.875 L 44.500 45.167 56.511 45.167 L 68.522 45.167 68.454 38.042 C 68.377 30.032,68.293 29.346,67.061 26.714 C 64.384 20.991,58.781 18.351,51.917 19.578 M110.000 19.586 C 108.633 19.922,106.438 21.016,104.125 22.516 C 102.593 23.510,98.196 26.788,97.409 27.525 C 97.129 27.786,96.848 28.000,96.784 28.000 C 96.719 28.000,96.667 26.275,96.667 24.167 L 96.667 20.333 95.333 20.333 L 94.000 20.333 94.000 48.500 L 94.000 76.667 95.333 76.667 L 96.667 76.667 96.676 54.208 L 96.686 31.750 97.665 30.954 C 98.204 30.516,99.344 29.620,100.198 28.963 C 101.051 28.305,101.825 27.679,101.917 27.571 C 102.497 26.887,106.576 24.275,108.833 23.142 C 112.831 21.135,116.778 23.235,117.737 27.879 C 117.945 28.887,118.000 30.284,118.000 34.576 L 118.000 40.000 119.333 40.000 L 120.667 40.000 120.666 34.292 C 120.666 30.084,120.604 28.233,120.428 27.250 C 119.491 21.991,114.661 18.442,110.000 19.586 M135.583 19.581 C 133.185 20.004,131.643 20.851,129.667 22.831 C 128.213 24.287,126.668 26.451,126.666 27.037 C 126.665 27.154,126.567 27.438,126.448 27.667 C 125.559 29.377,125.500 30.692,125.503 48.532 C 125.506 66.094,125.544 67.069,126.299 68.931 C 126.482 69.381,126.726 70.000,126.842 70.306 C 126.958 70.612,127.137 70.949,127.240 71.056 C 127.343 71.163,127.645 71.625,127.911 72.083 C 129.062 74.072,131.461 75.975,134.043 76.949 L 135.503 77.500 138.765 77.500 C 143.819 77.500,146.722 76.205,149.201 72.846 C 151.604 69.588,152.167 67.292,152.167 60.738 L 152.167 56.333 150.849 56.333 L 149.531 56.333 149.455 60.958 C 149.338 68.150,148.289 70.800,144.590 73.252 C 141.577 75.249,135.239 75.274,133.087 73.296 C 132.959 73.179,132.543 72.858,132.162 72.583 C 131.259 71.932,129.980 70.298,129.335 68.971 C 128.263 66.764,128.167 65.596,128.167 54.801 L 128.167 45.167 140.167 45.167 L 152.167 45.167 152.167 38.603 C 152.167 31.679,151.983 29.506,151.249 27.750 C 148.505 21.187,142.938 18.284,135.583 19.581 M167.857 19.580 C 165.893 19.907,163.564 21.175,161.964 22.789 C 160.767 23.997,159.000 26.591,159.000 27.141 C 159.000 27.265,158.898 27.603,158.773 27.891 C 158.649 28.180,158.458 28.634,158.350 28.899 C 157.610 30.705,157.722 36.138,158.533 37.807 C 159.731 40.270,162.397 43.261,165.250 45.342 C 165.983 45.876,166.803 46.487,167.071 46.699 C 167.631 47.141,169.769 48.491,170.750 49.022 C 171.693 49.532,175.360 52.003,175.664 52.333 C 175.803 52.484,176.290 52.903,176.746 53.262 C 178.922 54.979,180.922 57.477,181.498 59.199 C 182.211 61.327,181.844 66.173,180.777 68.714 C 177.916 75.528,168.541 77.001,163.394 71.444 C 162.465 70.442,162.184 70.006,161.606 68.667 C 161.468 68.346,161.222 67.783,161.062 67.417 C 160.805 66.831,160.761 66.013,160.703 60.708 L 160.638 54.667 159.215 54.667 L 157.792 54.667 157.874 60.708 C 157.964 67.335,157.987 67.498,159.166 70.106 C 160.507 73.071,163.258 75.813,165.833 76.751 C 167.814 77.472,168.013 77.500,171.207 77.500 C 177.310 77.500,181.026 75.110,183.387 69.667 C 184.556 66.971,184.949 60.921,184.120 58.378 C 183.009 54.971,179.332 51.017,174.361 47.883 C 173.750 47.497,173.171 47.114,173.073 47.031 C 172.976 46.948,172.550 46.686,172.126 46.449 C 167.382 43.801,161.747 38.729,160.892 36.339 C 160.646 35.650,160.602 32.240,160.821 30.731 C 161.184 28.219,163.014 25.348,165.159 23.922 C 167.350 22.465,167.495 22.429,171.167 22.422 L 174.417 22.417 175.917 23.166 C 179.641 25.025,181.575 28.364,181.783 33.292 L 181.877 35.500 183.188 35.500 L 184.500 35.500 184.494 33.458 C 184.487 30.618,184.094 28.725,183.051 26.500 C 181.564 23.328,177.853 20.138,175.177 19.731 C 174.851 19.682,174.283 19.574,173.917 19.491 C 172.984 19.282,169.326 19.335,167.857 19.580 M260.154 19.587 C 257.618 20.203,252.143 23.620,247.971 27.191 C 247.452 27.636,246.983 28.000,246.930 28.000 C 246.877 28.000,246.833 26.275,246.833 24.167 L 246.833 20.333 245.500 20.333 L 244.167 20.333 244.167 48.500 L 244.167 76.667 245.500 76.667 L 246.833 76.667 246.833 54.261 L 246.833 31.855 247.875 30.939 C 248.448 30.436,249.592 29.513,250.417 28.888 C 251.242 28.263,251.992 27.671,252.083 27.571 C 252.362 27.267,255.845 24.852,256.889 24.237 C 261.662 21.429,264.943 21.821,267.019 25.449 C 267.943 27.065,267.901 25.918,267.995 52.083 L 268.083 76.583 269.458 76.632 L 270.833 76.680 270.833 52.950 C 270.833 36.557,270.776 28.786,270.649 27.818 C 269.915 22.243,265.021 18.405,260.154 19.587 M228.837 44.458 C 228.839 59.318,228.903 69.017,229.003 69.713 C 229.590 73.770,233.223 77.315,236.958 77.475 L 238.333 77.534 238.333 76.196 L 238.333 74.857 237.419 74.743 C 235.482 74.501,233.487 73.141,232.497 71.385 C 231.473 69.571,231.500 70.320,231.500 44.152 L 231.500 20.333 230.167 20.333 L 228.833 20.333 228.837 44.458 M295.667 22.473 C 299.530 23.496,302.479 27.147,302.982 31.528 C 303.102 32.580,303.167 37.798,303.167 46.536 L 303.167 59.932 301.881 60.924 C 301.175 61.470,300.413 62.093,300.190 62.309 C 299.967 62.524,299.214 63.114,298.517 63.618 C 297.820 64.123,297.063 64.678,296.833 64.851 C 295.886 65.568,294.510 66.500,294.400 66.500 C 294.335 66.500,294.044 66.681,293.755 66.902 C 293.140 67.370,290.605 68.658,289.457 69.085 C 286.610 70.143,283.082 67.698,282.152 64.022 C 281.615 61.898,281.747 31.715,282.301 29.840 C 282.811 28.119,283.532 26.756,284.643 25.417 C 286.912 22.683,291.667 21.413,295.667 22.473 M58.000 22.500 C 58.889 22.669,61.013 23.636,61.491 24.089 C 62.847 25.376,64.000 26.652,64.000 26.867 C 64.000 26.944,64.182 27.295,64.404 27.647 C 65.449 29.302,65.666 30.891,65.667 36.875 L 65.667 42.333 55.083 42.333 L 44.500 42.333 44.503 37.375 C 44.507 30.566,44.750 29.209,46.436 26.566 C 47.622 24.708,50.376 22.748,52.167 22.487 C 53.376 22.311,57.046 22.319,58.000 22.500 M143.543 23.146 C 148.180 25.487,149.330 28.140,149.454 36.792 L 149.533 42.333 138.836 42.333 L 128.139 42.333 128.219 36.792 C 128.325 29.345,128.772 27.707,131.410 25.083 C 133.693 22.811,135.117 22.330,139.361 22.395 L 142.138 22.437 143.543 23.146 M45.880 83.994 C 34.666 85.008,24.032 92.669,18.688 103.583 C 17.764 105.470,17.000 107.147,17.000 107.288 C 17.000 107.354,16.819 107.898,16.597 108.496 C 14.418 114.382,13.491 124.439,14.577 130.423 C 15.071 133.142,15.203 133.780,15.528 135.000 C 15.711 135.688,15.960 136.625,16.080 137.083 C 19.162 148.788,29.045 160.732,41.250 167.504 C 43.406 168.700,47.708 170.765,49.500 171.463 C 50.188 171.731,51.164 172.111,51.670 172.308 C 52.962 172.812,53.261 172.737,52.167 172.184 C 50.301 171.241,49.738 170.927,49.234 170.552 C 48.951 170.340,48.670 170.167,48.612 170.167 C 48.553 170.167,48.137 169.923,47.687 169.625 C 43.597 166.915,41.060 164.686,36.812 160.072 C 35.360 158.494,32.906 154.962,31.089 151.833 C 29.596 149.262,28.618 147.203,26.896 143.000 C 23.745 135.309,23.722 121.717,26.846 112.472 C 30.667 101.166,38.877 92.586,50.731 87.514 C 53.351 86.393,57.251 85.000,57.770 85.000 C 57.909 85.000,58.186 84.911,58.386 84.802 C 59.488 84.201,50.216 83.602,45.880 83.994 M18.391 95.344 C 17.644 95.416,16.744 95.556,16.391 95.653 C 16.039 95.751,15.541 95.832,15.286 95.832 C 15.031 95.833,14.206 96.062,13.453 96.341 C 7.981 98.370,4.706 101.421,2.234 106.792 C 1.739 107.869,1.333 108.840,1.333 108.951 C 1.333 109.061,1.153 109.811,0.932 110.618 C -1.234 118.518,0.691 129.571,5.801 138.582 C 6.262 139.395,8.381 142.743,8.492 142.833 C 8.548 142.879,9.172 143.715,9.878 144.691 C 12.782 148.701,19.805 155.205,23.875 157.651 C 24.729 158.165,24.666 158.029,23.482 156.803 C 22.922 156.224,21.864 155.000,21.132 154.083 C 20.399 153.167,19.657 152.247,19.483 152.040 C 15.375 147.160,11.589 138.010,10.406 130.108 C 9.215 122.147,10.298 112.924,13.169 106.583 C 13.793 105.205,15.705 101.423,15.823 101.333 C 15.883 101.287,16.145 100.875,16.406 100.417 C 16.927 99.497,17.746 98.368,19.205 96.555 C 20.216 95.299,20.296 95.153,19.958 95.189 C 19.844 95.202,19.139 95.271,18.391 95.344 M75.111 120.610 L 75.222 126.554 73.700 126.446 C 72.863 126.386,70.900 126.288,69.339 126.226 L 66.500 126.115 66.500 128.224 L 66.500 130.333 67.042 130.330 C 67.340 130.328,69.233 130.217,71.250 130.084 C 73.267 129.951,74.985 129.840,75.069 129.838 C 75.161 129.835,75.178 134.941,75.111 142.667 L 75.001 155.500 77.110 155.500 L 79.220 155.500 79.112 151.958 C 78.902 145.052,78.778 129.833,78.931 129.838 C 79.015 129.840,80.771 129.951,82.833 130.083 C 84.896 130.216,86.827 130.326,87.125 130.329 L 87.667 130.333 87.667 128.224 L 87.667 126.115 84.792 126.226 C 83.210 126.287,81.211 126.385,80.348 126.445 L 78.779 126.553 78.894 122.318 C 78.957 119.989,79.056 117.315,79.113 116.375 L 79.217 114.667 77.108 114.667 L 74.999 114.667 75.111 120.610 M387.917 117.817 C 386.773 117.965,386.598 118.012,384.667 118.701 C 378.579 120.873,375.540 126.199,376.744 132.583 L 377.027 134.083 376.472 134.550 C 376.166 134.807,375.504 135.326,375.000 135.704 C 374.496 136.082,373.971 136.511,373.833 136.657 C 373.696 136.804,372.908 137.405,372.083 137.993 C 371.258 138.581,370.338 139.272,370.038 139.529 C 367.666 141.560,362.815 142.454,360.731 141.244 C 359.037 140.261,358.509 139.024,358.378 135.734 C 358.247 132.428,358.728 130.797,360.906 127.167 C 363.870 122.227,364.263 121.148,363.581 119.828 C 362.677 118.081,360.142 118.451,355.083 121.066 C 350.657 123.355,347.709 124.597,345.173 125.240 L 343.680 125.618 343.478 124.684 C 342.864 121.845,339.793 119.931,336.512 120.343 C 333.127 120.768,332.248 121.556,332.253 124.157 C 332.259 126.597,333.057 127.713,335.152 128.211 C 335.844 128.375,336.000 128.478,336.000 128.768 C 336.000 129.464,334.662 133.333,334.422 133.333 C 334.294 133.333,333.378 134.056,332.386 134.940 C 330.454 136.662,325.917 140.426,324.777 141.253 C 324.395 141.530,323.671 142.070,323.167 142.454 C 320.717 144.320,320.296 144.627,319.390 145.205 C 318.855 145.548,317.604 146.354,316.612 146.997 C 315.619 147.640,314.748 148.167,314.676 148.167 C 314.604 148.167,314.362 148.311,314.138 148.487 C 313.915 148.663,312.948 149.193,311.991 149.665 C 311.033 150.137,310.120 150.593,309.960 150.678 C 309.673 150.832,308.861 151.137,307.583 151.570 C 306.921 151.795,306.644 151.848,304.423 152.173 C 300.272 152.779,298.136 149.895,299.080 144.961 C 299.475 142.899,299.630 142.643,300.766 142.191 C 301.307 141.975,302.289 141.581,302.947 141.316 C 303.605 141.050,304.225 140.833,304.324 140.833 C 304.628 140.833,308.918 138.774,312.048 137.126 C 317.305 134.356,321.833 129.143,321.833 125.860 C 321.833 120.586,316.613 118.196,310.250 120.558 C 308.136 121.342,304.065 124.591,302.908 126.417 C 302.734 126.692,302.545 126.954,302.490 127.000 C 302.371 127.097,300.422 130.236,299.798 131.333 C 293.615 142.210,293.467 151.494,299.453 152.924 C 301.523 153.419,306.039 153.062,308.090 152.241 C 308.651 152.017,309.159 151.833,309.220 151.833 C 309.679 151.833,314.862 149.250,315.729 148.588 C 316.033 148.356,316.323 148.167,316.374 148.167 C 316.425 148.167,316.911 147.885,317.455 147.542 C 317.999 147.198,318.918 146.617,319.498 146.250 C 320.077 145.883,320.783 145.393,321.067 145.159 C 321.351 144.926,322.296 144.219,323.167 143.588 C 324.037 142.957,324.825 142.357,324.917 142.256 C 325.008 142.154,325.346 141.890,325.667 141.669 C 326.950 140.784,329.774 138.348,331.568 136.578 C 333.279 134.891,334.375 134.166,333.945 135.008 C 333.830 135.233,333.635 135.679,333.513 136.000 C 333.390 136.321,333.074 137.090,332.811 137.708 C 332.207 139.130,331.376 141.075,331.048 141.833 C 330.790 142.430,328.592 147.041,328.343 147.509 C 328.267 147.651,327.663 148.813,327.000 150.092 C 326.337 151.371,325.739 152.492,325.671 152.583 C 325.370 152.993,324.279 155.109,324.165 155.506 C 323.798 156.786,325.279 156.898,327.171 155.733 C 329.234 154.462,330.145 153.433,331.809 150.493 C 332.196 149.809,332.804 148.800,333.160 148.250 C 333.517 147.700,334.119 146.725,334.499 146.083 C 334.878 145.442,335.553 144.354,335.997 143.667 C 336.441 142.979,336.973 142.117,337.178 141.750 C 337.709 140.801,337.882 140.503,338.342 139.750 C 338.947 138.759,339.274 138.165,339.659 137.356 C 339.849 136.956,340.138 136.431,340.301 136.189 C 341.029 135.112,343.331 129.592,343.336 128.913 C 343.344 127.622,343.920 126.593,344.759 126.369 C 346.383 125.936,348.609 125.286,350.084 124.814 C 350.909 124.549,351.695 124.333,351.830 124.333 C 351.965 124.333,352.564 124.155,353.163 123.938 C 356.555 122.703,356.420 122.644,355.768 125.083 C 354.284 130.634,354.008 132.048,354.003 134.112 C 353.987 141.073,358.414 144.804,364.583 143.028 C 366.049 142.606,369.828 140.800,370.272 140.310 C 370.426 140.139,370.608 140.000,370.676 140.000 C 371.017 140.000,376.011 136.174,376.734 135.358 C 377.173 134.863,377.280 134.905,377.405 135.625 C 377.465 135.969,377.690 136.775,377.904 137.417 C 378.118 138.058,378.370 138.883,378.464 139.250 C 378.687 140.125,379.438 142.232,379.844 143.123 C 380.022 143.512,380.167 143.867,380.167 143.912 C 380.167 143.958,380.392 144.459,380.667 145.027 C 380.942 145.595,381.167 146.119,381.167 146.191 C 381.167 146.264,381.354 146.733,381.583 147.234 C 381.813 147.735,382.000 148.248,382.000 148.373 C 382.000 148.498,382.065 148.671,382.144 148.758 C 382.223 148.845,382.368 149.142,382.466 149.417 C 382.565 149.692,382.827 150.404,383.048 151.000 C 383.270 151.596,383.652 152.621,383.896 153.278 C 384.140 153.935,384.450 154.685,384.585 154.945 C 384.721 155.204,384.832 155.482,384.832 155.563 C 384.834 155.735,385.946 158.625,386.165 159.025 C 388.163 162.678,389.251 172.880,387.993 176.167 C 387.800 176.671,387.580 177.283,387.504 177.526 C 386.472 180.834,382.161 184.828,378.333 186.021 C 370.574 188.438,362.236 182.106,360.640 172.583 C 359.968 168.569,360.821 161.082,362.264 158.333 C 362.384 158.104,362.636 157.579,362.823 157.167 C 364.708 153.014,367.864 150.647,372.386 149.995 C 373.653 149.813,373.833 149.644,373.833 148.643 C 373.833 147.345,373.205 147.236,370.333 148.040 C 367.970 148.702,364.396 151.843,362.848 154.620 C 361.266 157.457,361.056 157.993,360.178 161.417 C 359.161 165.382,359.316 172.119,360.518 176.166 C 363.587 186.508,374.159 190.788,383.250 185.370 C 390.238 181.204,393.610 172.217,391.767 162.667 C 391.617 161.887,391.421 160.725,391.331 160.083 C 391.159 158.848,390.538 156.080,389.966 154.000 C 389.777 153.313,389.587 152.563,389.545 152.333 C 389.456 151.852,388.247 147.865,387.927 147.000 C 382.942 133.495,382.582 127.857,386.398 123.067 C 390.128 118.385,396.640 119.038,398.825 124.313 C 399.069 124.903,399.366 125.052,399.746 124.773 C 400.105 124.511,399.936 124.098,398.679 122.167 C 396.188 118.338,393.212 117.135,387.917 117.817 M255.746 120.393 C 254.919 120.608,253.869 120.949,253.413 121.151 C 252.957 121.353,252.546 121.522,252.500 121.527 C 252.417 121.536,252.217 121.642,250.167 122.766 C 245.415 125.371,240.373 130.340,238.091 134.667 C 237.338 136.094,236.333 138.200,236.333 138.351 C 236.333 138.442,236.216 138.743,236.073 139.020 C 235.596 139.942,234.667 143.973,234.667 145.118 C 234.667 150.860,239.343 154.122,246.000 153.023 C 251.027 152.193,253.882 150.166,257.653 144.746 C 258.168 144.006,258.215 144.071,257.899 145.091 C 256.794 148.660,259.792 152.333,263.810 152.333 C 268.203 152.333,271.223 149.936,276.298 142.417 C 276.731 141.775,277.291 140.980,277.543 140.651 C 277.794 140.321,278.000 139.996,278.000 139.928 C 278.000 139.860,278.386 139.230,278.857 138.527 C 280.526 136.039,280.667 135.823,280.667 135.736 C 280.667 135.688,280.970 135.201,281.341 134.655 C 281.987 133.704,282.061 133.333,281.603 133.333 C 281.272 133.333,280.820 133.929,279.520 136.083 C 277.439 139.532,276.720 140.671,276.386 141.050 C 276.208 141.252,275.706 141.956,275.269 142.615 C 274.832 143.273,274.311 143.990,274.112 144.207 C 273.913 144.424,273.308 145.144,272.768 145.807 C 268.282 151.311,263.498 152.353,262.121 148.127 C 261.453 146.074,261.691 144.762,263.230 142.031 C 264.248 140.224,264.299 140.122,264.419 139.639 C 264.803 138.092,261.846 138.191,260.063 139.785 C 259.597 140.201,258.657 141.473,258.483 141.921 C 258.303 142.386,256.078 145.544,255.287 146.457 C 253.013 149.084,250.804 150.532,247.417 151.617 C 246.451 151.926,242.195 151.991,241.500 151.707 C 237.703 150.154,237.071 143.939,240.140 138.334 C 241.311 136.196,245.591 131.950,247.958 130.576 C 248.256 130.403,248.500 130.214,248.500 130.155 C 248.500 129.442,254.332 127.705,257.762 127.397 C 261.157 127.092,261.472 129.535,258.537 133.409 C 257.693 134.521,257.589 134.893,258.098 134.966 C 258.485 135.022,259.601 133.675,261.451 130.917 C 264.361 126.579,265.021 122.997,263.223 121.304 C 261.908 120.066,258.567 119.659,255.746 120.393 M319.715 124.836 C 320.559 125.499,320.741 127.917,320.019 128.869 C 319.860 129.078,319.515 129.625,319.254 130.083 C 317.728 132.755,313.135 136.039,307.250 138.665 C 305.967 139.237,300.444 141.333,300.219 141.333 C 300.195 141.333,300.483 140.752,300.858 140.042 C 301.233 139.331,301.657 138.525,301.801 138.250 C 304.030 133.970,309.314 128.351,313.417 125.897 C 315.598 124.593,318.734 124.064,319.715 124.836 " stroke="none" fill="#3cc4cc" fill-rule="evenodd"></path></g></svg>