<?xml version="1.0" standalone="no"?>
<!DOCTYPE svg PUBLIC "-//W3C//DTD SVG 20010904//EN"
 "http://www.w3.org/TR/2001/REC-SVG-20010904/DTD/svg10.dtd">
<svg version="1.0" xmlns="http://www.w3.org/2000/svg"
 width="2679.000000pt" height="904.000000pt" viewBox="0 0 2679.000000 904.000000"
 preserveAspectRatio="xMidYMid meet">

<g transform="translate(0.000000,904.000000) scale(0.100000,-0.100000)"
fill="#000000" stroke="none">
<path d="M290 4830 l0 -1300 230 0 230 0 0 535 0 535 113 0 113 0 225 -532
225 -533 267 -3 c147 -1 267 0 267 2 0 2 -111 249 -246 548 -135 299 -248 548
-250 554 -3 7 10 17 30 24 103 34 253 178 312 300 54 112 59 148 59 410 0 260
-6 301 -57 405 -61 122 -189 245 -305 294 -129 55 -130 55 -690 59 l-523 3 0
-1301z m975 830 c56 -27 70 -40 97 -90 20 -40 23 -61 26 -184 2 -91 -1 -155
-9 -184 -16 -59 -81 -126 -134 -141 -24 -6 -133 -11 -267 -11 l-228 0 0 315 0
315 238 0 c213 0 241 -2 277 -20z"/>
<path d="M4366 6114 c-178 -39 -278 -146 -312 -333 -7 -42 -13 -147 -14 -233
l0 -158 -90 0 -90 0 0 -200 0 -200 90 0 90 0 0 -730 0 -730 230 0 230 0 0 730
0 730 155 0 155 0 0 200 0 200 -156 0 -157 0 5 113 c8 181 23 196 191 197
l117 0 0 215 0 215 -187 -1 c-125 0 -211 -6 -257 -15z"/>
<path d="M9720 4830 l0 -1300 235 0 234 0 3 653 3 652 27 41 c47 73 80 89 178
89 100 0 144 -21 188 -89 l27 -41 3 -652 3 -653 235 0 235 0 -4 718 c-3 638
-5 724 -20 781 -51 190 -165 320 -320 365 -69 20 -194 23 -257 6 -111 -30
-209 -107 -269 -211 l-31 -54 0 498 0 497 -235 0 -235 0 0 -1300z"/>
<path d="M11480 5895 l0 -235 230 0 230 0 0 235 0 235 -230 0 -230 0 0 -235z"/>
<path d="M16231 6088 c5 -24 108 -596 229 -1273 121 -676 223 -1242 226 -1257
l6 -28 222 0 223 0 55 253 c31 138 116 527 189 864 74 337 137 609 140 605 3
-4 81 -371 173 -817 93 -445 172 -831 178 -857 l10 -48 224 0 c123 0 224 2
224 5 0 2 104 581 230 1286 127 704 230 1287 230 1295 0 12 -36 14 -237 12
l-237 -3 -115 -878 c-64 -483 -118 -872 -120 -865 -3 7 -91 402 -196 878
l-190 865 -187 3 -186 2 -4 -22 c-27 -138 -384 -1748 -385 -1737 -2 8 -52 397
-113 864 -61 468 -113 860 -115 873 l-5 22 -239 0 -239 0 9 -42z"/>
<path d="M20780 5660 l0 -270 -85 0 -85 0 0 -210 0 -210 84 0 85 0 4 -542 c4
-580 5 -593 57 -701 28 -60 101 -132 160 -159 83 -38 148 -48 318 -48 l162 0
0 224 0 223 -84 5 c-152 8 -146 -13 -146 548 l0 450 115 0 115 0 0 210 0 210
-115 0 -115 0 0 270 0 270 -235 0 -235 0 0 -270z"/>
<path d="M5920 5409 c-110 -13 -167 -44 -265 -143 -50 -50 -95 -100 -102 -111
-10 -16 -12 4 -12 108 l-1 127 -245 0 -245 0 0 -930 0 -930 245 0 244 0 3 593
c3 584 3 593 25 639 30 64 82 119 140 148 64 32 190 40 259 16 26 -9 49 -16
50 -16 4 0 146 431 143 434 -76 55 -150 76 -239 65z"/>
<path d="M13145 5408 c-89 -12 -194 -67 -251 -132 -25 -30 -57 -71 -70 -92
l-23 -39 -1 123 0 122 -235 0 -235 0 0 -930 0 -930 235 0 234 0 3 653 3 652
24 41 c46 77 134 112 230 94 65 -12 111 -43 142 -94 l24 -41 3 -652 3 -653
234 0 235 0 0 669 c0 706 -3 774 -46 895 -79 227 -271 345 -509 314z"/>
<path d="M19610 5413 c-256 -13 -455 -130 -546 -319 -20 -41 -34 -80 -31 -87
2 -7 83 -44 180 -83 l175 -72 42 45 c63 68 116 88 225 88 106 -1 157 -23 201
-87 24 -34 27 -49 32 -153 l5 -115 -206 0 c-242 0 -323 -13 -443 -71 -134 -64
-221 -169 -258 -315 -49 -192 -17 -440 72 -563 67 -92 144 -140 265 -165 141
-29 297 -14 401 40 59 30 97 63 137 118 l29 39 0 -91 0 -92 216 0 215 0 -3
713 -3 712 -34 85 c-62 155 -183 274 -334 327 -74 26 -253 50 -337 46z m280
-1245 c-1 -129 -10 -172 -49 -212 -45 -47 -115 -68 -225 -70 -160 -1 -219 45
-218 174 0 82 27 139 81 172 48 30 85 36 259 37 l152 1 0 -102z"/>
<path d="M24400 5409 c-110 -13 -167 -44 -265 -143 -50 -50 -95 -100 -102
-111 -10 -16 -12 4 -12 108 l-1 127 -245 0 -245 0 0 -930 0 -930 245 0 244 0
3 593 c3 584 3 593 25 639 30 64 82 119 140 148 64 32 190 40 259 16 26 -9 49
-16 50 -16 4 0 146 431 143 434 -76 55 -150 76 -239 65z"/>
<path d="M2765 5395 c-182 -41 -288 -111 -384 -256 -107 -160 -131 -288 -131
-703 0 -420 21 -523 139 -684 50 -70 151 -149 238 -189 97 -44 231 -66 378
-60 73 3 156 12 189 21 190 53 331 184 391 364 9 29 14 56 10 60 -3 4 -91 39
-193 78 l-187 71 -27 -50 c-38 -68 -44 -75 -102 -105 -43 -22 -63 -26 -133
-25 -71 0 -88 4 -135 30 -85 49 -128 144 -128 291 l0 42 470 0 470 0 0 148
c-1 416 -65 657 -215 807 -71 72 -173 128 -281 155 -92 24 -275 26 -369 5z
m319 -444 c67 -46 95 -112 103 -239 l6 -102 -251 0 -252 0 0 43 c0 135 42 243
112 294 51 36 78 43 170 38 56 -3 76 -9 112 -34z"/>
<path d="M6875 5395 c-182 -41 -288 -111 -384 -256 -107 -160 -131 -288 -131
-703 0 -420 21 -523 139 -684 50 -70 151 -149 238 -189 97 -44 231 -66 378
-60 73 3 156 12 189 21 190 53 331 184 391 364 9 29 14 56 10 60 -3 4 -91 39
-193 78 l-187 71 -27 -50 c-38 -68 -44 -75 -102 -105 -43 -22 -63 -26 -133
-25 -71 0 -88 4 -135 30 -85 49 -128 144 -128 291 l0 42 470 0 470 0 0 148
c-1 416 -65 657 -215 807 -71 72 -173 128 -281 155 -92 24 -275 26 -369 5z
m319 -444 c67 -46 95 -112 103 -239 l6 -102 -251 0 -252 0 0 43 c0 135 42 243
112 294 51 36 78 43 170 38 56 -3 76 -9 112 -34z"/>
<path d="M8530 5400 c-335 -45 -539 -306 -500 -638 25 -203 119 -324 312 -401
40 -16 165 -52 277 -81 113 -28 222 -60 242 -71 85 -43 112 -148 53 -210 -46
-49 -106 -70 -199 -70 -144 -1 -271 61 -340 165 -16 25 -34 46 -39 46 -10 0
-356 -177 -368 -189 -12 -10 46 -134 91 -193 82 -109 204 -184 372 -229 72
-19 108 -23 254 -22 160 1 176 2 267 31 217 67 352 202 404 402 22 88 15 280
-14 362 -35 96 -103 180 -192 235 -60 37 -162 70 -343 112 -201 47 -260 65
-298 94 -41 29 -62 80 -54 127 12 73 86 113 210 113 118 1 210 -47 274 -142
13 -20 25 -38 27 -39 5 -7 374 177 374 186 0 5 -11 35 -25 67 -70 157 -218
278 -400 327 -81 22 -286 31 -385 18z"/>
<path d="M14459 5400 c-69 -12 -158 -62 -215 -122 -96 -100 -146 -232 -164
-432 -12 -136 -12 -644 0 -784 24 -268 114 -432 285 -519 69 -36 72 -36 195
-37 122 -1 127 0 192 32 70 34 151 112 189 181 l19 36 -2 -205 c-3 -198 -4
-206 -28 -245 -41 -67 -94 -96 -175 -96 -87 0 -148 43 -189 133 l-21 46 -220
-70 c-121 -38 -221 -71 -222 -72 -5 -5 27 -125 44 -161 73 -163 195 -256 385
-296 106 -22 165 -23 307 -9 195 20 355 102 456 234 59 77 77 115 109 221 20
69 21 91 24 1113 l3 1042 -236 0 -235 0 0 -122 c-1 -119 -1 -122 -17 -93 -21
39 -117 144 -158 172 -79 54 -201 74 -326 53z m383 -434 c51 -22 87 -63 104
-121 12 -44 14 -114 12 -411 -3 -349 -4 -360 -25 -404 -13 -25 -39 -56 -60
-70 -32 -22 -48 -25 -118 -25 -70 0 -87 3 -119 25 -20 14 -49 45 -64 70 l-27
45 0 371 c0 369 0 371 24 421 24 53 64 89 110 103 43 13 126 11 163 -4z"/>
<path d="M22295 5395 c-182 -41 -288 -111 -384 -256 -107 -160 -131 -288 -131
-703 0 -420 21 -523 139 -684 50 -70 151 -149 238 -189 97 -44 231 -66 378
-60 73 3 156 12 189 21 190 53 331 184 391 364 9 29 14 56 10 60 -3 4 -91 39
-193 78 l-187 71 -27 -50 c-38 -68 -44 -75 -102 -105 -43 -22 -63 -26 -133
-25 -71 0 -88 4 -135 30 -85 49 -128 144 -128 291 l0 42 470 0 470 0 0 148
c-1 416 -65 657 -215 807 -71 72 -173 128 -281 155 -92 24 -275 26 -369 5z
m319 -444 c67 -46 95 -112 103 -239 l6 -102 -251 0 -252 0 0 43 c0 135 42 243
112 294 51 36 78 43 170 38 56 -3 76 -9 112 -34z"/>
<path d="M25310 5400 c-335 -45 -539 -306 -500 -638 25 -203 119 -324 312
-401 40 -16 165 -52 277 -81 113 -28 222 -60 242 -71 85 -43 112 -148 53 -210
-46 -49 -106 -70 -199 -70 -144 -1 -271 61 -340 165 -16 25 -34 46 -39 46 -10
0 -356 -177 -368 -189 -12 -10 46 -134 91 -193 82 -109 204 -184 372 -229 72
-19 108 -23 254 -22 160 1 176 2 267 31 217 67 352 202 404 402 22 88 15 280
-14 362 -35 96 -103 180 -192 235 -60 37 -162 70 -343 112 -201 47 -260 65
-298 94 -41 29 -62 80 -54 127 12 73 86 113 210 113 118 1 210 -47 274 -142
13 -20 25 -38 27 -39 5 -7 374 177 374 186 0 5 -11 35 -25 67 -70 157 -218
278 -400 327 -81 22 -286 31 -385 18z"/>
<path d="M11480 4460 l0 -930 230 0 230 0 0 930 0 930 -230 0 -230 0 0 -930z"/>
</g>
</svg>
